{"glyphs":{"0":{"ha":750,"x_min":47,"x_max":703,"o":"m 375 -17 q 242 13 301 -17 q 138 101 182 43 q 71 246 94 160 q 47 444 47 332 q 71 642 47 557 q 138 784 94 728 q 242 869 182 840 q 375 897 301 897 q 508 869 447 897 q 612 783 568 840 q 679 642 656 726 q 703 444 703 557 q 679 246 703 332 q 612 101 656 160 q 508 13 568 43 q 375 -17 447 -17 m 375 167 q 415 177 396 167 q 447 218 433 188 q 469 303 461 249 q 478 444 478 357 q 469 585 478 532 q 447 667 461 638 q 415 705 433 696 q 375 714 396 714 q 335 705 354 714 q 303 667 317 696 q 281 585 289 638 q 272 444 272 532 q 281 303 272 357 q 303 218 289 249 q 335 177 317 188 q 375 167 354 167 z "},"1":{"ha":750,"x_min":92,"x_max":678,"o":"m 92 192 l 281 192 l 281 647 l 114 647 l 114 794 q 242 829 189 810 q 344 881 294 849 l 519 881 l 519 192 l 678 192 l 678 0 l 92 0 l 92 192 z "},"2":{"ha":750,"x_min":39,"x_max":689,"o":"m 50 136 q 195 272 128 208 q 313 392 263 336 q 391 499 363 449 q 419 594 419 550 q 390 683 419 654 q 311 711 360 711 q 233 685 267 711 q 167 628 199 660 l 39 756 q 107 819 74 792 q 177 863 140 846 q 255 889 214 881 q 344 897 296 897 q 467 876 411 897 q 563 818 522 856 q 625 727 603 781 q 647 608 647 674 q 624 501 647 556 q 565 392 601 446 q 484 286 529 338 q 394 189 439 235 q 470 197 428 193 q 542 200 513 200 l 689 200 l 689 0 l 50 0 l 50 136 z "},"3":{"ha":750,"x_min":28,"x_max":683,"o":"m 136 258 q 223 198 176 221 q 317 175 269 175 q 410 196 375 175 q 444 258 444 217 q 436 303 444 283 q 404 336 428 322 q 338 357 381 350 q 225 364 294 364 l 225 531 q 317 538 281 531 q 376 558 354 544 q 408 589 399 571 q 417 631 417 607 q 325 711 417 711 q 246 693 281 711 q 169 639 211 675 l 50 783 q 185 867 115 838 q 336 897 254 897 q 569 833 482 897 q 656 649 656 768 q 514 458 656 521 l 514 453 q 636 377 589 429 q 683 242 683 325 q 656 131 683 179 q 581 50 628 83 q 472 0 535 17 q 342 -17 410 -17 q 156 17 233 -17 q 28 108 78 50 l 136 258 z "},"4":{"ha":750,"x_min":28,"x_max":719,"o":"m 403 378 l 403 478 q 403 527 403 500 q 406 582 404 554 q 408 637 407 610 q 411 686 410 664 l 406 686 q 371 607 389 646 q 333 528 353 568 l 253 378 l 403 378 m 719 197 l 625 197 l 625 0 l 403 0 l 403 197 l 28 197 l 28 364 l 328 881 l 625 881 l 625 378 l 719 378 l 719 197 z "},"5":{"ha":750,"x_min":31,"x_max":683,"o":"m 136 258 q 221 199 176 222 q 314 175 265 175 q 410 203 376 175 q 444 289 444 231 q 411 374 444 346 q 325 403 378 403 q 293 401 307 403 q 266 394 279 399 q 238 382 253 390 q 203 361 222 374 l 100 428 l 122 881 l 644 881 l 644 681 l 328 681 l 317 553 q 359 564 340 561 q 400 567 378 567 q 508 550 457 567 q 599 500 560 533 q 660 415 638 467 q 683 294 683 364 q 656 163 683 221 q 583 65 629 104 q 477 4 538 25 q 350 -17 417 -17 q 163 19 242 -17 q 31 108 85 54 l 136 258 z "},"6":{"ha":750,"x_min":53,"x_max":703,"o":"m 392 161 q 458 188 429 161 q 486 283 486 214 q 478 335 486 315 q 456 367 469 356 q 425 384 443 379 q 389 389 407 389 q 329 372 358 389 q 276 314 300 354 q 297 238 283 268 q 325 191 310 208 q 358 167 340 174 q 392 161 375 161 m 567 644 q 508 687 546 668 q 433 706 471 706 q 373 694 401 706 q 323 653 344 682 q 288 580 301 625 q 271 468 274 535 q 308 506 288 489 q 352 533 329 522 q 397 550 375 544 q 436 556 418 556 q 541 540 492 556 q 626 490 590 524 q 682 406 661 457 q 703 283 703 354 q 678 157 703 213 q 613 63 654 101 q 515 3 571 24 q 397 -17 460 -17 q 272 8 333 -17 q 161 85 210 32 q 83 222 113 138 q 53 425 53 306 q 83 633 53 544 q 164 781 114 722 q 280 868 214 839 q 417 897 346 897 q 579 864 511 897 q 692 786 647 831 l 567 644 z "},"7":{"ha":750,"x_min":61,"x_max":692,"o":"m 211 0 q 231 192 217 104 q 270 360 244 279 q 337 518 296 440 q 439 681 378 596 l 61 681 l 61 881 l 692 881 l 692 733 q 571 567 615 644 q 501 406 526 489 q 466 226 476 324 q 450 0 456 129 l 211 0 l 211 0 z "},"8":{"ha":750,"x_min":58,"x_max":694,"o":"m 263 253 q 297 174 263 200 q 378 147 332 147 q 446 168 418 147 q 474 239 474 189 q 463 281 474 263 q 430 313 451 299 q 378 342 408 328 q 308 372 347 356 q 276 317 289 349 q 263 253 263 286 m 425 525 q 464 636 464 581 q 440 708 464 682 q 375 733 417 733 q 319 713 343 733 q 294 647 294 693 q 328 576 294 603 q 425 525 363 550 m 58 225 q 99 351 58 303 q 203 433 140 400 l 203 439 q 118 528 150 479 q 86 647 86 578 q 108 752 86 706 q 169 831 129 799 q 262 880 208 863 q 381 897 315 897 q 492 880 442 897 q 579 831 543 863 q 635 754 615 800 q 656 653 656 708 q 623 545 656 592 q 543 468 590 499 l 543 463 q 651 373 608 428 q 694 231 694 318 q 672 133 694 178 q 606 54 649 88 q 504 2 564 21 q 372 -17 444 -17 q 248 1 306 -17 q 148 50 190 18 q 82 126 106 82 q 58 225 58 171 z "},"9":{"ha":750,"x_min":44,"x_max":694,"o":"m 358 492 q 418 509 389 492 q 471 567 447 526 q 451 642 464 613 q 422 690 438 672 q 390 713 407 707 q 356 719 372 719 q 290 693 318 719 q 261 597 261 667 q 269 545 261 565 q 291 513 278 525 q 322 497 304 501 q 358 492 339 492 m 181 236 q 239 194 201 213 q 314 175 276 175 q 375 187 347 175 q 424 227 403 199 q 460 301 446 256 q 476 413 474 346 q 439 375 460 392 q 395 347 418 358 q 351 331 372 336 q 311 325 329 325 q 206 341 254 325 q 122 390 157 357 q 65 475 86 424 q 44 597 44 526 q 69 724 44 668 q 135 818 93 779 q 232 877 176 857 q 350 897 288 897 q 476 873 414 897 q 586 796 538 849 q 665 659 635 743 q 694 456 694 575 q 664 247 694 336 q 583 100 633 158 q 467 13 533 42 q 331 -17 401 -17 q 168 17 236 -17 q 56 94 100 50 l 181 236 z "},"\u0000":{"ha":0,"x_min":0,"x_max":0,"o":""},"\r":{"ha":292,"x_min":0,"x_max":0,"o":""}," ":{"ha":292,"x_min":0,"x_max":0,"o":""},"A":{"ha":811,"x_min":-14,"x_max":825,"o":"m 485 376 l 469 439 q 436 581 453 504 q 403 725 419 657 l 397 725 q 366 580 382 656 q 333 439 350 504 l 318 376 l 485 376 m 528 192 l 275 192 l 231 0 l -14 0 l 261 903 l 550 903 l 825 0 l 572 0 l 528 192 z "},"B":{"ha":850,"x_min":100,"x_max":808,"o":"m 100 903 l 425 903 q 558 892 496 903 q 667 857 621 882 q 740 788 713 832 q 767 678 767 744 q 758 619 767 649 q 731 562 750 589 q 684 514 713 535 q 617 483 656 493 l 617 478 q 760 408 713 458 q 808 267 808 357 q 780 147 808 197 q 703 63 751 96 q 590 15 656 31 q 453 0 525 0 l 100 0 l 100 903 m 419 547 q 506 574 478 547 q 533 642 533 600 q 506 701 533 683 q 419 719 478 719 l 339 719 l 339 547 l 419 547 m 436 183 q 575 286 575 183 q 541 358 575 336 q 436 381 507 381 l 339 381 l 339 183 l 436 183 z "},"C":{"ha":814,"x_min":61,"x_max":789,"o":"m 61 444 q 97 647 61 558 q 194 795 133 735 q 335 888 256 856 q 503 919 415 919 q 659 884 589 919 q 778 800 729 849 l 647 653 q 582 698 614 682 q 506 714 550 714 q 428 696 465 714 q 365 644 392 678 q 322 563 338 611 q 306 453 306 514 q 359 257 306 325 q 500 189 413 189 q 591 209 553 189 q 658 261 629 229 l 789 117 q 656 17 731 50 q 497 -17 581 -17 q 329 12 408 -17 q 190 98 250 40 q 96 242 131 156 q 61 444 61 329 z "},"D":{"ha":892,"x_min":100,"x_max":831,"o":"m 100 903 l 367 903 q 555 878 469 903 q 701 799 640 853 q 797 660 763 744 q 831 456 831 575 q 797 250 831 336 q 703 108 764 164 q 560 26 643 53 q 381 0 478 0 l 100 0 l 100 903 m 353 192 q 444 203 401 192 q 519 244 488 215 q 568 325 550 274 q 586 456 586 376 q 568 585 586 535 q 519 663 550 635 q 444 701 488 690 q 353 711 401 711 l 339 711 l 339 192 l 353 192 z "},"E":{"ha":772,"x_min":100,"x_max":697,"o":"m 100 903 l 683 903 l 683 703 l 339 703 l 339 561 l 633 561 l 633 361 l 339 361 l 339 200 l 697 200 l 697 0 l 100 0 l 100 903 z "},"F":{"ha":744,"x_min":100,"x_max":689,"o":"m 100 903 l 689 903 l 689 703 l 339 703 l 339 531 l 639 531 l 639 331 l 339 331 l 339 0 l 100 0 l 100 903 z "},"G":{"ha":897,"x_min":61,"x_max":822,"o":"m 61 444 q 97 647 61 558 q 196 795 133 735 q 341 888 258 856 q 517 919 424 919 q 685 884 613 919 q 806 800 757 849 l 675 653 q 608 698 642 682 q 519 714 574 714 q 435 696 474 714 q 367 644 396 678 q 322 563 338 611 q 306 453 306 514 q 363 257 306 325 q 542 189 419 189 q 580 193 561 189 q 611 206 599 197 l 611 331 l 478 331 l 478 525 l 822 525 l 822 94 q 690 16 772 49 q 511 -17 607 -17 q 336 12 418 -17 q 193 98 254 40 q 97 242 132 156 q 61 444 61 329 z "},"H":{"ha":947,"x_min":100,"x_max":847,"o":"m 100 903 l 339 903 l 339 567 l 608 567 l 608 903 l 847 903 l 847 0 l 608 0 l 608 358 l 339 358 l 339 0 l 100 0 l 100 903 z "},"I":{"ha":439,"x_min":100,"x_max":339,"o":"m 100 903 l 339 903 l 339 0 l 100 0 l 100 903 z "},"J":{"ha":722,"x_min":14,"x_max":628,"o":"m 175 275 q 229 210 199 231 q 289 189 260 189 q 331 195 313 189 q 363 218 350 201 q 382 263 375 235 q 389 333 389 290 l 389 903 l 628 903 l 628 314 q 609 186 628 246 q 553 81 590 126 q 458 10 515 36 q 322 -17 400 -17 q 138 25 211 -17 q 14 154 64 67 l 175 275 z "},"K":{"ha":872,"x_min":100,"x_max":886,"o":"m 100 903 l 339 903 l 339 567 l 344 567 l 572 903 l 833 903 l 564 536 l 886 0 l 625 0 l 425 347 l 339 225 l 339 0 l 100 0 l 100 903 z "},"L":{"ha":736,"x_min":100,"x_max":681,"o":"m 100 903 l 339 903 l 339 200 l 681 200 l 681 0 l 100 0 l 100 903 z "},"M":{"ha":1078,"x_min":100,"x_max":978,"o":"m 100 903 l 347 903 l 489 528 l 539 381 l 544 381 l 594 528 l 731 903 l 978 903 l 978 0 l 756 0 l 756 267 q 759 343 756 301 q 767 428 763 385 q 776 514 771 472 q 786 589 782 556 l 781 589 l 706 378 l 581 74 l 492 74 l 367 378 l 294 589 l 289 589 q 299 514 293 556 q 308 428 304 472 q 316 343 313 385 q 319 267 319 301 l 319 0 l 100 0 l 100 903 z "},"N":{"ha":933,"x_min":100,"x_max":833,"o":"m 100 903 l 344 903 l 544 500 l 631 297 l 636 297 q 626 376 632 333 q 617 465 621 419 q 609 555 613 510 q 606 642 606 600 l 606 903 l 833 903 l 833 0 l 589 0 l 389 404 l 303 606 l 297 606 q 317 436 306 528 q 328 261 328 344 l 328 0 l 100 0 l 100 903 z "},"O":{"ha":961,"x_min":61,"x_max":900,"o":"m 481 -17 q 309 15 386 -17 q 177 108 232 47 q 92 256 122 168 q 61 456 61 344 q 92 653 61 567 q 177 799 122 740 q 309 889 232 858 q 481 919 386 919 q 651 889 574 919 q 784 799 729 858 q 869 653 839 739 q 900 456 900 567 q 869 256 900 344 q 784 108 839 168 q 651 15 729 47 q 481 -17 574 -17 m 481 189 q 609 260 563 189 q 656 456 656 332 q 609 647 656 579 q 481 714 563 714 q 352 647 399 714 q 306 456 306 579 q 352 260 306 332 q 481 189 399 189 z "},"P":{"ha":858,"x_min":100,"x_max":811,"o":"m 100 903 l 450 903 q 588 888 522 903 q 703 838 654 874 q 782 745 753 803 q 811 603 811 688 q 781 460 811 519 q 701 362 751 400 q 586 305 651 324 q 450 286 521 286 l 339 286 l 339 0 l 100 0 l 100 903 m 439 475 q 544 508 510 475 q 578 603 578 542 q 542 689 578 664 q 439 714 506 714 l 339 714 l 339 475 l 439 475 z "},"Q":{"ha":961,"x_min":61,"x_max":958,"o":"m 481 714 q 352 647 399 714 q 306 456 306 579 q 352 249 306 321 q 481 178 399 178 q 609 249 563 178 q 656 456 656 321 q 609 647 656 579 q 481 714 563 714 m 958 -222 q 888 -247 931 -237 q 786 -256 844 -256 q 645 -237 710 -256 q 528 -186 581 -219 q 438 -106 476 -153 q 372 -4 399 -60 q 244 51 301 13 q 146 147 186 89 q 83 283 106 206 q 61 456 61 361 q 92 653 61 567 q 177 799 122 740 q 309 889 232 858 q 481 919 386 919 q 651 889 574 919 q 784 799 729 858 q 869 653 839 739 q 900 456 900 567 q 826 163 900 278 q 624 6 751 47 q 709 -52 656 -37 q 814 -67 763 -67 q 869 -62 843 -67 q 917 -50 896 -57 l 958 -222 z "},"R":{"ha":875,"x_min":100,"x_max":853,"o":"m 339 492 l 425 492 q 569 611 569 492 q 533 692 569 669 q 425 714 496 714 l 339 714 l 339 492 m 586 0 l 431 303 l 339 303 l 339 0 l 100 0 l 100 903 l 442 903 q 580 889 514 903 q 695 842 646 875 q 774 752 744 808 q 803 611 803 696 q 763 450 803 514 q 657 350 724 386 l 853 0 l 586 0 z "},"S":{"ha":783,"x_min":44,"x_max":739,"o":"m 181 276 q 285 213 229 238 q 392 189 342 189 q 470 206 446 189 q 494 253 494 222 q 486 281 494 269 q 462 301 478 292 q 424 320 446 311 q 372 340 401 329 l 260 388 q 190 424 224 401 q 132 478 157 447 q 92 550 107 510 q 78 639 78 590 q 103 748 78 697 q 172 837 128 799 q 278 897 217 875 q 414 919 340 919 q 572 890 492 919 q 714 799 651 861 l 594 649 q 506 697 549 681 q 414 714 464 714 q 344 699 369 714 q 319 653 319 683 q 355 603 319 621 q 453 563 390 586 l 563 519 q 693 426 647 486 q 739 272 739 367 q 715 163 739 215 q 647 70 692 110 q 536 7 601 31 q 386 -17 471 -17 q 209 15 300 -17 q 44 113 118 46 l 181 276 z "},"T":{"ha":783,"x_min":33,"x_max":750,"o":"m 272 703 l 33 703 l 33 903 l 750 903 l 750 703 l 511 703 l 511 0 l 272 0 l 272 703 z "},"U":{"ha":933,"x_min":94,"x_max":839,"o":"m 94 903 l 333 903 l 333 408 q 366 238 333 288 q 469 189 399 189 q 574 238 540 189 q 608 408 608 288 l 608 903 l 839 903 l 839 436 q 749 94 839 204 q 469 -17 658 -17 q 187 94 279 -17 q 94 436 94 204 l 94 903 z "},"V":{"ha":794,"x_min":-14,"x_max":808,"o":"m -14 903 l 239 903 l 333 508 q 367 366 353 436 q 400 222 381 296 l 406 222 q 440 366 425 296 q 472 508 454 436 l 564 903 l 808 903 l 542 0 l 253 0 l -14 903 z "},"W":{"ha":1144,"x_min":14,"x_max":1131,"o":"m 14 903 l 258 903 l 308 508 q 324 367 315 438 q 339 225 332 296 l 344 225 q 369 367 357 296 q 394 508 382 438 l 481 903 l 681 903 l 767 508 q 792 369 779 440 q 817 225 804 297 l 822 225 q 838 368 829 297 q 853 508 846 439 l 903 903 l 1131 903 l 981 0 l 678 0 l 608 358 q 590 465 597 411 q 575 569 582 519 l 569 569 q 555 465 563 519 q 536 358 547 411 l 469 0 l 172 0 l 14 903 z "},"X":{"ha":817,"x_min":14,"x_max":803,"o":"m 258 464 l 28 903 l 294 903 l 356 756 q 385 687 371 724 q 419 606 400 650 l 425 606 q 454 687 440 650 q 481 756 468 724 l 533 903 l 789 903 l 558 453 l 803 0 l 536 0 l 464 161 q 432 233 447 197 q 400 311 417 269 l 394 311 q 365 233 379 269 q 336 161 351 197 l 269 0 l 14 0 l 258 464 z "},"Y":{"ha":756,"x_min":-14,"x_max":769,"o":"m 258 311 l -14 903 l 242 903 l 308 714 q 342 614 325 663 q 376 513 358 565 l 382 513 q 417 614 400 565 q 453 714 435 663 l 519 903 l 769 903 l 497 311 l 497 0 l 258 0 l 258 311 z "},"Z":{"ha":753,"x_min":44,"x_max":711,"o":"m 44 144 l 414 703 l 81 703 l 81 903 l 708 903 l 708 758 l 339 200 l 711 200 l 711 0 l 44 0 l 44 144 z "},"a":{"ha":753,"x_min":58,"x_max":675,"o":"m 58 197 q 147 367 58 306 q 436 450 236 429 q 339 522 428 522 q 260 508 301 522 q 164 464 218 493 l 81 619 q 229 688 154 664 q 386 711 304 711 q 598 634 521 711 q 675 386 675 557 l 675 0 l 481 0 l 464 67 l 458 67 q 370 6 417 29 q 267 -17 324 -17 q 179 1 218 -17 q 113 47 140 18 q 72 115 86 76 q 58 197 58 154 m 286 217 q 350 167 286 167 q 398 180 379 167 q 436 214 417 193 l 436 308 q 318 271 350 296 q 286 217 286 246 z "},"b":{"ha":806,"x_min":81,"x_max":756,"o":"m 81 967 l 319 967 l 319 742 l 314 642 q 394 693 350 675 q 485 711 439 711 q 596 686 546 711 q 681 615 646 661 q 736 504 717 569 q 756 360 756 439 q 731 199 756 269 q 667 81 707 129 q 574 8 626 33 q 467 -17 522 -17 q 376 6 421 -17 q 292 75 332 29 l 286 75 l 267 0 l 81 0 l 81 967 m 319 211 q 363 185 340 192 q 408 178 385 178 q 481 217 450 178 q 511 356 511 256 q 487 479 511 442 q 414 517 463 517 q 365 506 386 517 q 319 467 343 494 l 319 211 z "},"c":{"ha":656,"x_min":44,"x_max":628,"o":"m 44 347 q 75 501 44 433 q 157 616 106 569 q 276 687 208 663 q 417 711 343 711 q 531 690 479 711 q 619 633 583 669 l 511 486 q 469 513 488 506 q 431 519 450 519 q 326 473 364 519 q 289 347 289 426 q 327 222 289 268 q 422 175 365 175 q 483 189 456 175 q 533 219 510 203 l 628 69 q 512 3 575 24 q 394 -17 449 -17 q 257 8 321 -17 q 146 78 193 32 q 72 193 99 125 q 44 347 44 261 z "},"d":{"ha":806,"x_min":50,"x_max":725,"o":"m 50 347 q 74 500 50 432 q 138 615 99 568 q 229 686 178 661 q 333 711 281 711 q 426 692 390 711 q 494 642 463 674 l 486 742 l 486 967 l 725 967 l 725 0 l 531 0 l 514 64 l 508 64 q 426 6 472 28 q 333 -17 379 -17 q 216 8 268 -17 q 127 81 164 33 q 70 195 90 128 q 50 347 50 263 m 294 350 q 322 217 294 256 q 397 178 349 178 q 446 188 425 178 q 486 228 467 199 l 486 483 q 440 510 465 503 q 392 517 415 517 q 324 479 354 517 q 294 350 294 442 z "},"e":{"ha":731,"x_min":44,"x_max":681,"o":"m 44 347 q 73 499 44 432 q 148 614 101 567 q 254 686 194 661 q 378 711 314 711 q 511 685 454 711 q 606 613 568 658 q 662 506 643 567 q 681 375 681 444 q 677 318 681 343 q 671 281 674 293 l 275 281 q 335 189 292 214 q 436 164 378 164 q 506 174 472 164 q 578 206 540 185 l 656 64 q 530 3 599 24 q 403 -17 461 -17 q 261 8 326 -17 q 148 78 196 32 q 72 193 100 125 q 44 347 44 261 m 478 425 q 458 500 478 469 q 383 531 438 531 q 313 507 343 531 q 272 425 283 483 l 478 425 z "},"f":{"ha":500,"x_min":31,"x_max":544,"o":"m 503 783 q 468 794 486 790 q 433 797 450 797 q 381 778 400 797 q 361 711 361 760 l 361 694 l 478 694 l 478 508 l 361 508 l 361 0 l 122 0 l 122 508 l 31 508 l 31 686 l 122 693 l 122 703 q 136 809 122 758 q 183 899 150 860 q 267 960 215 938 q 397 983 319 983 q 483 975 446 983 q 544 958 521 967 l 503 783 z "},"g":{"ha":758,"x_min":42,"x_max":736,"o":"m 236 -75 q 274 -124 236 -108 q 372 -139 311 -139 q 469 -122 431 -139 q 508 -75 508 -104 q 484 -40 508 -47 q 415 -33 460 -33 l 361 -33 q 298 -31 319 -33 q 261 -25 276 -29 q 242 -49 249 -37 q 236 -75 236 -60 m 42 -114 q 139 19 42 -32 l 139 25 q 93 72 111 44 q 75 144 75 100 q 96 215 75 181 q 153 275 117 250 l 153 281 q 87 351 115 306 q 58 458 58 397 q 83 570 58 522 q 150 649 108 618 q 245 696 192 681 q 356 711 299 711 q 467 694 417 711 l 725 694 l 725 522 l 625 522 q 633 490 629 510 q 636 450 636 471 q 614 345 636 389 q 554 274 592 301 q 465 233 517 246 q 356 219 414 219 q 278 229 321 219 q 264 212 267 219 q 261 189 261 204 q 283 156 261 165 q 358 147 306 147 l 463 147 q 665 105 593 147 q 736 -33 736 63 q 708 -137 736 -90 q 627 -217 679 -183 q 501 -268 575 -250 q 333 -286 426 -286 q 221 -277 274 -286 q 128 -247 168 -268 q 65 -194 89 -226 q 42 -114 42 -161 m 356 361 q 410 385 389 361 q 431 458 431 408 q 410 530 431 507 q 356 553 389 553 q 301 530 322 553 q 281 458 281 507 q 301 385 281 408 q 356 361 322 361 z "},"h":{"ha":808,"x_min":81,"x_max":733,"o":"m 81 967 l 319 967 l 319 742 l 308 622 q 395 683 344 654 q 517 711 446 711 q 682 634 631 711 q 733 428 733 557 l 733 0 l 494 0 l 494 397 q 478 486 494 464 q 425 508 461 508 q 369 494 392 508 q 319 456 347 481 l 319 0 l 81 0 l 81 967 z "},"i":{"ha":400,"x_min":67,"x_max":333,"o":"m 200 781 q 104 814 142 781 q 67 900 67 847 q 104 986 67 953 q 200 1019 142 1019 q 296 986 258 1019 q 333 900 333 953 q 296 814 333 847 q 200 781 258 781 m 81 694 l 319 694 l 319 0 l 81 0 l 81 694 z "},"j":{"ha":403,"x_min":-78,"x_max":336,"o":"m 83 694 l 322 694 l 322 36 q 310 -76 322 -22 q 266 -171 297 -129 q 183 -237 235 -212 q 53 -261 131 -261 q -25 -256 4 -261 q -78 -242 -54 -250 l -36 -67 q -10 -73 -21 -71 q 14 -75 1 -75 q 67 -52 51 -75 q 83 28 83 -29 l 83 694 m 203 781 q 107 814 144 781 q 69 900 69 847 q 107 986 69 953 q 203 1019 144 1019 q 299 986 261 1019 q 336 900 336 953 q 299 814 336 847 q 203 781 261 781 z "},"k":{"ha":789,"x_min":81,"x_max":783,"o":"m 81 967 l 314 967 l 314 453 l 319 453 l 511 694 l 769 694 l 522 406 l 783 0 l 525 0 l 386 247 l 314 167 l 314 0 l 81 0 l 81 967 z "},"l":{"ha":414,"x_min":81,"x_max":411,"o":"m 81 967 l 319 967 l 319 236 q 333 188 319 200 q 358 175 346 175 q 370 175 365 175 q 383 178 375 175 l 411 3 q 363 -11 392 -6 q 294 -17 335 -17 q 192 2 233 -17 q 126 56 151 21 q 91 138 101 90 q 81 244 81 186 l 81 967 z "},"m":{"ha":1206,"x_min":81,"x_max":1131,"o":"m 81 694 l 275 694 l 292 610 l 297 610 q 387 681 339 650 q 506 711 435 711 q 623 683 576 711 q 697 600 669 654 q 790 678 740 644 q 911 711 840 711 q 1078 634 1025 711 q 1131 428 1131 557 l 1131 0 l 892 0 l 892 397 q 875 486 892 464 q 822 508 858 508 q 725 456 778 508 l 725 0 l 486 0 l 486 397 q 469 486 486 464 q 417 508 453 508 q 319 456 372 508 l 319 0 l 81 0 l 81 694 z "},"n":{"ha":808,"x_min":81,"x_max":733,"o":"m 81 694 l 275 694 l 292 611 l 297 611 q 392 681 339 651 q 517 711 446 711 q 682 634 631 711 q 733 428 733 557 l 733 0 l 494 0 l 494 397 q 478 486 494 464 q 425 508 461 508 q 369 494 392 508 q 319 456 347 481 l 319 0 l 81 0 l 81 694 z "},"o":{"ha":778,"x_min":44,"x_max":733,"o":"m 44 347 q 73 501 44 433 q 149 616 101 569 q 260 687 197 663 q 389 711 322 711 q 517 687 456 711 q 627 616 579 663 q 704 501 675 569 q 733 347 733 433 q 704 193 733 261 q 627 78 675 125 q 517 8 579 32 q 389 -17 456 -17 q 260 8 322 -17 q 149 78 197 32 q 73 193 101 125 q 44 347 44 261 m 289 347 q 312 222 289 268 q 389 175 335 175 q 466 222 443 175 q 489 347 489 268 q 466 473 489 426 q 389 519 443 519 q 312 473 335 519 q 289 347 289 426 z "},"p":{"ha":806,"x_min":81,"x_max":756,"o":"m 319 -53 l 319 -244 l 81 -244 l 81 694 l 275 694 l 292 631 l 297 631 q 385 689 336 667 q 486 711 433 711 q 597 686 547 711 q 683 615 647 661 q 737 504 718 569 q 756 358 756 439 q 731 199 756 268 q 667 81 707 129 q 574 8 626 33 q 467 -17 522 -17 q 311 53 381 -17 l 319 -53 m 319 211 q 363 185 340 192 q 408 178 385 178 q 481 217 450 178 q 511 356 511 256 q 487 479 511 442 q 414 517 463 517 q 365 506 386 517 q 319 467 343 494 l 319 211 z "},"q":{"ha":806,"x_min":50,"x_max":725,"o":"m 50 347 q 74 500 50 432 q 138 615 99 568 q 229 686 178 661 q 333 711 281 711 q 431 691 389 711 q 514 625 474 671 l 519 625 l 539 694 l 725 694 l 725 -244 l 486 -244 l 486 -46 l 494 53 q 419 2 463 21 q 333 -17 375 -17 q 216 8 268 -17 q 127 81 164 33 q 70 195 90 128 q 50 347 50 263 m 294 350 q 322 217 294 256 q 397 178 349 178 q 446 188 425 178 q 486 228 467 199 l 486 483 q 440 510 465 503 q 392 517 415 517 q 324 479 354 517 q 294 350 294 442 z "},"r":{"ha":581,"x_min":81,"x_max":581,"o":"m 81 694 l 275 694 l 292 575 l 297 575 q 390 678 336 646 q 494 711 443 711 q 546 708 526 711 q 581 697 565 704 l 542 492 q 505 499 522 496 q 464 503 488 503 q 385 477 426 503 q 319 386 344 451 l 319 0 l 81 0 l 81 694 z "},"s":{"ha":628,"x_min":25,"x_max":592,"o":"m 131 228 q 300 158 225 158 q 353 169 338 158 q 369 200 369 179 q 358 224 369 214 q 328 244 347 235 q 286 261 310 253 q 236 281 263 269 q 174 310 206 293 q 118 353 143 328 q 77 410 93 378 q 61 486 61 443 q 81 579 61 538 q 138 650 101 621 q 224 695 174 679 q 336 711 275 711 q 484 683 422 711 q 592 619 546 654 l 486 478 q 413 521 449 506 q 344 536 376 536 q 283 497 283 536 q 294 474 283 483 q 322 456 304 464 q 364 440 340 447 q 414 422 388 432 q 476 394 444 411 q 534 353 508 378 q 576 295 560 329 q 592 214 592 261 q 572 123 592 165 q 515 49 553 81 q 422 1 478 18 q 294 -17 367 -17 q 153 10 228 -17 q 25 81 79 36 l 131 228 z "},"t":{"ha":556,"x_min":19,"x_max":531,"o":"m 111 508 l 19 508 l 19 686 l 125 694 l 153 875 l 350 875 l 350 694 l 508 694 l 508 508 l 350 508 l 350 271 q 375 191 350 213 q 433 169 400 169 q 466 173 450 169 q 494 181 482 176 l 531 8 q 464 -8 503 0 q 367 -17 425 -17 q 251 3 299 -17 q 172 61 203 24 q 126 151 140 99 q 111 267 111 203 l 111 508 z "},"u":{"ha":803,"x_min":75,"x_max":722,"o":"m 75 694 l 314 694 l 314 297 q 331 208 314 231 q 383 186 347 186 q 438 200 417 186 q 483 247 460 214 l 483 694 l 722 694 l 722 0 l 528 0 l 511 92 l 506 92 q 413 13 464 42 q 292 -17 363 -17 q 194 3 235 -17 q 126 60 153 24 q 88 149 100 97 q 75 267 75 201 l 75 694 z "},"v":{"ha":756,"x_min":17,"x_max":739,"o":"m 17 694 l 256 694 l 331 392 q 381 175 356 288 l 386 175 q 436 392 411 288 l 511 694 l 739 694 l 519 0 l 244 0 l 17 694 z "},"w":{"ha":1108,"x_min":33,"x_max":1075,"o":"m 33 694 l 269 694 l 322 403 q 336 298 331 350 q 350 192 342 246 l 356 192 q 373 299 364 246 q 394 403 382 353 l 458 694 l 661 694 l 728 403 q 749 298 740 350 q 769 192 758 246 l 775 192 q 789 298 783 246 q 803 403 794 350 l 856 694 l 1075 694 l 917 0 l 639 0 l 589 242 q 572 339 581 290 q 556 446 564 388 l 550 446 q 535 339 542 388 q 519 242 528 290 l 472 0 l 200 0 l 33 694 z "},"x":{"ha":750,"x_min":19,"x_max":731,"o":"m 228 361 l 31 694 l 286 694 l 336 597 q 364 538 350 568 q 392 478 378 507 l 397 478 q 418 538 407 507 q 439 597 429 568 l 472 694 l 719 694 l 522 333 l 731 0 l 475 0 l 419 97 q 389 157 404 126 q 358 217 374 188 l 353 217 q 329 158 342 188 q 306 97 317 128 l 267 0 l 19 0 l 228 361 z "},"y":{"ha":753,"x_min":17,"x_max":736,"o":"m 119 -67 q 141 -72 129 -69 q 164 -75 153 -75 q 237 -56 213 -75 q 272 -6 261 -37 l 281 25 l 17 694 l 256 694 l 339 428 q 365 331 354 379 q 389 231 376 283 l 394 231 q 416 329 406 281 q 439 428 426 378 l 508 694 l 736 694 l 503 11 q 447 -111 475 -60 q 381 -196 418 -162 q 295 -245 343 -229 q 183 -261 247 -261 q 124 -258 147 -261 q 78 -247 101 -254 l 119 -67 l 119 -67 z "},"z":{"ha":658,"x_min":56,"x_max":625,"o":"m 56 128 l 319 508 l 86 508 l 86 694 l 617 694 l 617 567 l 353 186 l 625 186 l 625 0 l 56 0 l 56 128 z "},"À":{"ha":811,"x_min":-14,"x_max":825,"o":"m 485 376 l 469 439 q 436 581 453 504 q 403 725 419 657 l 397 725 q 366 580 382 656 q 333 439 350 504 l 318 376 l 485 376 m 528 192 l 275 192 l 231 0 l -14 0 l 261 903 l 550 903 l 825 0 l 572 0 l 528 192 m 158 1144 l 408 1144 l 517 972 l 328 972 l 158 1144 z "},"Á":{"ha":811,"x_min":-14,"x_max":825,"o":"m 485 376 l 469 439 q 436 581 453 504 q 403 725 419 657 l 397 725 q 366 580 382 656 q 333 439 350 504 l 318 376 l 485 376 m 528 192 l 275 192 l 231 0 l -14 0 l 261 903 l 550 903 l 825 0 l 572 0 l 528 192 m 472 972 l 283 972 l 392 1144 l 642 1144 l 472 972 z "},"Â":{"ha":811,"x_min":-14,"x_max":825,"o":"m 485 376 l 469 439 q 436 581 453 504 q 403 725 419 657 l 397 725 q 366 580 382 656 q 333 439 350 504 l 318 376 l 485 376 m 528 192 l 275 192 l 231 0 l -14 0 l 261 903 l 550 903 l 825 0 l 572 0 l 528 192 m 150 972 l 283 1144 l 517 1144 l 650 972 l 469 972 l 403 1053 l 397 1053 l 331 972 l 150 972 z "},"Ã":{"ha":811,"x_min":-14,"x_max":825,"o":"m 485 376 l 469 439 q 436 581 453 504 q 403 725 419 657 l 397 725 q 366 580 382 656 q 333 439 350 504 l 318 376 l 485 376 m 528 192 l 275 192 l 231 0 l -14 0 l 261 903 l 550 903 l 825 0 l 572 0 l 528 192 m 489 972 q 437 981 461 972 q 392 1001 413 990 q 353 1022 371 1013 q 322 1031 336 1031 q 292 1018 306 1031 q 269 972 278 1006 l 150 972 q 208 1126 163 1078 q 311 1175 254 1175 q 363 1166 339 1175 q 408 1146 388 1157 q 446 1126 429 1135 q 478 1117 463 1117 q 508 1129 494 1117 q 531 1175 522 1142 l 650 1175 q 628 1084 643 1122 q 591 1021 613 1046 q 543 984 569 996 q 489 972 517 972 z "},"Ä":{"ha":811,"x_min":-14,"x_max":825,"o":"m 485 376 l 469 439 q 436 581 453 504 q 403 725 419 657 l 397 725 q 366 580 382 656 q 333 439 350 504 l 318 376 l 485 376 m 528 192 l 275 192 l 231 0 l -14 0 l 261 903 l 550 903 l 825 0 l 572 0 l 528 192 m 256 964 q 177 995 207 964 q 147 1072 147 1026 q 177 1149 147 1118 q 256 1181 207 1181 q 334 1149 304 1181 q 364 1072 364 1118 q 334 995 364 1026 q 256 964 304 964 m 544 964 q 466 995 496 964 q 436 1072 436 1026 q 466 1149 436 1118 q 544 1181 496 1181 q 623 1149 593 1181 q 653 1072 653 1118 q 623 995 653 1026 q 544 964 593 964 z "},"Ā":{"ha":811,"x_min":-14,"x_max":825,"o":"m 485 376 l 469 439 q 436 581 453 504 q 403 725 419 657 l 397 725 q 366 580 382 656 q 333 439 350 504 l 318 376 l 485 376 m 528 192 l 275 192 l 231 0 l -14 0 l 261 903 l 550 903 l 825 0 l 572 0 l 528 192 m 194 1144 l 606 1144 l 606 994 l 194 994 l 194 1144 z "},"Ă":{"ha":811,"x_min":-14,"x_max":825,"o":"m 485 376 l 469 439 q 436 581 453 504 q 403 725 419 657 l 397 725 q 366 580 382 656 q 333 439 350 504 l 318 376 l 485 376 m 528 192 l 275 192 l 231 0 l -14 0 l 261 903 l 550 903 l 825 0 l 572 0 l 528 192 m 400 972 q 258 1017 306 972 q 203 1144 211 1063 l 331 1144 q 353 1104 338 1119 q 400 1089 368 1089 q 447 1104 432 1089 q 469 1144 463 1119 l 597 1144 q 542 1017 589 1063 q 400 972 494 972 z "},"Å":{"ha":811,"x_min":-14,"x_max":825,"o":"m 485 376 l 469 439 q 436 581 453 504 q 403 725 419 657 l 397 725 q 366 580 382 656 q 333 439 350 504 l 318 376 l 485 376 m 528 192 l 275 192 l 231 0 l -14 0 l 261 903 l 550 903 l 825 0 l 572 0 l 528 192 m 400 967 q 279 1005 325 967 q 233 1108 233 1043 q 279 1212 233 1174 q 400 1250 325 1250 q 521 1212 475 1250 q 567 1108 567 1174 q 521 1005 567 1043 q 400 967 475 967 m 400 1053 q 438 1068 422 1053 q 453 1108 453 1083 q 438 1149 453 1133 q 400 1164 422 1164 q 363 1149 378 1164 q 347 1108 347 1133 q 363 1068 347 1083 q 400 1053 378 1053 z "},"Ǎ":{"ha":811,"x_min":-14,"x_max":825,"o":"m 485 376 l 469 439 q 436 581 453 504 q 403 725 419 657 l 397 725 q 366 580 382 656 q 333 439 350 504 l 318 376 l 485 376 m 528 192 l 275 192 l 231 0 l -14 0 l 261 903 l 550 903 l 825 0 l 572 0 l 528 192 m 650 1144 l 517 972 l 283 972 l 150 1144 l 331 1144 l 397 1064 l 403 1064 l 469 1144 l 650 1144 z "},"Ạ":{"ha":811,"x_min":-14,"x_max":825,"o":"m 485 376 l 469 439 q 436 581 453 504 q 403 725 419 657 l 397 725 q 366 580 382 656 q 333 439 350 504 l 318 376 l 485 376 m 528 192 l 275 192 l 231 0 l -14 0 l 261 903 l 550 903 l 825 0 l 572 0 l 528 192 m 400 -325 q 308 -292 343 -325 q 272 -206 272 -258 q 308 -119 272 -153 q 400 -86 343 -86 q 492 -119 457 -86 q 528 -206 528 -153 q 492 -292 528 -258 q 400 -325 457 -325 z "},"Ả":{"ha":811,"x_min":-14,"x_max":825,"o":"m 485 376 l 469 439 q 436 581 453 504 q 403 725 419 657 l 397 725 q 366 580 382 656 q 333 439 350 504 l 318 376 l 485 376 m 528 192 l 275 192 l 231 0 l -14 0 l 261 903 l 550 903 l 825 0 l 572 0 l 528 192 m 331 1047 q 370 1057 354 1050 q 386 1081 386 1064 q 363 1108 386 1097 q 278 1122 339 1118 l 306 1239 q 426 1226 378 1236 q 503 1198 474 1215 q 544 1157 532 1181 q 556 1106 556 1133 q 539 1041 556 1068 q 494 995 522 1014 q 428 967 465 976 q 347 956 390 957 l 331 1047 z "},"Ấ":{"ha":811,"x_min":-14,"x_max":843,"o":"m 485 376 l 469 439 q 436 581 453 504 q 403 725 419 657 l 397 725 q 366 580 382 656 q 333 439 350 504 l 318 376 l 485 376 m 528 192 l 275 192 l 231 0 l -14 0 l 261 903 l 550 903 l 825 0 l 572 0 l 528 192 m 663 1242 l 843 1242 l 701 1069 l 568 1069 l 663 1242 m 297 1136 l 503 1136 l 636 972 l 469 972 l 403 1044 l 397 1044 l 331 972 l 164 972 l 297 1136 z "},"Ầ":{"ha":811,"x_min":-14,"x_max":825,"o":"m 485 376 l 469 439 q 436 581 453 504 q 403 725 419 657 l 397 725 q 366 580 382 656 q 333 439 350 504 l 318 376 l 485 376 m 528 192 l 275 192 l 231 0 l -14 0 l 261 903 l 550 903 l 825 0 l 572 0 l 528 192 m 760 1069 l 626 1069 l 485 1242 l 665 1242 l 760 1069 m 297 1136 l 503 1136 l 636 972 l 469 972 l 403 1044 l 397 1044 l 331 972 l 164 972 l 297 1136 z "},"Ẩ":{"ha":811,"x_min":-14,"x_max":825,"o":"m 485 376 l 469 439 q 436 581 453 504 q 403 725 419 657 l 397 725 q 366 580 382 656 q 333 439 350 504 l 318 376 l 485 376 m 528 192 l 275 192 l 231 0 l -14 0 l 261 903 l 550 903 l 825 0 l 572 0 l 528 192 m 586 1111 q 614 1121 603 1114 q 625 1144 625 1128 q 607 1172 625 1161 q 536 1186 589 1182 l 558 1281 q 664 1268 622 1278 q 731 1243 706 1258 q 765 1207 756 1228 q 775 1164 775 1186 q 726 1071 775 1099 q 603 1039 676 1043 l 586 1111 m 297 1136 l 503 1136 l 636 972 l 469 972 l 403 1044 l 397 1044 l 331 972 l 164 972 l 297 1136 z "},"Ẫ":{"ha":811,"x_min":-14,"x_max":825,"o":"m 485 376 l 469 439 q 436 581 453 504 q 403 725 419 657 l 397 725 q 366 580 382 656 q 333 439 350 504 l 318 376 l 485 376 m 528 192 l 275 192 l 231 0 l -14 0 l 261 903 l 550 903 l 825 0 l 572 0 l 528 192 m 297 1136 l 503 1136 l 636 972 l 469 972 l 403 1044 l 397 1044 l 331 972 l 164 972 l 297 1136 m 183 1186 q 234 1317 194 1278 q 319 1356 274 1356 q 365 1348 344 1356 q 403 1331 386 1340 q 436 1313 421 1321 q 465 1306 451 1306 q 494 1317 482 1306 q 514 1356 507 1328 l 617 1356 q 566 1225 606 1264 q 481 1186 526 1186 q 435 1194 456 1186 q 396 1211 414 1201 q 363 1228 378 1221 q 335 1236 349 1236 q 306 1225 318 1236 q 286 1186 293 1214 l 183 1186 z "},"Ậ":{"ha":811,"x_min":-14,"x_max":825,"o":"m 485 376 l 469 439 q 436 581 453 504 q 403 725 419 657 l 397 725 q 366 580 382 656 q 333 439 350 504 l 318 376 l 485 376 m 528 192 l 275 192 l 231 0 l -14 0 l 261 903 l 550 903 l 825 0 l 572 0 l 528 192 m 150 972 l 283 1144 l 517 1144 l 650 972 l 469 972 l 403 1053 l 397 1053 l 331 972 l 150 972 m 400 -325 q 308 -292 343 -325 q 272 -206 272 -258 q 308 -119 272 -153 q 400 -86 343 -86 q 492 -119 457 -86 q 528 -206 528 -153 q 492 -292 528 -258 q 400 -325 457 -325 z "},"Ắ":{"ha":811,"x_min":-14,"x_max":825,"o":"m 485 376 l 469 439 q 436 581 453 504 q 403 725 419 657 l 397 725 q 366 580 382 656 q 333 439 350 504 l 318 376 l 485 376 m 528 192 l 275 192 l 231 0 l -14 0 l 261 903 l 550 903 l 825 0 l 572 0 l 528 192 m 418 1297 l 593 1297 l 451 1125 l 335 1125 l 418 1297 m 400 972 q 258 1017 306 972 q 203 1144 211 1063 l 308 1144 q 336 1094 317 1113 q 400 1075 356 1075 q 464 1094 444 1075 q 492 1144 483 1113 l 597 1144 q 542 1017 589 1063 q 400 972 494 972 z "},"Ằ":{"ha":811,"x_min":-14,"x_max":825,"o":"m 485 376 l 469 439 q 436 581 453 504 q 403 725 419 657 l 397 725 q 366 580 382 656 q 333 439 350 504 l 318 376 l 485 376 m 528 192 l 275 192 l 231 0 l -14 0 l 261 903 l 550 903 l 825 0 l 572 0 l 528 192 m 465 1125 l 349 1125 l 207 1297 l 382 1297 l 465 1125 m 400 972 q 258 1017 306 972 q 203 1144 211 1063 l 308 1144 q 336 1094 317 1113 q 400 1075 356 1075 q 464 1094 444 1075 q 492 1144 483 1113 l 597 1144 q 542 1017 589 1063 q 400 972 494 972 z "},"Ẳ":{"ha":811,"x_min":-14,"x_max":825,"o":"m 485 376 l 469 439 q 436 581 453 504 q 403 725 419 657 l 397 725 q 366 580 382 656 q 333 439 350 504 l 318 376 l 485 376 m 528 192 l 275 192 l 231 0 l -14 0 l 261 903 l 550 903 l 825 0 l 572 0 l 528 192 m 333 1194 q 361 1204 350 1197 q 372 1228 372 1211 q 354 1255 372 1244 q 283 1269 336 1265 l 306 1364 q 411 1351 369 1361 q 478 1326 453 1342 q 513 1290 503 1311 q 522 1247 522 1269 q 473 1154 522 1182 q 350 1122 424 1126 l 333 1194 m 400 972 q 258 1017 306 972 q 203 1144 211 1063 l 308 1144 q 336 1094 317 1113 q 400 1075 356 1075 q 464 1094 444 1075 q 492 1144 483 1113 l 597 1144 q 542 1017 589 1063 q 400 972 494 972 z "},"Ẵ":{"ha":811,"x_min":-14,"x_max":825,"o":"m 485 376 l 469 439 q 436 581 453 504 q 403 725 419 657 l 397 725 q 366 580 382 656 q 333 439 350 504 l 318 376 l 485 376 m 528 192 l 275 192 l 231 0 l -14 0 l 261 903 l 550 903 l 825 0 l 572 0 l 528 192 m 400 972 q 258 1017 306 972 q 203 1144 211 1063 l 308 1144 q 336 1094 317 1113 q 400 1075 356 1075 q 464 1094 444 1075 q 492 1144 483 1113 l 597 1144 q 542 1017 589 1063 q 400 972 494 972 m 183 1186 q 234 1317 194 1278 q 319 1356 274 1356 q 365 1348 344 1356 q 403 1331 386 1340 q 436 1313 421 1321 q 465 1306 451 1306 q 494 1317 482 1306 q 514 1356 507 1328 l 617 1356 q 566 1225 606 1264 q 481 1186 526 1186 q 435 1194 456 1186 q 396 1211 414 1201 q 363 1228 378 1221 q 335 1236 349 1236 q 306 1225 318 1236 q 286 1186 293 1214 l 183 1186 z "},"Ặ":{"ha":811,"x_min":-14,"x_max":825,"o":"m 485 376 l 469 439 q 436 581 453 504 q 403 725 419 657 l 397 725 q 366 580 382 656 q 333 439 350 504 l 318 376 l 485 376 m 528 192 l 275 192 l 231 0 l -14 0 l 261 903 l 550 903 l 825 0 l 572 0 l 528 192 m 400 972 q 258 1017 306 972 q 203 1144 211 1063 l 331 1144 q 353 1104 338 1119 q 400 1089 368 1089 q 447 1104 432 1089 q 469 1144 463 1119 l 597 1144 q 542 1017 589 1063 q 400 972 494 972 m 400 -325 q 308 -292 343 -325 q 272 -206 272 -258 q 308 -119 272 -153 q 400 -86 343 -86 q 492 -119 457 -86 q 528 -206 528 -153 q 492 -292 528 -258 q 400 -325 457 -325 z "},"Ą":{"ha":811,"x_min":-14,"x_max":850,"o":"m 485 376 l 469 439 q 436 581 453 504 q 403 725 419 657 l 397 725 q 366 580 382 656 q 333 439 350 504 l 318 376 l 485 376 m 850 -264 q 776 -302 821 -287 q 692 -317 732 -317 q 572 -281 621 -317 q 522 -181 522 -246 q 534 -118 522 -147 q 564 -65 546 -89 q 602 -25 582 -42 q 639 0 622 -8 l 572 0 l 528 192 l 275 192 l 231 0 l -14 0 l 261 903 l 550 903 l 825 0 q 770 -10 794 0 q 729 -37 746 -21 q 703 -75 713 -54 q 694 -117 694 -96 q 709 -152 694 -140 q 744 -164 724 -164 q 774 -158 760 -164 q 797 -144 788 -151 l 850 -264 z "},"Æ":{"ha":1186,"x_min":-31,"x_max":1111,"o":"m 528 368 l 528 725 l 522 725 q 474 599 497 660 q 428 483 451 538 l 378 368 l 528 368 m 1111 200 l 1111 0 l 528 0 l 528 183 l 299 183 l 219 0 l -31 0 l 381 903 l 1097 903 l 1097 703 l 767 703 l 767 561 l 1047 561 l 1047 361 l 767 361 l 767 200 l 1111 200 z "},"Ç":{"ha":814,"x_min":61,"x_max":789,"o":"m 61 444 q 97 647 61 558 q 194 795 133 735 q 335 888 256 856 q 503 919 415 919 q 659 884 589 919 q 778 800 729 849 l 647 653 q 582 698 614 682 q 506 714 550 714 q 428 696 465 714 q 365 644 392 678 q 322 563 338 611 q 306 453 306 514 q 359 257 306 325 q 500 189 413 189 q 591 209 553 189 q 658 261 629 229 l 789 117 q 656 17 731 50 q 497 -17 581 -17 q 329 12 408 -17 q 190 98 250 40 q 96 242 131 156 q 61 444 61 329 m 425 6 l 561 6 l 536 -56 q 594 -92 572 -68 q 617 -161 617 -117 q 595 -226 617 -199 q 538 -272 574 -253 q 453 -300 501 -290 q 353 -311 406 -310 l 336 -219 q 416 -202 385 -215 q 447 -161 447 -189 q 433 -132 447 -146 q 369 -106 418 -118 l 425 6 z "},"Ć":{"ha":814,"x_min":61,"x_max":789,"o":"m 61 444 q 97 647 61 558 q 194 795 133 735 q 335 888 256 856 q 503 919 415 919 q 659 884 589 919 q 778 800 729 849 l 647 653 q 582 698 614 682 q 506 714 550 714 q 428 696 465 714 q 365 644 392 678 q 322 563 338 611 q 306 453 306 514 q 359 257 306 325 q 500 189 413 189 q 591 209 553 189 q 658 261 629 229 l 789 117 q 656 17 731 50 q 497 -17 581 -17 q 329 12 408 -17 q 190 98 250 40 q 96 242 131 156 q 61 444 61 329 m 556 972 l 367 972 l 475 1144 l 725 1144 l 556 972 z "},"Ĉ":{"ha":814,"x_min":61,"x_max":789,"o":"m 61 444 q 97 647 61 558 q 194 795 133 735 q 335 888 256 856 q 503 919 415 919 q 659 884 589 919 q 778 800 729 849 l 647 653 q 582 698 614 682 q 506 714 550 714 q 428 696 465 714 q 365 644 392 678 q 322 563 338 611 q 306 453 306 514 q 359 257 306 325 q 500 189 413 189 q 591 209 553 189 q 658 261 629 229 l 789 117 q 656 17 731 50 q 497 -17 581 -17 q 329 12 408 -17 q 190 98 250 40 q 96 242 131 156 q 61 444 61 329 m 233 972 l 367 1144 l 600 1144 l 733 972 l 553 972 l 486 1053 l 481 1053 l 414 972 l 233 972 z "},"Č":{"ha":814,"x_min":61,"x_max":789,"o":"m 61 444 q 97 647 61 558 q 194 795 133 735 q 335 888 256 856 q 503 919 415 919 q 659 884 589 919 q 778 800 729 849 l 647 653 q 582 698 614 682 q 506 714 550 714 q 428 696 465 714 q 365 644 392 678 q 322 563 338 611 q 306 453 306 514 q 359 257 306 325 q 500 189 413 189 q 591 209 553 189 q 658 261 629 229 l 789 117 q 656 17 731 50 q 497 -17 581 -17 q 329 12 408 -17 q 190 98 250 40 q 96 242 131 156 q 61 444 61 329 m 733 1144 l 600 972 l 367 972 l 233 1144 l 414 1144 l 481 1064 l 486 1064 l 553 1144 l 733 1144 z "},"Ċ":{"ha":814,"x_min":61,"x_max":789,"o":"m 61 444 q 97 647 61 558 q 194 795 133 735 q 335 888 256 856 q 503 919 415 919 q 659 884 589 919 q 778 800 729 849 l 647 653 q 582 698 614 682 q 506 714 550 714 q 428 696 465 714 q 365 644 392 678 q 322 563 338 611 q 306 453 306 514 q 359 257 306 325 q 500 189 413 189 q 591 209 553 189 q 658 261 629 229 l 789 117 q 656 17 731 50 q 497 -17 581 -17 q 329 12 408 -17 q 190 98 250 40 q 96 242 131 156 q 61 444 61 329 m 483 967 q 388 1000 425 967 q 350 1086 350 1033 q 388 1172 350 1139 q 483 1206 425 1206 q 579 1172 542 1206 q 617 1086 617 1139 q 579 1000 617 1033 q 483 967 542 967 z "},"Ď":{"ha":892,"x_min":100,"x_max":831,"o":"m 100 903 l 367 903 q 555 878 469 903 q 701 799 640 853 q 797 660 763 744 q 831 456 831 575 q 797 250 831 336 q 703 108 764 164 q 560 26 643 53 q 381 0 478 0 l 100 0 l 100 903 m 353 192 q 444 203 401 192 q 519 244 488 215 q 568 325 550 274 q 586 456 586 376 q 568 585 586 535 q 519 663 550 635 q 444 701 488 690 q 353 711 401 711 l 339 711 l 339 192 l 353 192 m 697 1144 l 564 972 l 331 972 l 197 1144 l 378 1144 l 444 1064 l 450 1064 l 517 1144 l 697 1144 z "},"Ḍ":{"ha":892,"x_min":100,"x_max":831,"o":"m 100 903 l 367 903 q 555 878 469 903 q 701 799 640 853 q 797 660 763 744 q 831 456 831 575 q 797 250 831 336 q 703 108 764 164 q 560 26 643 53 q 381 0 478 0 l 100 0 l 100 903 m 353 192 q 444 203 401 192 q 519 244 488 215 q 568 325 550 274 q 586 456 586 376 q 568 585 586 535 q 519 663 550 635 q 444 701 488 690 q 353 711 401 711 l 339 711 l 339 192 l 353 192 m 439 -325 q 347 -292 382 -325 q 311 -206 311 -258 q 347 -119 311 -153 q 439 -86 382 -86 q 531 -119 496 -86 q 567 -206 567 -153 q 531 -292 567 -258 q 439 -325 496 -325 z "},"Ḏ":{"ha":892,"x_min":100,"x_max":831,"o":"m 100 903 l 367 903 q 555 878 469 903 q 701 799 640 853 q 797 660 763 744 q 831 456 831 575 q 797 250 831 336 q 703 108 764 164 q 560 26 643 53 q 381 0 478 0 l 100 0 l 100 903 m 353 192 q 444 203 401 192 q 519 244 488 215 q 568 325 550 274 q 586 456 586 376 q 568 585 586 535 q 519 663 550 635 q 444 701 488 690 q 353 711 401 711 l 339 711 l 339 192 l 353 192 m 639 -272 l 239 -272 l 239 -122 l 639 -122 l 639 -272 z "},"Đ":{"ha":928,"x_min":33,"x_max":867,"o":"m 389 192 q 481 203 438 192 q 555 244 524 215 q 604 325 586 274 q 622 456 622 376 q 604 585 622 535 q 555 663 586 635 q 481 701 524 690 q 389 711 438 711 l 375 711 l 375 519 l 536 519 l 536 408 l 375 408 l 375 192 l 389 192 m 403 903 q 591 878 506 903 q 738 799 676 853 q 833 660 799 744 q 867 456 867 575 q 833 250 867 336 q 740 108 800 164 q 597 26 679 53 q 417 0 514 0 l 136 0 l 136 408 l 33 408 l 33 511 l 136 519 l 136 903 l 403 903 z "},"È":{"ha":772,"x_min":100,"x_max":697,"o":"m 100 903 l 683 903 l 683 703 l 339 703 l 339 561 l 633 561 l 633 361 l 339 361 l 339 200 l 697 200 l 697 0 l 100 0 l 100 903 m 161 1144 l 411 1144 l 519 972 l 331 972 l 161 1144 z "},"É":{"ha":772,"x_min":100,"x_max":697,"o":"m 100 903 l 683 903 l 683 703 l 339 703 l 339 561 l 633 561 l 633 361 l 339 361 l 339 200 l 697 200 l 697 0 l 100 0 l 100 903 m 475 972 l 286 972 l 394 1144 l 644 1144 l 475 972 z "},"Ê":{"ha":772,"x_min":100,"x_max":697,"o":"m 100 903 l 683 903 l 683 703 l 339 703 l 339 561 l 633 561 l 633 361 l 339 361 l 339 200 l 697 200 l 697 0 l 100 0 l 100 903 m 153 972 l 286 1144 l 519 1144 l 653 972 l 472 972 l 406 1053 l 400 1053 l 333 972 l 153 972 z "},"Ě":{"ha":772,"x_min":100,"x_max":697,"o":"m 100 903 l 683 903 l 683 703 l 339 703 l 339 561 l 633 561 l 633 361 l 339 361 l 339 200 l 697 200 l 697 0 l 100 0 l 100 903 m 653 1144 l 519 972 l 286 972 l 153 1144 l 333 1144 l 400 1064 l 406 1064 l 472 1144 l 653 1144 z "},"Ë":{"ha":772,"x_min":100,"x_max":697,"o":"m 100 903 l 683 903 l 683 703 l 339 703 l 339 561 l 633 561 l 633 361 l 339 361 l 339 200 l 697 200 l 697 0 l 100 0 l 100 903 m 258 964 q 180 995 210 964 q 150 1072 150 1026 q 180 1149 150 1118 q 258 1181 210 1181 q 337 1149 307 1181 q 367 1072 367 1118 q 337 995 367 1026 q 258 964 307 964 m 547 964 q 469 995 499 964 q 439 1072 439 1026 q 469 1149 439 1118 q 547 1181 499 1181 q 626 1149 596 1181 q 656 1072 656 1118 q 626 995 656 1026 q 547 964 596 964 z "},"Ē":{"ha":772,"x_min":100,"x_max":697,"o":"m 100 903 l 683 903 l 683 703 l 339 703 l 339 561 l 633 561 l 633 361 l 339 361 l 339 200 l 697 200 l 697 0 l 100 0 l 100 903 m 197 1144 l 608 1144 l 608 994 l 197 994 l 197 1144 z "},"Ĕ":{"ha":772,"x_min":100,"x_max":697,"o":"m 100 903 l 683 903 l 683 703 l 339 703 l 339 561 l 633 561 l 633 361 l 339 361 l 339 200 l 697 200 l 697 0 l 100 0 l 100 903 m 403 972 q 261 1017 308 972 q 206 1144 214 1063 l 333 1144 q 356 1104 340 1119 q 403 1089 371 1089 q 450 1104 435 1089 q 472 1144 465 1119 l 600 1144 q 544 1017 592 1063 q 403 972 497 972 z "},"Ė":{"ha":772,"x_min":100,"x_max":697,"o":"m 100 903 l 683 903 l 683 703 l 339 703 l 339 561 l 633 561 l 633 361 l 339 361 l 339 200 l 697 200 l 697 0 l 100 0 l 100 903 m 403 967 q 307 1000 344 967 q 269 1086 269 1033 q 307 1172 269 1139 q 403 1206 344 1206 q 499 1172 461 1206 q 536 1086 536 1139 q 499 1000 536 1033 q 403 967 461 967 z "},"Ẹ":{"ha":772,"x_min":100,"x_max":697,"o":"m 100 903 l 683 903 l 683 703 l 339 703 l 339 561 l 633 561 l 633 361 l 339 361 l 339 200 l 697 200 l 697 0 l 100 0 l 100 903 m 408 -325 q 316 -292 351 -325 q 281 -206 281 -258 q 316 -119 281 -153 q 408 -86 351 -86 q 501 -119 465 -86 q 536 -206 536 -153 q 501 -292 536 -258 q 408 -325 465 -325 z "},"Ẻ":{"ha":772,"x_min":100,"x_max":697,"o":"m 100 903 l 683 903 l 683 703 l 339 703 l 339 561 l 633 561 l 633 361 l 339 361 l 339 200 l 697 200 l 697 0 l 100 0 l 100 903 m 333 1047 q 373 1057 357 1050 q 389 1081 389 1064 q 365 1108 389 1097 q 281 1122 342 1118 l 308 1239 q 428 1226 381 1236 q 506 1198 476 1215 q 547 1157 535 1181 q 558 1106 558 1133 q 542 1041 558 1068 q 497 995 525 1014 q 431 967 468 976 q 350 956 393 957 l 333 1047 z "},"Ẽ":{"ha":772,"x_min":100,"x_max":697,"o":"m 100 903 l 683 903 l 683 703 l 339 703 l 339 561 l 633 561 l 633 361 l 339 361 l 339 200 l 697 200 l 697 0 l 100 0 l 100 903 m 492 972 q 440 981 464 972 q 394 1001 415 990 q 356 1022 374 1013 q 325 1031 339 1031 q 294 1018 308 1031 q 272 972 281 1006 l 153 972 q 211 1126 165 1078 q 314 1175 257 1175 q 366 1166 342 1175 q 411 1146 390 1157 q 449 1126 432 1135 q 481 1117 465 1117 q 511 1129 497 1117 q 533 1175 525 1142 l 653 1175 q 631 1084 646 1122 q 594 1021 615 1046 q 546 984 572 996 q 492 972 519 972 z "},"Ế":{"ha":772,"x_min":100,"x_max":846,"o":"m 100 903 l 683 903 l 683 703 l 339 703 l 339 561 l 633 561 l 633 361 l 339 361 l 339 200 l 697 200 l 697 0 l 100 0 l 100 903 m 665 1242 l 846 1242 l 704 1069 l 571 1069 l 665 1242 m 300 1136 l 506 1136 l 639 972 l 472 972 l 406 1044 l 400 1044 l 333 972 l 167 972 l 300 1136 z "},"Ề":{"ha":772,"x_min":100,"x_max":763,"o":"m 100 903 l 683 903 l 683 703 l 339 703 l 339 561 l 633 561 l 633 361 l 339 361 l 339 200 l 697 200 l 697 0 l 100 0 l 100 903 m 763 1069 l 629 1069 l 488 1242 l 668 1242 l 763 1069 m 300 1136 l 506 1136 l 639 972 l 472 972 l 406 1044 l 400 1044 l 333 972 l 167 972 l 300 1136 z "},"Ể":{"ha":772,"x_min":100,"x_max":778,"o":"m 100 903 l 683 903 l 683 703 l 339 703 l 339 561 l 633 561 l 633 361 l 339 361 l 339 200 l 697 200 l 697 0 l 100 0 l 100 903 m 589 1111 q 617 1121 606 1114 q 628 1144 628 1128 q 610 1172 628 1161 q 539 1186 592 1182 l 561 1281 q 667 1268 625 1278 q 733 1243 708 1258 q 768 1207 758 1228 q 778 1164 778 1186 q 728 1071 778 1099 q 606 1039 679 1043 l 589 1111 m 300 1136 l 506 1136 l 639 972 l 472 972 l 406 1044 l 400 1044 l 333 972 l 167 972 l 300 1136 z "},"Ễ":{"ha":772,"x_min":100,"x_max":697,"o":"m 100 903 l 683 903 l 683 703 l 339 703 l 339 561 l 633 561 l 633 361 l 339 361 l 339 200 l 697 200 l 697 0 l 100 0 l 100 903 m 300 1136 l 506 1136 l 639 972 l 472 972 l 406 1044 l 400 1044 l 333 972 l 167 972 l 300 1136 m 186 1186 q 237 1317 197 1278 q 322 1356 276 1356 q 368 1348 347 1356 q 406 1331 389 1340 q 439 1313 424 1321 q 468 1306 454 1306 q 497 1317 485 1306 q 517 1356 510 1328 l 619 1356 q 569 1225 608 1264 q 483 1186 529 1186 q 438 1194 458 1186 q 399 1211 417 1201 q 366 1228 381 1221 q 338 1236 351 1236 q 308 1225 321 1236 q 289 1186 296 1214 l 186 1186 z "},"Ệ":{"ha":772,"x_min":100,"x_max":697,"o":"m 100 903 l 683 903 l 683 703 l 339 703 l 339 561 l 633 561 l 633 361 l 339 361 l 339 200 l 697 200 l 697 0 l 100 0 l 100 903 m 153 972 l 286 1144 l 519 1144 l 653 972 l 472 972 l 406 1053 l 400 1053 l 333 972 l 153 972 m 408 -325 q 316 -292 351 -325 q 281 -206 281 -258 q 316 -119 281 -153 q 408 -86 351 -86 q 501 -119 465 -86 q 536 -206 536 -153 q 501 -292 536 -258 q 408 -325 465 -325 z "},"Ę":{"ha":772,"x_min":100,"x_max":728,"o":"m 100 903 l 683 903 l 683 703 l 339 703 l 339 561 l 633 561 l 633 361 l 339 361 l 339 200 l 697 200 l 697 0 l 689 0 q 644 -10 665 0 q 606 -37 622 -21 q 581 -75 590 -54 q 572 -117 572 -96 q 590 -153 572 -142 q 628 -164 607 -164 q 653 -158 640 -164 q 675 -144 665 -151 l 728 -264 q 654 -302 699 -287 q 569 -317 610 -317 q 449 -281 499 -317 q 400 -181 400 -246 q 411 -119 400 -147 q 439 -67 422 -90 q 475 -28 456 -44 q 511 0 494 -11 l 100 0 l 100 903 z "},"Ĝ":{"ha":897,"x_min":61,"x_max":822,"o":"m 61 444 q 97 647 61 558 q 196 795 133 735 q 341 888 258 856 q 517 919 424 919 q 685 884 613 919 q 806 800 757 849 l 675 653 q 608 698 642 682 q 519 714 574 714 q 435 696 474 714 q 367 644 396 678 q 322 563 338 611 q 306 453 306 514 q 363 257 306 325 q 542 189 419 189 q 580 193 561 189 q 611 206 599 197 l 611 331 l 478 331 l 478 525 l 822 525 l 822 94 q 690 16 772 49 q 511 -17 607 -17 q 336 12 418 -17 q 193 98 254 40 q 97 242 132 156 q 61 444 61 329 m 267 972 l 400 1144 l 633 1144 l 767 972 l 586 972 l 519 1053 l 514 1053 l 447 972 l 267 972 z "},"Ğ":{"ha":897,"x_min":61,"x_max":822,"o":"m 61 444 q 97 647 61 558 q 196 795 133 735 q 341 888 258 856 q 517 919 424 919 q 685 884 613 919 q 806 800 757 849 l 675 653 q 608 698 642 682 q 519 714 574 714 q 435 696 474 714 q 367 644 396 678 q 322 563 338 611 q 306 453 306 514 q 363 257 306 325 q 542 189 419 189 q 580 193 561 189 q 611 206 599 197 l 611 331 l 478 331 l 478 525 l 822 525 l 822 94 q 690 16 772 49 q 511 -17 607 -17 q 336 12 418 -17 q 193 98 254 40 q 97 242 132 156 q 61 444 61 329 m 517 972 q 375 1017 422 972 q 319 1144 328 1063 l 447 1144 q 469 1104 454 1119 q 517 1089 485 1089 q 564 1104 549 1089 q 586 1144 579 1119 l 714 1144 q 658 1017 706 1063 q 517 972 611 972 z "},"Ġ":{"ha":897,"x_min":61,"x_max":822,"o":"m 61 444 q 97 647 61 558 q 196 795 133 735 q 341 888 258 856 q 517 919 424 919 q 685 884 613 919 q 806 800 757 849 l 675 653 q 608 698 642 682 q 519 714 574 714 q 435 696 474 714 q 367 644 396 678 q 322 563 338 611 q 306 453 306 514 q 363 257 306 325 q 542 189 419 189 q 580 193 561 189 q 611 206 599 197 l 611 331 l 478 331 l 478 525 l 822 525 l 822 94 q 690 16 772 49 q 511 -17 607 -17 q 336 12 418 -17 q 193 98 254 40 q 97 242 132 156 q 61 444 61 329 m 517 967 q 421 1000 458 967 q 383 1086 383 1033 q 421 1172 383 1139 q 517 1206 458 1206 q 613 1172 575 1206 q 650 1086 650 1139 q 613 1000 650 1033 q 517 967 575 967 z "},"Ģ":{"ha":897,"x_min":61,"x_max":822,"o":"m 61 444 q 97 647 61 558 q 196 795 133 735 q 341 888 258 856 q 517 919 424 919 q 685 884 613 919 q 806 800 757 849 l 675 653 q 608 698 642 682 q 519 714 574 714 q 435 696 474 714 q 367 644 396 678 q 322 563 338 611 q 306 453 306 514 q 363 257 306 325 q 542 189 419 189 q 580 193 561 189 q 611 206 599 197 l 611 331 l 478 331 l 478 525 l 822 525 l 822 94 q 690 16 772 49 q 511 -17 607 -17 q 336 12 418 -17 q 193 98 254 40 q 97 242 132 156 q 61 444 61 329 m 458 -56 q 599 -92 560 -64 q 639 -175 639 -121 q 617 -240 639 -212 q 560 -285 596 -267 q 476 -314 524 -304 q 375 -325 428 -324 l 358 -233 q 438 -219 407 -229 q 469 -186 469 -210 q 458 -158 469 -169 q 414 -139 446 -147 l 458 -56 l 458 -56 z "},"Ǧ":{"ha":897,"x_min":61,"x_max":822,"o":"m 61 444 q 97 647 61 558 q 196 795 133 735 q 341 888 258 856 q 517 919 424 919 q 685 884 613 919 q 806 800 757 849 l 675 653 q 608 698 642 682 q 519 714 574 714 q 435 696 474 714 q 367 644 396 678 q 322 563 338 611 q 306 453 306 514 q 363 257 306 325 q 542 189 419 189 q 580 193 561 189 q 611 206 599 197 l 611 331 l 478 331 l 478 525 l 822 525 l 822 94 q 690 16 772 49 q 511 -17 607 -17 q 336 12 418 -17 q 193 98 254 40 q 97 242 132 156 q 61 444 61 329 m 767 1144 l 633 972 l 400 972 l 267 1144 l 447 1144 l 514 1064 l 519 1064 l 586 1144 l 767 1144 z "},"Ḡ":{"ha":897,"x_min":61,"x_max":822,"o":"m 61 444 q 97 647 61 558 q 196 795 133 735 q 341 888 258 856 q 517 919 424 919 q 685 884 613 919 q 806 800 757 849 l 675 653 q 608 698 642 682 q 519 714 574 714 q 435 696 474 714 q 367 644 396 678 q 322 563 338 611 q 306 453 306 514 q 363 257 306 325 q 542 189 419 189 q 580 193 561 189 q 611 206 599 197 l 611 331 l 478 331 l 478 525 l 822 525 l 822 94 q 690 16 772 49 q 511 -17 607 -17 q 336 12 418 -17 q 193 98 254 40 q 97 242 132 156 q 61 444 61 329 m 311 1144 l 722 1144 l 722 994 l 311 994 l 311 1144 z "},"Ĥ":{"ha":947,"x_min":100,"x_max":847,"o":"m 100 903 l 339 903 l 339 567 l 608 567 l 608 903 l 847 903 l 847 0 l 608 0 l 608 358 l 339 358 l 339 0 l 100 0 l 100 903 m 222 972 l 356 1144 l 589 1144 l 722 972 l 542 972 l 475 1053 l 469 1053 l 403 972 l 222 972 z "},"Ḥ":{"ha":947,"x_min":100,"x_max":847,"o":"m 100 903 l 339 903 l 339 567 l 608 567 l 608 903 l 847 903 l 847 0 l 608 0 l 608 358 l 339 358 l 339 0 l 100 0 l 100 903 m 472 -325 q 380 -292 415 -325 q 344 -206 344 -258 q 380 -119 344 -153 q 472 -86 415 -86 q 565 -119 529 -86 q 600 -206 600 -153 q 565 -292 600 -258 q 472 -325 529 -325 z "},"Ḫ":{"ha":947,"x_min":100,"x_max":847,"o":"m 100 903 l 339 903 l 339 567 l 608 567 l 608 903 l 847 903 l 847 0 l 608 0 l 608 358 l 339 358 l 339 0 l 100 0 l 100 903 m 472 -294 q 385 -278 422 -294 q 324 -235 349 -262 q 286 -172 299 -208 q 272 -94 274 -135 l 403 -94 q 424 -147 407 -126 q 472 -167 440 -167 q 521 -147 504 -167 q 542 -94 538 -126 l 672 -94 q 658 -172 671 -135 q 621 -235 646 -208 q 559 -278 596 -262 q 472 -294 522 -294 z "},"Ħ":{"ha":1003,"x_min":31,"x_max":972,"o":"m 636 672 l 367 672 l 367 567 l 636 567 l 636 672 m 972 672 l 875 672 l 875 0 l 636 0 l 636 358 l 367 358 l 367 0 l 128 0 l 128 672 l 31 672 l 31 775 l 128 783 l 128 903 l 367 903 l 367 783 l 636 783 l 636 903 l 875 903 l 875 783 l 972 783 l 972 672 z "},"Ì":{"ha":439,"x_min":-22,"x_max":339,"o":"m 100 903 l 339 903 l 339 0 l 100 0 l 100 903 m -22 1144 l 228 1144 l 336 972 l 147 972 l -22 1144 z "},"Í":{"ha":439,"x_min":100,"x_max":461,"o":"m 100 903 l 339 903 l 339 0 l 100 0 l 100 903 m 292 972 l 103 972 l 211 1144 l 461 1144 l 292 972 z "},"Î":{"ha":439,"x_min":-31,"x_max":469,"o":"m 100 903 l 339 903 l 339 0 l 100 0 l 100 903 m -31 972 l 103 1144 l 336 1144 l 469 972 l 289 972 l 222 1053 l 217 1053 l 150 972 l -31 972 z "},"Ĩ":{"ha":439,"x_min":-31,"x_max":469,"o":"m 100 903 l 339 903 l 339 0 l 100 0 l 100 903 m 308 972 q 256 981 281 972 q 211 1001 232 990 q 173 1022 190 1013 q 142 1031 156 1031 q 111 1018 125 1031 q 89 972 97 1006 l -31 972 q 28 1126 -18 1078 q 131 1175 74 1175 q 183 1166 158 1175 q 228 1146 207 1157 q 265 1126 249 1135 q 297 1117 282 1117 q 328 1129 314 1117 q 350 1175 342 1142 l 469 1175 q 447 1084 463 1122 q 410 1021 432 1046 q 363 984 389 996 q 308 972 336 972 z "},"Ï":{"ha":439,"x_min":-33,"x_max":472,"o":"m 100 903 l 339 903 l 339 0 l 100 0 l 100 903 m 75 964 q -3 995 26 964 q -33 1072 -33 1026 q -3 1149 -33 1118 q 75 1181 26 1181 q 153 1149 124 1181 q 183 1072 183 1118 q 153 995 183 1026 q 75 964 124 964 m 364 964 q 285 995 315 964 q 256 1072 256 1026 q 285 1149 256 1118 q 364 1181 315 1181 q 442 1149 413 1181 q 472 1072 472 1118 q 442 995 472 1026 q 364 964 413 964 z "},"Ī":{"ha":439,"x_min":14,"x_max":425,"o":"m 100 903 l 339 903 l 339 0 l 100 0 l 100 903 m 14 1144 l 425 1144 l 425 994 l 14 994 l 14 1144 z "},"İ":{"ha":439,"x_min":86,"x_max":353,"o":"m 100 903 l 339 903 l 339 0 l 100 0 l 100 903 m 219 967 q 124 1000 161 967 q 86 1086 86 1033 q 124 1172 86 1139 q 219 1206 161 1206 q 315 1172 278 1206 q 353 1086 353 1139 q 315 1000 353 1033 q 219 967 278 967 z "},"Ǐ":{"ha":439,"x_min":-31,"x_max":469,"o":"m 100 903 l 339 903 l 339 0 l 100 0 l 100 903 m 469 1144 l 336 972 l 103 972 l -31 1144 l 150 1144 l 217 1064 l 222 1064 l 289 1144 l 469 1144 z "},"Ỉ":{"ha":439,"x_min":97,"x_max":375,"o":"m 100 903 l 339 903 l 339 0 l 100 0 l 100 903 m 150 1047 q 190 1057 174 1050 q 206 1081 206 1064 q 182 1108 206 1097 q 97 1122 158 1118 l 125 1239 q 245 1226 197 1236 q 322 1198 293 1215 q 363 1157 351 1181 q 375 1106 375 1133 q 358 1041 375 1068 q 313 995 342 1014 q 247 967 285 976 q 167 956 210 957 l 150 1047 z "},"Ị":{"ha":439,"x_min":92,"x_max":347,"o":"m 100 903 l 339 903 l 339 0 l 100 0 l 100 903 m 219 -325 q 127 -292 163 -325 q 92 -206 92 -258 q 127 -119 92 -153 q 219 -86 163 -86 q 312 -119 276 -86 q 347 -206 347 -153 q 312 -292 347 -258 q 219 -325 276 -325 z "},"Į":{"ha":439,"x_min":58,"x_max":386,"o":"m 100 903 l 339 903 l 339 0 q 254 -51 278 -19 q 231 -117 231 -83 q 248 -153 231 -142 q 285 -164 265 -164 q 312 -158 299 -164 q 333 -144 325 -151 l 386 -264 q 313 -302 357 -287 q 228 -317 268 -317 q 108 -281 157 -317 q 58 -181 58 -246 q 69 -117 58 -146 q 97 -66 81 -89 q 132 -26 114 -43 q 165 0 150 -10 l 100 0 l 100 903 z "},"Ĵ":{"ha":722,"x_min":14,"x_max":756,"o":"m 175 275 q 229 210 199 231 q 289 189 260 189 q 331 195 313 189 q 363 218 350 201 q 382 263 375 235 q 389 333 389 290 l 389 903 l 628 903 l 628 314 q 609 186 628 246 q 553 81 590 126 q 458 10 515 36 q 322 -17 400 -17 q 138 25 211 -17 q 14 154 64 67 l 175 275 m 256 972 l 389 1144 l 622 1144 l 756 972 l 575 972 l 508 1053 l 503 1053 l 436 972 l 256 972 z "},"Ķ":{"ha":872,"x_min":100,"x_max":886,"o":"m 100 903 l 339 903 l 339 567 l 344 567 l 572 903 l 833 903 l 564 536 l 886 0 l 625 0 l 425 347 l 339 225 l 339 0 l 100 0 l 100 903 m 411 -56 q 552 -92 513 -64 q 592 -175 592 -121 q 570 -240 592 -212 q 513 -285 549 -267 q 428 -314 476 -304 q 328 -325 381 -324 l 311 -233 q 391 -219 360 -229 q 422 -186 422 -210 q 410 -158 422 -169 q 367 -139 399 -147 l 411 -56 l 411 -56 z "},"Ĺ":{"ha":736,"x_min":100,"x_max":681,"o":"m 100 903 l 339 903 l 339 200 l 681 200 l 681 0 l 100 0 l 100 903 m 297 972 l 108 972 l 217 1144 l 467 1144 l 297 972 z "},"Ľ":{"ha":736,"x_min":100,"x_max":681,"o":"m 100 903 l 339 903 l 339 200 l 681 200 l 681 0 l 100 0 l 100 903 m 500 707 l 492 1021 l 642 1021 l 639 918 l 600 707 l 500 707 z "},"Ļ":{"ha":736,"x_min":100,"x_max":681,"o":"m 100 903 l 339 903 l 339 200 l 681 200 l 681 0 l 100 0 l 100 903 m 351 -56 q 492 -92 453 -64 q 532 -175 532 -121 q 510 -240 532 -212 q 453 -285 489 -267 q 369 -314 417 -304 q 268 -325 321 -324 l 251 -233 q 331 -219 300 -229 q 363 -186 363 -210 q 351 -158 363 -169 q 307 -139 339 -147 l 351 -56 l 351 -56 z "},"Ŀ":{"ha":736,"x_min":100,"x_max":726,"o":"m 100 903 l 339 903 l 339 200 l 681 200 l 681 0 l 100 0 l 100 903 m 449 458 q 488 561 449 519 q 588 603 526 603 q 688 561 649 603 q 726 458 726 519 q 688 356 726 397 q 588 314 649 314 q 488 356 526 314 q 449 458 449 397 z "},"Ḷ":{"ha":736,"x_min":100,"x_max":681,"o":"m 100 903 l 339 903 l 339 200 l 681 200 l 681 0 l 100 0 l 100 903 m 404 -325 q 312 -292 347 -325 q 276 -206 276 -258 q 312 -119 276 -153 q 404 -86 347 -86 q 497 -119 461 -86 q 532 -206 532 -153 q 497 -292 532 -258 q 404 -325 461 -325 z "},"Ḹ":{"ha":736,"x_min":19,"x_max":681,"o":"m 100 903 l 339 903 l 339 200 l 681 200 l 681 0 l 100 0 l 100 903 m 19 1144 l 431 1144 l 431 994 l 19 994 l 19 1144 m 404 -325 q 312 -292 347 -325 q 276 -206 276 -258 q 312 -119 276 -153 q 404 -86 347 -86 q 497 -119 461 -86 q 532 -206 532 -153 q 497 -292 532 -258 q 404 -325 461 -325 z "},"Ḻ":{"ha":736,"x_min":100,"x_max":681,"o":"m 100 903 l 339 903 l 339 200 l 681 200 l 681 0 l 100 0 l 100 903 m 604 -272 l 204 -272 l 204 -122 l 604 -122 l 604 -272 z "},"Ł":{"ha":747,"x_min":14,"x_max":692,"o":"m 692 200 l 692 0 l 111 0 l 111 275 l 14 217 l 14 400 l 111 458 l 111 903 l 350 903 l 350 569 l 583 700 l 583 517 l 350 386 l 350 200 l 692 200 z "},"Ṃ":{"ha":1078,"x_min":100,"x_max":978,"o":"m 100 903 l 347 903 l 489 528 l 539 381 l 544 381 l 594 528 l 731 903 l 978 903 l 978 0 l 756 0 l 756 267 q 759 343 756 301 q 767 428 763 385 q 776 514 771 472 q 786 589 782 556 l 781 589 l 706 378 l 581 74 l 492 74 l 367 378 l 294 589 l 289 589 q 299 514 293 556 q 308 428 304 472 q 316 343 313 385 q 319 267 319 301 l 319 0 l 100 0 l 100 903 m 542 -325 q 449 -292 485 -325 q 414 -206 414 -258 q 449 -119 414 -153 q 542 -86 485 -86 q 634 -119 599 -86 q 669 -206 669 -153 q 634 -292 669 -258 q 542 -325 599 -325 z "},"Ń":{"ha":933,"x_min":100,"x_max":833,"o":"m 100 903 l 344 903 l 544 500 l 631 297 l 636 297 q 626 376 632 333 q 617 465 621 419 q 609 555 613 510 q 606 642 606 600 l 606 903 l 833 903 l 833 0 l 589 0 l 389 404 l 303 606 l 297 606 q 317 436 306 528 q 328 261 328 344 l 328 0 l 100 0 l 100 903 m 539 972 l 350 972 l 458 1144 l 708 1144 l 539 972 z "},"Ň":{"ha":933,"x_min":100,"x_max":833,"o":"m 100 903 l 344 903 l 544 500 l 631 297 l 636 297 q 626 376 632 333 q 617 465 621 419 q 609 555 613 510 q 606 642 606 600 l 606 903 l 833 903 l 833 0 l 589 0 l 389 404 l 303 606 l 297 606 q 317 436 306 528 q 328 261 328 344 l 328 0 l 100 0 l 100 903 m 717 1144 l 583 972 l 350 972 l 217 1144 l 397 1144 l 464 1064 l 469 1064 l 536 1144 l 717 1144 z "},"Ñ":{"ha":933,"x_min":100,"x_max":833,"o":"m 100 903 l 344 903 l 544 500 l 631 297 l 636 297 q 626 376 632 333 q 617 465 621 419 q 609 555 613 510 q 606 642 606 600 l 606 903 l 833 903 l 833 0 l 589 0 l 389 404 l 303 606 l 297 606 q 317 436 306 528 q 328 261 328 344 l 328 0 l 100 0 l 100 903 m 556 972 q 503 981 528 972 q 458 1001 479 990 q 420 1022 438 1013 q 389 1031 403 1031 q 358 1018 372 1031 q 336 972 344 1006 l 217 972 q 275 1126 229 1078 q 378 1175 321 1175 q 430 1166 406 1175 q 475 1146 454 1157 q 513 1126 496 1135 q 544 1117 529 1117 q 575 1129 561 1117 q 597 1175 589 1142 l 717 1175 q 694 1084 710 1122 q 658 1021 679 1046 q 610 984 636 996 q 556 972 583 972 z "},"Ņ":{"ha":933,"x_min":100,"x_max":833,"o":"m 100 903 l 344 903 l 544 500 l 631 297 l 636 297 q 626 376 632 333 q 617 465 621 419 q 609 555 613 510 q 606 642 606 600 l 606 903 l 833 903 l 833 0 l 589 0 l 389 404 l 303 606 l 297 606 q 317 436 306 528 q 328 261 328 344 l 328 0 l 100 0 l 100 903 m 433 -56 q 574 -92 535 -64 q 614 -175 614 -121 q 592 -240 614 -212 q 535 -285 571 -267 q 451 -314 499 -304 q 350 -325 403 -324 l 333 -233 q 413 -219 382 -229 q 444 -186 444 -210 q 433 -158 444 -169 q 389 -139 421 -147 l 433 -56 l 433 -56 z "},"Ṅ":{"ha":933,"x_min":100,"x_max":833,"o":"m 100 903 l 344 903 l 544 500 l 631 297 l 636 297 q 626 376 632 333 q 617 465 621 419 q 609 555 613 510 q 606 642 606 600 l 606 903 l 833 903 l 833 0 l 589 0 l 389 404 l 303 606 l 297 606 q 317 436 306 528 q 328 261 328 344 l 328 0 l 100 0 l 100 903 m 467 967 q 371 1000 408 967 q 333 1086 333 1033 q 371 1172 333 1139 q 467 1206 408 1206 q 563 1172 525 1206 q 600 1086 600 1139 q 563 1000 600 1033 q 467 967 525 967 z "},"Ṇ":{"ha":933,"x_min":100,"x_max":833,"o":"m 100 903 l 344 903 l 544 500 l 631 297 l 636 297 q 626 376 632 333 q 617 465 621 419 q 609 555 613 510 q 606 642 606 600 l 606 903 l 833 903 l 833 0 l 589 0 l 389 404 l 303 606 l 297 606 q 317 436 306 528 q 328 261 328 344 l 328 0 l 100 0 l 100 903 m 486 -325 q 394 -292 429 -325 q 358 -206 358 -258 q 394 -119 358 -153 q 486 -86 429 -86 q 578 -119 543 -86 q 614 -206 614 -153 q 578 -292 614 -258 q 486 -325 543 -325 z "},"Ṉ":{"ha":933,"x_min":100,"x_max":833,"o":"m 100 903 l 344 903 l 544 500 l 631 297 l 636 297 q 626 376 632 333 q 617 465 621 419 q 609 555 613 510 q 606 642 606 600 l 606 903 l 833 903 l 833 0 l 589 0 l 389 404 l 303 606 l 297 606 q 317 436 306 528 q 328 261 328 344 l 328 0 l 100 0 l 100 903 m 686 -272 l 286 -272 l 286 -122 l 686 -122 l 686 -272 z "},"Ò":{"ha":961,"x_min":61,"x_max":900,"o":"m 481 -17 q 309 15 386 -17 q 177 108 232 47 q 92 256 122 168 q 61 456 61 344 q 92 653 61 567 q 177 799 122 740 q 309 889 232 858 q 481 919 386 919 q 651 889 574 919 q 784 799 729 858 q 869 653 839 739 q 900 456 900 567 q 869 256 900 344 q 784 108 839 168 q 651 15 729 47 q 481 -17 574 -17 m 481 189 q 609 260 563 189 q 656 456 656 332 q 609 647 656 579 q 481 714 563 714 q 352 647 399 714 q 306 456 306 579 q 352 260 306 332 q 481 189 399 189 m 239 1144 l 489 1144 l 597 972 l 408 972 l 239 1144 z "},"Ó":{"ha":961,"x_min":61,"x_max":900,"o":"m 481 -17 q 309 15 386 -17 q 177 108 232 47 q 92 256 122 168 q 61 456 61 344 q 92 653 61 567 q 177 799 122 740 q 309 889 232 858 q 481 919 386 919 q 651 889 574 919 q 784 799 729 858 q 869 653 839 739 q 900 456 900 567 q 869 256 900 344 q 784 108 839 168 q 651 15 729 47 q 481 -17 574 -17 m 481 189 q 609 260 563 189 q 656 456 656 332 q 609 647 656 579 q 481 714 563 714 q 352 647 399 714 q 306 456 306 579 q 352 260 306 332 q 481 189 399 189 m 553 972 l 364 972 l 472 1144 l 722 1144 l 553 972 z "},"Ô":{"ha":961,"x_min":61,"x_max":900,"o":"m 481 -17 q 309 15 386 -17 q 177 108 232 47 q 92 256 122 168 q 61 456 61 344 q 92 653 61 567 q 177 799 122 740 q 309 889 232 858 q 481 919 386 919 q 651 889 574 919 q 784 799 729 858 q 869 653 839 739 q 900 456 900 567 q 869 256 900 344 q 784 108 839 168 q 651 15 729 47 q 481 -17 574 -17 m 481 189 q 609 260 563 189 q 656 456 656 332 q 609 647 656 579 q 481 714 563 714 q 352 647 399 714 q 306 456 306 579 q 352 260 306 332 q 481 189 399 189 m 231 972 l 364 1144 l 597 1144 l 731 972 l 550 972 l 483 1053 l 478 1053 l 411 972 l 231 972 z "},"Õ":{"ha":961,"x_min":61,"x_max":900,"o":"m 481 -17 q 309 15 386 -17 q 177 108 232 47 q 92 256 122 168 q 61 456 61 344 q 92 653 61 567 q 177 799 122 740 q 309 889 232 858 q 481 919 386 919 q 651 889 574 919 q 784 799 729 858 q 869 653 839 739 q 900 456 900 567 q 869 256 900 344 q 784 108 839 168 q 651 15 729 47 q 481 -17 574 -17 m 481 189 q 609 260 563 189 q 656 456 656 332 q 609 647 656 579 q 481 714 563 714 q 352 647 399 714 q 306 456 306 579 q 352 260 306 332 q 481 189 399 189 m 569 972 q 517 981 542 972 q 472 1001 493 990 q 434 1022 451 1013 q 403 1031 417 1031 q 372 1018 386 1031 q 350 972 358 1006 l 231 972 q 289 1126 243 1078 q 392 1175 335 1175 q 444 1166 419 1175 q 489 1146 468 1157 q 526 1126 510 1135 q 558 1117 543 1117 q 589 1129 575 1117 q 611 1175 603 1142 l 731 1175 q 708 1084 724 1122 q 672 1021 693 1046 q 624 984 650 996 q 569 972 597 972 z "},"Ö":{"ha":961,"x_min":61,"x_max":900,"o":"m 481 -17 q 309 15 386 -17 q 177 108 232 47 q 92 256 122 168 q 61 456 61 344 q 92 653 61 567 q 177 799 122 740 q 309 889 232 858 q 481 919 386 919 q 651 889 574 919 q 784 799 729 858 q 869 653 839 739 q 900 456 900 567 q 869 256 900 344 q 784 108 839 168 q 651 15 729 47 q 481 -17 574 -17 m 481 189 q 609 260 563 189 q 656 456 656 332 q 609 647 656 579 q 481 714 563 714 q 352 647 399 714 q 306 456 306 579 q 352 260 306 332 q 481 189 399 189 m 336 964 q 258 995 288 964 q 228 1072 228 1026 q 258 1149 228 1118 q 336 1181 288 1181 q 415 1149 385 1181 q 444 1072 444 1118 q 415 995 444 1026 q 336 964 385 964 m 625 964 q 547 995 576 964 q 517 1072 517 1026 q 547 1149 517 1118 q 625 1181 576 1181 q 703 1149 674 1181 q 733 1072 733 1118 q 703 995 733 1026 q 625 964 674 964 z "},"Ō":{"ha":961,"x_min":61,"x_max":900,"o":"m 481 -17 q 309 15 386 -17 q 177 108 232 47 q 92 256 122 168 q 61 456 61 344 q 92 653 61 567 q 177 799 122 740 q 309 889 232 858 q 481 919 386 919 q 651 889 574 919 q 784 799 729 858 q 869 653 839 739 q 900 456 900 567 q 869 256 900 344 q 784 108 839 168 q 651 15 729 47 q 481 -17 574 -17 m 481 189 q 609 260 563 189 q 656 456 656 332 q 609 647 656 579 q 481 714 563 714 q 352 647 399 714 q 306 456 306 579 q 352 260 306 332 q 481 189 399 189 m 275 1144 l 686 1144 l 686 994 l 275 994 l 275 1144 z "},"Ő":{"ha":961,"x_min":61,"x_max":900,"o":"m 481 -17 q 309 15 386 -17 q 177 108 232 47 q 92 256 122 168 q 61 456 61 344 q 92 653 61 567 q 177 799 122 740 q 309 889 232 858 q 481 919 386 919 q 651 889 574 919 q 784 799 729 858 q 869 653 839 739 q 900 456 900 567 q 869 256 900 344 q 784 108 839 168 q 651 15 729 47 q 481 -17 574 -17 m 481 189 q 609 260 563 189 q 656 456 656 332 q 609 647 656 579 q 481 714 563 714 q 352 647 399 714 q 306 456 306 579 q 352 260 306 332 q 481 189 399 189 m 275 972 l 361 1144 l 561 1144 l 433 972 l 275 972 m 622 1144 l 822 1144 l 694 972 l 536 972 l 622 1144 z "},"Ǒ":{"ha":961,"x_min":61,"x_max":900,"o":"m 481 -17 q 309 15 386 -17 q 177 108 232 47 q 92 256 122 168 q 61 456 61 344 q 92 653 61 567 q 177 799 122 740 q 309 889 232 858 q 481 919 386 919 q 651 889 574 919 q 784 799 729 858 q 869 653 839 739 q 900 456 900 567 q 869 256 900 344 q 784 108 839 168 q 651 15 729 47 q 481 -17 574 -17 m 481 189 q 609 260 563 189 q 656 456 656 332 q 609 647 656 579 q 481 714 563 714 q 352 647 399 714 q 306 456 306 579 q 352 260 306 332 q 481 189 399 189 m 731 1144 l 597 972 l 364 972 l 231 1144 l 411 1144 l 478 1064 l 483 1064 l 550 1144 l 731 1144 z "},"Ọ":{"ha":961,"x_min":61,"x_max":900,"o":"m 481 -17 q 309 15 386 -17 q 177 108 232 47 q 92 256 122 168 q 61 456 61 344 q 92 653 61 567 q 177 799 122 740 q 309 889 232 858 q 481 919 386 919 q 651 889 574 919 q 784 799 729 858 q 869 653 839 739 q 900 456 900 567 q 869 256 900 344 q 784 108 839 168 q 651 15 729 47 q 481 -17 574 -17 m 481 189 q 609 260 563 189 q 656 456 656 332 q 609 647 656 579 q 481 714 563 714 q 352 647 399 714 q 306 456 306 579 q 352 260 306 332 q 481 189 399 189 m 481 -325 q 388 -292 424 -325 q 353 -206 353 -258 q 388 -119 353 -153 q 481 -86 424 -86 q 573 -119 538 -86 q 608 -206 608 -153 q 573 -292 608 -258 q 481 -325 538 -325 z "},"Ỏ":{"ha":961,"x_min":61,"x_max":900,"o":"m 481 -17 q 309 15 386 -17 q 177 108 232 47 q 92 256 122 168 q 61 456 61 344 q 92 653 61 567 q 177 799 122 740 q 309 889 232 858 q 481 919 386 919 q 651 889 574 919 q 784 799 729 858 q 869 653 839 739 q 900 456 900 567 q 869 256 900 344 q 784 108 839 168 q 651 15 729 47 q 481 -17 574 -17 m 481 189 q 609 260 563 189 q 656 456 656 332 q 609 647 656 579 q 481 714 563 714 q 352 647 399 714 q 306 456 306 579 q 352 260 306 332 q 481 189 399 189 m 411 1047 q 451 1057 435 1050 q 467 1081 467 1064 q 443 1108 467 1097 q 358 1122 419 1118 l 386 1239 q 506 1226 458 1236 q 583 1198 554 1215 q 624 1157 613 1181 q 636 1106 636 1133 q 619 1041 636 1068 q 574 995 603 1014 q 508 967 546 976 q 428 956 471 957 l 411 1047 z "},"Ố":{"ha":961,"x_min":61,"x_max":924,"o":"m 481 -17 q 309 15 386 -17 q 177 108 232 47 q 92 256 122 168 q 61 456 61 344 q 92 653 61 567 q 177 799 122 740 q 309 889 232 858 q 481 919 386 919 q 651 889 574 919 q 784 799 729 858 q 869 653 839 739 q 900 456 900 567 q 869 256 900 344 q 784 108 839 168 q 651 15 729 47 q 481 -17 574 -17 m 481 189 q 609 260 563 189 q 656 456 656 332 q 609 647 656 579 q 481 714 563 714 q 352 647 399 714 q 306 456 306 579 q 352 260 306 332 q 481 189 399 189 m 743 1242 l 924 1242 l 782 1069 l 649 1069 l 743 1242 m 378 1136 l 583 1136 l 717 972 l 550 972 l 483 1044 l 478 1044 l 411 972 l 244 972 l 378 1136 z "},"Ồ":{"ha":961,"x_min":61,"x_max":900,"o":"m 481 -17 q 309 15 386 -17 q 177 108 232 47 q 92 256 122 168 q 61 456 61 344 q 92 653 61 567 q 177 799 122 740 q 309 889 232 858 q 481 919 386 919 q 651 889 574 919 q 784 799 729 858 q 869 653 839 739 q 900 456 900 567 q 869 256 900 344 q 784 108 839 168 q 651 15 729 47 q 481 -17 574 -17 m 481 189 q 609 260 563 189 q 656 456 656 332 q 609 647 656 579 q 481 714 563 714 q 352 647 399 714 q 306 456 306 579 q 352 260 306 332 q 481 189 399 189 m 840 1069 l 707 1069 l 565 1242 l 746 1242 l 840 1069 m 378 1136 l 583 1136 l 717 972 l 550 972 l 483 1044 l 478 1044 l 411 972 l 244 972 l 378 1136 z "},"Ổ":{"ha":961,"x_min":61,"x_max":900,"o":"m 481 -17 q 309 15 386 -17 q 177 108 232 47 q 92 256 122 168 q 61 456 61 344 q 92 653 61 567 q 177 799 122 740 q 309 889 232 858 q 481 919 386 919 q 651 889 574 919 q 784 799 729 858 q 869 653 839 739 q 900 456 900 567 q 869 256 900 344 q 784 108 839 168 q 651 15 729 47 q 481 -17 574 -17 m 481 189 q 609 260 563 189 q 656 456 656 332 q 609 647 656 579 q 481 714 563 714 q 352 647 399 714 q 306 456 306 579 q 352 260 306 332 q 481 189 399 189 m 667 1111 q 694 1121 683 1114 q 706 1144 706 1128 q 688 1172 706 1161 q 617 1186 669 1182 l 639 1281 q 744 1268 703 1278 q 811 1243 786 1258 q 846 1207 836 1228 q 856 1164 856 1186 q 806 1071 856 1099 q 683 1039 757 1043 l 667 1111 m 378 1136 l 583 1136 l 717 972 l 550 972 l 483 1044 l 478 1044 l 411 972 l 244 972 l 378 1136 z "},"Ỗ":{"ha":961,"x_min":61,"x_max":900,"o":"m 481 -17 q 309 15 386 -17 q 177 108 232 47 q 92 256 122 168 q 61 456 61 344 q 92 653 61 567 q 177 799 122 740 q 309 889 232 858 q 481 919 386 919 q 651 889 574 919 q 784 799 729 858 q 869 653 839 739 q 900 456 900 567 q 869 256 900 344 q 784 108 839 168 q 651 15 729 47 q 481 -17 574 -17 m 481 189 q 609 260 563 189 q 656 456 656 332 q 609 647 656 579 q 481 714 563 714 q 352 647 399 714 q 306 456 306 579 q 352 260 306 332 q 481 189 399 189 m 378 1136 l 583 1136 l 717 972 l 550 972 l 483 1044 l 478 1044 l 411 972 l 244 972 l 378 1136 m 264 1186 q 315 1317 275 1278 q 400 1356 354 1356 q 446 1348 425 1356 q 484 1331 467 1340 q 517 1313 501 1321 q 546 1306 532 1306 q 575 1317 563 1306 q 594 1356 588 1328 l 697 1356 q 647 1225 686 1264 q 561 1186 607 1186 q 515 1194 536 1186 q 476 1211 494 1201 q 444 1228 458 1221 q 415 1236 429 1236 q 386 1225 399 1236 q 367 1186 374 1214 l 264 1186 z "},"Ộ":{"ha":961,"x_min":61,"x_max":900,"o":"m 481 -17 q 309 15 386 -17 q 177 108 232 47 q 92 256 122 168 q 61 456 61 344 q 92 653 61 567 q 177 799 122 740 q 309 889 232 858 q 481 919 386 919 q 651 889 574 919 q 784 799 729 858 q 869 653 839 739 q 900 456 900 567 q 869 256 900 344 q 784 108 839 168 q 651 15 729 47 q 481 -17 574 -17 m 481 189 q 609 260 563 189 q 656 456 656 332 q 609 647 656 579 q 481 714 563 714 q 352 647 399 714 q 306 456 306 579 q 352 260 306 332 q 481 189 399 189 m 231 972 l 364 1144 l 597 1144 l 731 972 l 550 972 l 483 1053 l 478 1053 l 411 972 l 231 972 m 481 -325 q 388 -292 424 -325 q 353 -206 353 -258 q 388 -119 353 -153 q 481 -86 424 -86 q 573 -119 538 -86 q 608 -206 608 -153 q 573 -292 608 -258 q 481 -325 538 -325 z "},"Ø":{"ha":961,"x_min":50,"x_max":939,"o":"m 399 213 q 481 189 435 189 q 609 260 563 189 q 656 456 656 332 q 651 521 656 492 l 399 213 m 581 678 q 481 714 538 714 q 352 647 399 714 q 306 456 306 579 q 315 354 306 397 l 581 678 m 829 739 q 882 613 864 683 q 900 456 900 542 q 869 256 900 344 q 784 108 839 168 q 651 15 729 47 q 481 -17 574 -17 q 258 42 351 -17 l 172 -64 l 50 31 l 146 147 q 83 283 106 206 q 61 456 61 360 q 92 653 61 567 q 177 799 122 740 q 309 889 232 858 q 481 919 386 919 q 722 851 619 919 l 817 967 l 939 872 l 829 739 z "},"Œ":{"ha":1222,"x_min":61,"x_max":1147,"o":"m 61 456 q 98 660 61 575 q 199 799 135 744 q 349 878 263 853 q 533 903 435 903 l 1133 903 l 1133 703 l 806 703 l 806 561 l 1083 561 l 1083 361 l 806 361 l 806 200 l 1147 200 l 1147 0 l 519 0 q 342 26 425 0 q 196 108 258 53 q 97 250 133 164 q 61 456 61 336 m 306 456 q 324 324 306 375 q 376 243 343 272 q 453 203 408 214 q 547 192 497 192 l 567 192 l 567 711 l 547 711 q 453 701 497 711 q 376 664 408 692 q 324 586 343 636 q 306 456 306 536 z "},"Ơ":{"ha":961,"x_min":61,"x_max":933,"o":"m 481 189 q 609 260 563 189 q 656 456 656 332 q 609 647 656 579 q 481 714 563 714 q 352 647 399 714 q 306 456 306 579 q 352 260 306 332 q 481 189 399 189 m 889 1094 q 919 1044 906 1075 q 933 975 933 1013 q 892 861 933 903 q 782 800 851 819 q 869 654 839 740 q 900 456 900 568 q 869 256 900 344 q 784 108 839 168 q 651 15 729 47 q 481 -17 574 -17 q 309 15 386 -17 q 177 108 232 47 q 92 256 122 168 q 61 456 61 344 q 92 653 61 567 q 177 799 122 740 q 309 889 232 858 q 481 919 386 919 q 679 876 590 919 q 731 903 713 888 q 750 958 750 919 q 742 997 750 979 q 728 1025 735 1014 l 889 1094 z "},"Ớ":{"ha":961,"x_min":61,"x_max":933,"o":"m 481 189 q 609 260 563 189 q 656 456 656 332 q 609 647 656 579 q 481 714 563 714 q 352 647 399 714 q 306 456 306 579 q 352 260 306 332 q 481 189 399 189 m 889 1094 q 919 1044 906 1075 q 933 975 933 1013 q 892 861 933 903 q 782 800 851 819 q 869 654 839 740 q 900 456 900 568 q 869 256 900 344 q 784 108 839 168 q 651 15 729 47 q 481 -17 574 -17 q 309 15 386 -17 q 177 108 232 47 q 92 256 122 168 q 61 456 61 344 q 92 653 61 567 q 177 799 122 740 q 309 889 232 858 q 481 919 386 919 q 679 876 590 919 q 731 903 713 888 q 750 958 750 919 q 742 997 750 979 q 728 1025 735 1014 l 889 1094 m 553 972 l 364 972 l 472 1144 l 722 1144 l 553 972 z "},"Ờ":{"ha":961,"x_min":61,"x_max":933,"o":"m 481 189 q 609 260 563 189 q 656 456 656 332 q 609 647 656 579 q 481 714 563 714 q 352 647 399 714 q 306 456 306 579 q 352 260 306 332 q 481 189 399 189 m 889 1094 q 919 1044 906 1075 q 933 975 933 1013 q 892 861 933 903 q 782 800 851 819 q 869 654 839 740 q 900 456 900 568 q 869 256 900 344 q 784 108 839 168 q 651 15 729 47 q 481 -17 574 -17 q 309 15 386 -17 q 177 108 232 47 q 92 256 122 168 q 61 456 61 344 q 92 653 61 567 q 177 799 122 740 q 309 889 232 858 q 481 919 386 919 q 679 876 590 919 q 731 903 713 888 q 750 958 750 919 q 742 997 750 979 q 728 1025 735 1014 l 889 1094 m 239 1144 l 489 1144 l 597 972 l 408 972 l 239 1144 z "},"Ở":{"ha":961,"x_min":61,"x_max":933,"o":"m 481 189 q 609 260 563 189 q 656 456 656 332 q 609 647 656 579 q 481 714 563 714 q 352 647 399 714 q 306 456 306 579 q 352 260 306 332 q 481 189 399 189 m 889 1094 q 919 1044 906 1075 q 933 975 933 1013 q 892 861 933 903 q 782 800 851 819 q 869 654 839 740 q 900 456 900 568 q 869 256 900 344 q 784 108 839 168 q 651 15 729 47 q 481 -17 574 -17 q 309 15 386 -17 q 177 108 232 47 q 92 256 122 168 q 61 456 61 344 q 92 653 61 567 q 177 799 122 740 q 309 889 232 858 q 481 919 386 919 q 679 876 590 919 q 731 903 713 888 q 750 958 750 919 q 742 997 750 979 q 728 1025 735 1014 l 889 1094 m 411 1047 q 451 1057 435 1050 q 467 1081 467 1064 q 443 1108 467 1097 q 358 1122 419 1118 l 386 1239 q 506 1226 458 1236 q 583 1198 554 1215 q 624 1157 613 1181 q 636 1106 636 1133 q 619 1041 636 1068 q 574 995 603 1014 q 508 967 546 976 q 428 956 471 957 l 411 1047 z "},"Ỡ":{"ha":961,"x_min":61,"x_max":933,"o":"m 481 189 q 609 260 563 189 q 656 456 656 332 q 609 647 656 579 q 481 714 563 714 q 352 647 399 714 q 306 456 306 579 q 352 260 306 332 q 481 189 399 189 m 889 1094 q 919 1044 906 1075 q 933 975 933 1013 q 892 861 933 903 q 782 800 851 819 q 869 654 839 740 q 900 456 900 568 q 869 256 900 344 q 784 108 839 168 q 651 15 729 47 q 481 -17 574 -17 q 309 15 386 -17 q 177 108 232 47 q 92 256 122 168 q 61 456 61 344 q 92 653 61 567 q 177 799 122 740 q 309 889 232 858 q 481 919 386 919 q 679 876 590 919 q 731 903 713 888 q 750 958 750 919 q 742 997 750 979 q 728 1025 735 1014 l 889 1094 m 569 972 q 517 981 542 972 q 472 1001 493 990 q 434 1022 451 1013 q 403 1031 417 1031 q 372 1018 386 1031 q 350 972 358 1006 l 231 972 q 289 1126 243 1078 q 392 1175 335 1175 q 444 1166 419 1175 q 489 1146 468 1157 q 526 1126 510 1135 q 558 1117 543 1117 q 589 1129 575 1117 q 611 1175 603 1142 l 731 1175 q 708 1084 724 1122 q 672 1021 693 1046 q 624 984 650 996 q 569 972 597 972 z "},"Ợ":{"ha":961,"x_min":61,"x_max":933,"o":"m 481 189 q 609 260 563 189 q 656 456 656 332 q 609 647 656 579 q 481 714 563 714 q 352 647 399 714 q 306 456 306 579 q 352 260 306 332 q 481 189 399 189 m 889 1094 q 919 1044 906 1075 q 933 975 933 1013 q 892 861 933 903 q 782 800 851 819 q 869 654 839 740 q 900 456 900 568 q 869 256 900 344 q 784 108 839 168 q 651 15 729 47 q 481 -17 574 -17 q 309 15 386 -17 q 177 108 232 47 q 92 256 122 168 q 61 456 61 344 q 92 653 61 567 q 177 799 122 740 q 309 889 232 858 q 481 919 386 919 q 679 876 590 919 q 731 903 713 888 q 750 958 750 919 q 742 997 750 979 q 728 1025 735 1014 l 889 1094 m 481 -325 q 388 -292 424 -325 q 353 -206 353 -258 q 388 -119 353 -153 q 481 -86 424 -86 q 573 -119 538 -86 q 608 -206 608 -153 q 573 -292 608 -258 q 481 -325 538 -325 z "},"Ǫ":{"ha":961,"x_min":61,"x_max":900,"o":"m 344 -181 q 374 -81 344 -124 q 433 -14 404 -39 q 278 30 347 -6 q 162 126 210 65 q 88 269 114 186 q 61 456 61 351 q 92 653 61 567 q 177 799 122 740 q 309 889 232 858 q 481 919 386 919 q 651 889 574 919 q 784 799 729 858 q 869 653 839 739 q 900 456 900 567 q 880 285 900 358 q 822 158 860 213 q 731 65 785 104 q 611 -6 678 25 q 539 -59 561 -29 q 517 -117 517 -89 q 534 -153 517 -142 q 572 -164 551 -164 q 597 -158 585 -164 q 619 -144 610 -151 l 672 -264 q 599 -302 643 -287 q 514 -317 554 -317 q 394 -281 443 -317 q 344 -181 344 -246 m 481 189 q 609 260 563 189 q 656 456 656 332 q 609 647 656 579 q 481 714 563 714 q 352 647 399 714 q 306 456 306 579 q 352 260 306 332 q 481 189 399 189 z "},"Ŕ":{"ha":875,"x_min":100,"x_max":853,"o":"m 339 492 l 425 492 q 569 611 569 492 q 533 692 569 669 q 425 714 496 714 l 339 714 l 339 492 m 586 0 l 431 303 l 339 303 l 339 0 l 100 0 l 100 903 l 442 903 q 580 889 514 903 q 695 842 646 875 q 774 752 744 808 q 803 611 803 696 q 763 450 803 514 q 657 350 724 386 l 853 0 l 586 0 m 511 972 l 322 972 l 431 1144 l 681 1144 l 511 972 z "},"Ř":{"ha":875,"x_min":100,"x_max":853,"o":"m 339 492 l 425 492 q 569 611 569 492 q 533 692 569 669 q 425 714 496 714 l 339 714 l 339 492 m 586 0 l 431 303 l 339 303 l 339 0 l 100 0 l 100 903 l 442 903 q 580 889 514 903 q 695 842 646 875 q 774 752 744 808 q 803 611 803 696 q 763 450 803 514 q 657 350 724 386 l 853 0 l 586 0 m 689 1144 l 556 972 l 322 972 l 189 1144 l 369 1144 l 436 1064 l 442 1064 l 508 1144 l 689 1144 z "},"Ŗ":{"ha":875,"x_min":100,"x_max":853,"o":"m 339 492 l 425 492 q 569 611 569 492 q 533 692 569 669 q 425 714 496 714 l 339 714 l 339 492 m 586 0 l 431 303 l 339 303 l 339 0 l 100 0 l 100 903 l 442 903 q 580 889 514 903 q 695 842 646 875 q 774 752 744 808 q 803 611 803 696 q 763 450 803 514 q 657 350 724 386 l 853 0 l 586 0 m 411 -56 q 552 -92 513 -64 q 592 -175 592 -121 q 570 -240 592 -212 q 513 -285 549 -267 q 428 -314 476 -304 q 328 -325 381 -324 l 311 -233 q 391 -219 360 -229 q 422 -186 422 -210 q 410 -158 422 -169 q 367 -139 399 -147 l 411 -56 l 411 -56 z "},"Ṛ":{"ha":875,"x_min":100,"x_max":853,"o":"m 339 492 l 425 492 q 569 611 569 492 q 533 692 569 669 q 425 714 496 714 l 339 714 l 339 492 m 586 0 l 431 303 l 339 303 l 339 0 l 100 0 l 100 903 l 442 903 q 580 889 514 903 q 695 842 646 875 q 774 752 744 808 q 803 611 803 696 q 763 450 803 514 q 657 350 724 386 l 853 0 l 586 0 m 464 -325 q 372 -292 407 -325 q 336 -206 336 -258 q 372 -119 336 -153 q 464 -86 407 -86 q 556 -119 521 -86 q 592 -206 592 -153 q 556 -292 592 -258 q 464 -325 521 -325 z "},"Ṝ":{"ha":875,"x_min":100,"x_max":853,"o":"m 339 492 l 425 492 q 569 611 569 492 q 533 692 569 669 q 425 714 496 714 l 339 714 l 339 492 m 586 0 l 431 303 l 339 303 l 339 0 l 100 0 l 100 903 l 442 903 q 580 889 514 903 q 695 842 646 875 q 774 752 744 808 q 803 611 803 696 q 763 450 803 514 q 657 350 724 386 l 853 0 l 586 0 m 233 1144 l 644 1144 l 644 994 l 233 994 l 233 1144 m 464 -325 q 372 -292 407 -325 q 336 -206 336 -258 q 372 -119 336 -153 q 464 -86 407 -86 q 556 -119 521 -86 q 592 -206 592 -153 q 556 -292 592 -258 q 464 -325 521 -325 z "},"Ṟ":{"ha":875,"x_min":100,"x_max":853,"o":"m 339 492 l 425 492 q 569 611 569 492 q 533 692 569 669 q 425 714 496 714 l 339 714 l 339 492 m 586 0 l 431 303 l 339 303 l 339 0 l 100 0 l 100 903 l 442 903 q 580 889 514 903 q 695 842 646 875 q 774 752 744 808 q 803 611 803 696 q 763 450 803 514 q 657 350 724 386 l 853 0 l 586 0 m 664 -272 l 264 -272 l 264 -122 l 664 -122 l 664 -272 z "},"Ś":{"ha":783,"x_min":44,"x_max":739,"o":"m 181 276 q 285 213 229 238 q 392 189 342 189 q 470 206 446 189 q 494 253 494 222 q 486 281 494 269 q 462 301 478 292 q 424 320 446 311 q 372 340 401 329 l 260 388 q 190 424 224 401 q 132 478 157 447 q 92 550 107 510 q 78 639 78 590 q 103 748 78 697 q 172 837 128 799 q 278 897 217 875 q 414 919 340 919 q 572 890 492 919 q 714 799 651 861 l 594 649 q 506 697 549 681 q 414 714 464 714 q 344 699 369 714 q 319 653 319 683 q 355 603 319 621 q 453 563 390 586 l 563 519 q 693 426 647 486 q 739 272 739 367 q 715 163 739 215 q 647 70 692 110 q 536 7 601 31 q 386 -17 471 -17 q 209 15 300 -17 q 44 113 118 46 l 181 276 m 483 972 l 294 972 l 403 1144 l 653 1144 l 483 972 z "},"Ŝ":{"ha":783,"x_min":44,"x_max":739,"o":"m 181 276 q 285 213 229 238 q 392 189 342 189 q 470 206 446 189 q 494 253 494 222 q 486 281 494 269 q 462 301 478 292 q 424 320 446 311 q 372 340 401 329 l 260 388 q 190 424 224 401 q 132 478 157 447 q 92 550 107 510 q 78 639 78 590 q 103 748 78 697 q 172 837 128 799 q 278 897 217 875 q 414 919 340 919 q 572 890 492 919 q 714 799 651 861 l 594 649 q 506 697 549 681 q 414 714 464 714 q 344 699 369 714 q 319 653 319 683 q 355 603 319 621 q 453 563 390 586 l 563 519 q 693 426 647 486 q 739 272 739 367 q 715 163 739 215 q 647 70 692 110 q 536 7 601 31 q 386 -17 471 -17 q 209 15 300 -17 q 44 113 118 46 l 181 276 m 161 972 l 294 1144 l 528 1144 l 661 972 l 481 972 l 414 1053 l 408 1053 l 342 972 l 161 972 z "},"Š":{"ha":783,"x_min":44,"x_max":739,"o":"m 181 276 q 285 213 229 238 q 392 189 342 189 q 470 206 446 189 q 494 253 494 222 q 486 281 494 269 q 462 301 478 292 q 424 320 446 311 q 372 340 401 329 l 260 388 q 190 424 224 401 q 132 478 157 447 q 92 550 107 510 q 78 639 78 590 q 103 748 78 697 q 172 837 128 799 q 278 897 217 875 q 414 919 340 919 q 572 890 492 919 q 714 799 651 861 l 594 649 q 506 697 549 681 q 414 714 464 714 q 344 699 369 714 q 319 653 319 683 q 355 603 319 621 q 453 563 390 586 l 563 519 q 693 426 647 486 q 739 272 739 367 q 715 163 739 215 q 647 70 692 110 q 536 7 601 31 q 386 -17 471 -17 q 209 15 300 -17 q 44 113 118 46 l 181 276 m 661 1144 l 528 972 l 294 972 l 161 1144 l 342 1144 l 408 1064 l 414 1064 l 481 1144 l 661 1144 z "},"Ş":{"ha":783,"x_min":44,"x_max":739,"o":"m 181 276 q 285 213 229 238 q 392 189 342 189 q 470 206 446 189 q 494 253 494 222 q 486 281 494 269 q 462 301 478 292 q 424 320 446 311 q 372 340 401 329 l 260 388 q 190 424 224 401 q 132 478 157 447 q 92 550 107 510 q 78 639 78 590 q 103 748 78 697 q 172 837 128 799 q 278 897 217 875 q 414 919 340 919 q 572 890 492 919 q 714 799 651 861 l 594 649 q 506 697 549 681 q 414 714 464 714 q 344 699 369 714 q 319 653 319 683 q 355 603 319 621 q 453 563 390 586 l 563 519 q 693 426 647 486 q 739 272 739 367 q 715 163 739 215 q 647 70 692 110 q 536 7 601 31 q 386 -17 471 -17 q 209 15 300 -17 q 44 113 118 46 l 181 276 m 328 6 l 464 6 l 439 -56 q 497 -92 475 -68 q 519 -161 519 -117 q 498 -226 519 -199 q 440 -272 476 -253 q 356 -300 404 -290 q 256 -311 308 -310 l 239 -219 q 319 -202 288 -215 q 350 -161 350 -189 q 335 -132 350 -146 q 272 -106 321 -118 l 328 6 z "},"Ș":{"ha":783,"x_min":44,"x_max":739,"o":"m 181 276 q 285 213 229 238 q 392 189 342 189 q 470 206 446 189 q 494 253 494 222 q 486 281 494 269 q 462 301 478 292 q 424 320 446 311 q 372 340 401 329 l 260 388 q 190 424 224 401 q 132 478 157 447 q 92 550 107 510 q 78 639 78 590 q 103 748 78 697 q 172 837 128 799 q 278 897 217 875 q 414 919 340 919 q 572 890 492 919 q 714 799 651 861 l 594 649 q 506 697 549 681 q 414 714 464 714 q 344 699 369 714 q 319 653 319 683 q 355 603 319 621 q 453 563 390 586 l 563 519 q 693 426 647 486 q 739 272 739 367 q 715 163 739 215 q 647 70 692 110 q 536 7 601 31 q 386 -17 471 -17 q 209 15 300 -17 q 44 113 118 46 l 181 276 m 339 -56 q 480 -92 440 -64 q 519 -175 519 -121 q 498 -240 519 -212 q 440 -285 476 -267 q 356 -314 404 -304 q 256 -325 308 -324 l 239 -233 q 319 -219 288 -229 q 350 -186 350 -210 q 338 -158 350 -169 q 294 -139 326 -147 l 339 -56 l 339 -56 z "},"Ṡ":{"ha":783,"x_min":44,"x_max":739,"o":"m 181 276 q 285 213 229 238 q 392 189 342 189 q 470 206 446 189 q 494 253 494 222 q 486 281 494 269 q 462 301 478 292 q 424 320 446 311 q 372 340 401 329 l 260 388 q 190 424 224 401 q 132 478 157 447 q 92 550 107 510 q 78 639 78 590 q 103 748 78 697 q 172 837 128 799 q 278 897 217 875 q 414 919 340 919 q 572 890 492 919 q 714 799 651 861 l 594 649 q 506 697 549 681 q 414 714 464 714 q 344 699 369 714 q 319 653 319 683 q 355 603 319 621 q 453 563 390 586 l 563 519 q 693 426 647 486 q 739 272 739 367 q 715 163 739 215 q 647 70 692 110 q 536 7 601 31 q 386 -17 471 -17 q 209 15 300 -17 q 44 113 118 46 l 181 276 m 411 967 q 315 1000 353 967 q 278 1086 278 1033 q 315 1172 278 1139 q 411 1206 353 1206 q 507 1172 469 1206 q 544 1086 544 1139 q 507 1000 544 1033 q 411 967 469 967 z "},"Ṣ":{"ha":783,"x_min":44,"x_max":739,"o":"m 181 276 q 285 213 229 238 q 392 189 342 189 q 470 206 446 189 q 494 253 494 222 q 486 281 494 269 q 462 301 478 292 q 424 320 446 311 q 372 340 401 329 l 260 388 q 190 424 224 401 q 132 478 157 447 q 92 550 107 510 q 78 639 78 590 q 103 748 78 697 q 172 837 128 799 q 278 897 217 875 q 414 919 340 919 q 572 890 492 919 q 714 799 651 861 l 594 649 q 506 697 549 681 q 414 714 464 714 q 344 699 369 714 q 319 653 319 683 q 355 603 319 621 q 453 563 390 586 l 563 519 q 693 426 647 486 q 739 272 739 367 q 715 163 739 215 q 647 70 692 110 q 536 7 601 31 q 386 -17 471 -17 q 209 15 300 -17 q 44 113 118 46 l 181 276 m 392 -325 q 299 -292 335 -325 q 264 -206 264 -258 q 299 -119 264 -153 q 392 -86 335 -86 q 484 -119 449 -86 q 519 -206 519 -153 q 484 -292 519 -258 q 392 -325 449 -325 z "},"ẞ":{"ha":1000,"x_min":106,"x_max":947,"o":"m 106 564 q 128 703 106 638 q 200 816 151 768 q 325 892 249 864 q 508 919 401 919 q 640 900 581 919 q 746 845 700 881 q 823 760 792 810 q 869 650 854 710 l 736 497 q 817 459 779 481 q 885 408 856 438 q 931 340 914 379 q 947 250 947 301 q 929 144 947 193 q 875 60 911 96 q 785 4 839 25 q 658 -17 731 -17 q 499 14 564 -17 q 397 81 435 44 l 519 225 q 578 185 551 196 q 628 175 604 175 q 682 196 661 175 q 703 253 703 217 q 658 315 703 286 q 515 363 613 344 l 500 500 l 636 658 q 588 707 621 686 q 503 728 554 728 q 383 678 421 728 q 344 533 344 629 l 344 0 l 106 0 l 106 564 z "},"Ť":{"ha":783,"x_min":33,"x_max":750,"o":"m 272 703 l 33 703 l 33 903 l 750 903 l 750 703 l 511 703 l 511 0 l 272 0 l 272 703 m 642 1144 l 508 972 l 275 972 l 142 1144 l 322 1144 l 389 1064 l 394 1064 l 461 1144 l 642 1144 z "},"Ţ":{"ha":783,"x_min":33,"x_max":750,"o":"m 272 703 l 33 703 l 33 903 l 750 903 l 750 703 l 511 703 l 511 0 l 272 0 l 272 703 m 333 6 l 469 6 l 444 -56 q 503 -92 481 -68 q 525 -161 525 -117 q 503 -226 525 -199 q 446 -272 482 -253 q 362 -300 410 -290 q 261 -311 314 -310 l 244 -219 q 324 -202 293 -215 q 356 -161 356 -189 q 341 -132 356 -146 q 278 -106 326 -118 l 333 6 z "},"Ț":{"ha":783,"x_min":33,"x_max":750,"o":"m 272 703 l 33 703 l 33 903 l 750 903 l 750 703 l 511 703 l 511 0 l 272 0 l 272 703 m 339 -56 q 480 -92 440 -64 q 519 -175 519 -121 q 498 -240 519 -212 q 440 -285 476 -267 q 356 -314 404 -304 q 256 -325 308 -324 l 239 -233 q 319 -219 288 -229 q 350 -186 350 -210 q 338 -158 350 -169 q 294 -139 326 -147 l 339 -56 l 339 -56 z "},"Ṭ":{"ha":783,"x_min":33,"x_max":750,"o":"m 272 703 l 33 703 l 33 903 l 750 903 l 750 703 l 511 703 l 511 0 l 272 0 l 272 703 m 392 -325 q 299 -292 335 -325 q 264 -206 264 -258 q 299 -119 264 -153 q 392 -86 335 -86 q 484 -119 449 -86 q 519 -206 519 -153 q 484 -292 519 -258 q 392 -325 449 -325 z "},"Ṯ":{"ha":783,"x_min":33,"x_max":750,"o":"m 272 703 l 33 703 l 33 903 l 750 903 l 750 703 l 511 703 l 511 0 l 272 0 l 272 703 m 592 -272 l 192 -272 l 192 -122 l 592 -122 l 592 -272 z "},"Ù":{"ha":933,"x_min":94,"x_max":839,"o":"m 94 903 l 333 903 l 333 408 q 366 238 333 288 q 469 189 399 189 q 574 238 540 189 q 608 408 608 288 l 608 903 l 839 903 l 839 436 q 749 94 839 204 q 469 -17 658 -17 q 187 94 279 -17 q 94 436 94 204 l 94 903 m 225 1144 l 475 1144 l 583 972 l 394 972 l 225 1144 z "},"Ú":{"ha":933,"x_min":94,"x_max":839,"o":"m 94 903 l 333 903 l 333 408 q 366 238 333 288 q 469 189 399 189 q 574 238 540 189 q 608 408 608 288 l 608 903 l 839 903 l 839 436 q 749 94 839 204 q 469 -17 658 -17 q 187 94 279 -17 q 94 436 94 204 l 94 903 m 539 972 l 350 972 l 458 1144 l 708 1144 l 539 972 z "},"Û":{"ha":933,"x_min":94,"x_max":839,"o":"m 94 903 l 333 903 l 333 408 q 366 238 333 288 q 469 189 399 189 q 574 238 540 189 q 608 408 608 288 l 608 903 l 839 903 l 839 436 q 749 94 839 204 q 469 -17 658 -17 q 187 94 279 -17 q 94 436 94 204 l 94 903 m 217 972 l 350 1144 l 583 1144 l 717 972 l 536 972 l 469 1053 l 464 1053 l 397 972 l 217 972 z "},"Ũ":{"ha":933,"x_min":94,"x_max":839,"o":"m 94 903 l 333 903 l 333 408 q 366 238 333 288 q 469 189 399 189 q 574 238 540 189 q 608 408 608 288 l 608 903 l 839 903 l 839 436 q 749 94 839 204 q 469 -17 658 -17 q 187 94 279 -17 q 94 436 94 204 l 94 903 m 556 972 q 503 981 528 972 q 458 1001 479 990 q 420 1022 438 1013 q 389 1031 403 1031 q 358 1018 372 1031 q 336 972 344 1006 l 217 972 q 275 1126 229 1078 q 378 1175 321 1175 q 430 1166 406 1175 q 475 1146 454 1157 q 513 1126 496 1135 q 544 1117 529 1117 q 575 1129 561 1117 q 597 1175 589 1142 l 717 1175 q 694 1084 710 1122 q 658 1021 679 1046 q 610 984 636 996 q 556 972 583 972 z "},"Ü":{"ha":933,"x_min":94,"x_max":839,"o":"m 94 903 l 333 903 l 333 408 q 366 238 333 288 q 469 189 399 189 q 574 238 540 189 q 608 408 608 288 l 608 903 l 839 903 l 839 436 q 749 94 839 204 q 469 -17 658 -17 q 187 94 279 -17 q 94 436 94 204 l 94 903 m 322 964 q 244 995 274 964 q 214 1072 214 1026 q 244 1149 214 1118 q 322 1181 274 1181 q 401 1149 371 1181 q 431 1072 431 1118 q 401 995 431 1026 q 322 964 371 964 m 611 964 q 533 995 563 964 q 503 1072 503 1026 q 533 1149 503 1118 q 611 1181 563 1181 q 690 1149 660 1181 q 719 1072 719 1118 q 690 995 719 1026 q 611 964 660 964 z "},"Ū":{"ha":933,"x_min":94,"x_max":839,"o":"m 94 903 l 333 903 l 333 408 q 366 238 333 288 q 469 189 399 189 q 574 238 540 189 q 608 408 608 288 l 608 903 l 839 903 l 839 436 q 749 94 839 204 q 469 -17 658 -17 q 187 94 279 -17 q 94 436 94 204 l 94 903 m 261 1144 l 672 1144 l 672 994 l 261 994 l 261 1144 z "},"Ŭ":{"ha":933,"x_min":94,"x_max":839,"o":"m 94 903 l 333 903 l 333 408 q 366 238 333 288 q 469 189 399 189 q 574 238 540 189 q 608 408 608 288 l 608 903 l 839 903 l 839 436 q 749 94 839 204 q 469 -17 658 -17 q 187 94 279 -17 q 94 436 94 204 l 94 903 m 467 972 q 325 1017 372 972 q 269 1144 278 1063 l 397 1144 q 419 1104 404 1119 q 467 1089 435 1089 q 514 1104 499 1089 q 536 1144 529 1119 l 664 1144 q 608 1017 656 1063 q 467 972 561 972 z "},"Ů":{"ha":933,"x_min":94,"x_max":839,"o":"m 94 903 l 333 903 l 333 408 q 366 238 333 288 q 469 189 399 189 q 574 238 540 189 q 608 408 608 288 l 608 903 l 839 903 l 839 436 q 749 94 839 204 q 469 -17 658 -17 q 187 94 279 -17 q 94 436 94 204 l 94 903 m 467 967 q 346 1005 392 967 q 300 1108 300 1043 q 346 1212 300 1174 q 467 1250 392 1250 q 588 1212 542 1250 q 633 1108 633 1174 q 588 1005 633 1043 q 467 967 542 967 m 467 1053 q 504 1068 489 1053 q 519 1108 519 1083 q 504 1149 519 1133 q 467 1164 489 1164 q 429 1149 444 1164 q 414 1108 414 1133 q 429 1068 414 1083 q 467 1053 444 1053 z "},"Ű":{"ha":933,"x_min":94,"x_max":839,"o":"m 94 903 l 333 903 l 333 408 q 366 238 333 288 q 469 189 399 189 q 574 238 540 189 q 608 408 608 288 l 608 903 l 839 903 l 839 436 q 749 94 839 204 q 469 -17 658 -17 q 187 94 279 -17 q 94 436 94 204 l 94 903 m 261 972 l 347 1144 l 547 1144 l 419 972 l 261 972 m 608 1144 l 808 1144 l 681 972 l 522 972 l 608 1144 z "},"Ǔ":{"ha":933,"x_min":94,"x_max":839,"o":"m 94 903 l 333 903 l 333 408 q 366 238 333 288 q 469 189 399 189 q 574 238 540 189 q 608 408 608 288 l 608 903 l 839 903 l 839 436 q 749 94 839 204 q 469 -17 658 -17 q 187 94 279 -17 q 94 436 94 204 l 94 903 m 717 1144 l 583 972 l 350 972 l 217 1144 l 397 1144 l 464 1064 l 469 1064 l 536 1144 l 717 1144 z "},"Ǖ":{"ha":933,"x_min":94,"x_max":839,"o":"m 94 903 l 333 903 l 333 408 q 366 238 333 288 q 469 189 399 189 q 574 238 540 189 q 608 408 608 288 l 608 903 l 839 903 l 839 436 q 749 94 839 204 q 469 -17 658 -17 q 187 94 279 -17 q 94 436 94 204 l 94 903 m 261 1325 l 672 1325 l 672 1217 l 261 1217 l 261 1325 m 322 964 q 254 991 281 964 q 228 1058 228 1018 q 254 1126 228 1099 q 322 1153 281 1153 q 390 1126 364 1153 q 417 1058 417 1099 q 390 991 417 1018 q 322 964 364 964 m 611 964 q 543 991 569 964 q 517 1058 517 1018 q 543 1126 517 1099 q 611 1153 569 1153 q 679 1126 653 1153 q 706 1058 706 1099 q 679 991 706 1018 q 611 964 653 964 z "},"Ǘ":{"ha":933,"x_min":94,"x_max":839,"o":"m 94 903 l 333 903 l 333 408 q 366 238 333 288 q 469 189 399 189 q 574 238 540 189 q 608 408 608 288 l 608 903 l 839 903 l 839 436 q 749 94 839 204 q 469 -17 658 -17 q 187 94 279 -17 q 94 436 94 204 l 94 903 m 458 1367 l 706 1367 l 539 1194 l 350 1194 l 458 1367 m 322 964 q 254 991 281 964 q 228 1058 228 1018 q 254 1126 228 1099 q 322 1153 281 1153 q 390 1126 364 1153 q 417 1058 417 1099 q 390 991 417 1018 q 322 964 364 964 m 611 964 q 543 991 569 964 q 517 1058 517 1018 q 543 1126 517 1099 q 611 1153 569 1153 q 679 1126 653 1153 q 706 1058 706 1099 q 679 991 706 1018 q 611 964 653 964 z "},"Ǚ":{"ha":933,"x_min":94,"x_max":839,"o":"m 94 903 l 333 903 l 333 408 q 366 238 333 288 q 469 189 399 189 q 574 238 540 189 q 608 408 608 288 l 608 903 l 839 903 l 839 436 q 749 94 839 204 q 469 -17 658 -17 q 187 94 279 -17 q 94 436 94 204 l 94 903 m 322 964 q 254 991 281 964 q 228 1058 228 1018 q 254 1126 228 1099 q 322 1153 281 1153 q 390 1126 364 1153 q 417 1058 417 1099 q 390 991 417 1018 q 322 964 364 964 m 611 964 q 543 991 569 964 q 517 1058 517 1018 q 543 1126 517 1099 q 611 1153 569 1153 q 679 1126 653 1153 q 706 1058 706 1099 q 679 991 706 1018 q 611 964 653 964 m 717 1367 l 583 1194 l 350 1194 l 217 1367 l 397 1367 l 464 1286 l 469 1286 l 536 1367 l 717 1367 z "},"Ǜ":{"ha":933,"x_min":94,"x_max":839,"o":"m 94 903 l 333 903 l 333 408 q 366 238 333 288 q 469 189 399 189 q 574 238 540 189 q 608 408 608 288 l 608 903 l 839 903 l 839 436 q 749 94 839 204 q 469 -17 658 -17 q 187 94 279 -17 q 94 436 94 204 l 94 903 m 583 1194 l 394 1194 l 228 1367 l 475 1367 l 583 1194 m 611 964 q 543 991 569 964 q 517 1058 517 1018 q 543 1126 517 1099 q 611 1153 569 1153 q 679 1126 653 1153 q 706 1058 706 1099 q 679 991 706 1018 q 611 964 653 964 m 322 964 q 254 991 281 964 q 228 1058 228 1018 q 254 1126 228 1099 q 322 1153 281 1153 q 390 1126 364 1153 q 417 1058 417 1099 q 390 991 417 1018 q 322 964 364 964 z "},"Ụ":{"ha":933,"x_min":94,"x_max":839,"o":"m 94 903 l 333 903 l 333 408 q 366 238 333 288 q 469 189 399 189 q 574 238 540 189 q 608 408 608 288 l 608 903 l 839 903 l 839 436 q 749 94 839 204 q 469 -17 658 -17 q 187 94 279 -17 q 94 436 94 204 l 94 903 m 467 -325 q 374 -292 410 -325 q 339 -206 339 -258 q 374 -119 339 -153 q 467 -86 410 -86 q 559 -119 524 -86 q 594 -206 594 -153 q 559 -292 594 -258 q 467 -325 524 -325 z "},"Ủ":{"ha":933,"x_min":94,"x_max":839,"o":"m 94 903 l 333 903 l 333 408 q 366 238 333 288 q 469 189 399 189 q 574 238 540 189 q 608 408 608 288 l 608 903 l 839 903 l 839 436 q 749 94 839 204 q 469 -17 658 -17 q 187 94 279 -17 q 94 436 94 204 l 94 903 m 397 1047 q 437 1057 421 1050 q 453 1081 453 1064 q 429 1108 453 1097 q 344 1122 406 1118 l 372 1239 q 492 1226 444 1236 q 569 1198 540 1215 q 610 1157 599 1181 q 622 1106 622 1133 q 606 1041 622 1068 q 560 995 589 1014 q 494 967 532 976 q 414 956 457 957 l 397 1047 z "},"Ų":{"ha":933,"x_min":94,"x_max":839,"o":"m 94 903 l 333 903 l 333 408 q 366 238 333 288 q 469 189 399 189 q 574 238 540 189 q 608 408 608 288 l 608 903 l 839 903 l 839 436 q 826 268 839 338 q 784 147 813 199 q 710 60 756 96 q 597 -6 664 24 q 524 -59 546 -29 q 503 -117 503 -89 q 520 -153 503 -142 q 558 -164 538 -164 q 583 -158 571 -164 q 606 -144 596 -151 l 658 -264 q 585 -302 629 -287 q 500 -317 540 -317 q 380 -281 429 -317 q 331 -181 331 -246 q 342 -119 331 -147 q 367 -70 353 -92 q 397 -35 382 -49 q 419 -14 413 -21 q 174 110 254 -1 q 94 436 94 221 l 94 903 z "},"Ư":{"ha":961,"x_min":94,"x_max":1019,"o":"m 975 1122 q 1006 1072 992 1103 q 1019 1003 1019 1040 q 1006 931 1019 963 q 967 877 992 900 q 910 840 943 854 q 839 818 878 825 l 839 436 q 749 94 839 204 q 469 -17 658 -17 q 187 94 279 -17 q 94 436 94 204 l 94 903 l 333 903 l 333 408 q 366 238 333 288 q 469 189 399 189 q 574 238 540 189 q 608 408 608 288 l 608 903 l 725 903 q 763 906 743 903 q 799 917 782 908 q 826 942 815 925 q 836 986 836 958 q 828 1024 836 1007 q 814 1053 821 1042 l 975 1122 z "},"Ứ":{"ha":961,"x_min":94,"x_max":1019,"o":"m 975 1122 q 1006 1072 992 1103 q 1019 1003 1019 1040 q 1006 931 1019 963 q 967 877 992 900 q 910 840 943 854 q 839 818 878 825 l 839 436 q 749 94 839 204 q 469 -17 658 -17 q 187 94 279 -17 q 94 436 94 204 l 94 903 l 333 903 l 333 408 q 366 238 333 288 q 469 189 399 189 q 574 238 540 189 q 608 408 608 288 l 608 903 l 725 903 q 763 906 743 903 q 799 917 782 908 q 826 942 815 925 q 836 986 836 958 q 828 1024 836 1007 q 814 1053 821 1042 l 975 1122 m 539 972 l 350 972 l 458 1144 l 708 1144 l 539 972 z "},"Ừ":{"ha":961,"x_min":94,"x_max":1019,"o":"m 975 1122 q 1006 1072 992 1103 q 1019 1003 1019 1040 q 1006 931 1019 963 q 967 877 992 900 q 910 840 943 854 q 839 818 878 825 l 839 436 q 749 94 839 204 q 469 -17 658 -17 q 187 94 279 -17 q 94 436 94 204 l 94 903 l 333 903 l 333 408 q 366 238 333 288 q 469 189 399 189 q 574 238 540 189 q 608 408 608 288 l 608 903 l 725 903 q 763 906 743 903 q 799 917 782 908 q 826 942 815 925 q 836 986 836 958 q 828 1024 836 1007 q 814 1053 821 1042 l 975 1122 m 225 1144 l 475 1144 l 583 972 l 394 972 l 225 1144 z "},"Ử":{"ha":961,"x_min":94,"x_max":1019,"o":"m 975 1122 q 1006 1072 992 1103 q 1019 1003 1019 1040 q 1006 931 1019 963 q 967 877 992 900 q 910 840 943 854 q 839 818 878 825 l 839 436 q 749 94 839 204 q 469 -17 658 -17 q 187 94 279 -17 q 94 436 94 204 l 94 903 l 333 903 l 333 408 q 366 238 333 288 q 469 189 399 189 q 574 238 540 189 q 608 408 608 288 l 608 903 l 725 903 q 763 906 743 903 q 799 917 782 908 q 826 942 815 925 q 836 986 836 958 q 828 1024 836 1007 q 814 1053 821 1042 l 975 1122 m 397 1047 q 437 1057 421 1050 q 453 1081 453 1064 q 429 1108 453 1097 q 344 1122 406 1118 l 372 1239 q 492 1226 444 1236 q 569 1198 540 1215 q 610 1157 599 1181 q 622 1106 622 1133 q 606 1041 622 1068 q 560 995 589 1014 q 494 967 532 976 q 414 956 457 957 l 397 1047 z "},"Ữ":{"ha":961,"x_min":94,"x_max":1019,"o":"m 975 1122 q 1006 1072 992 1103 q 1019 1003 1019 1040 q 1006 931 1019 963 q 967 877 992 900 q 910 840 943 854 q 839 818 878 825 l 839 436 q 749 94 839 204 q 469 -17 658 -17 q 187 94 279 -17 q 94 436 94 204 l 94 903 l 333 903 l 333 408 q 366 238 333 288 q 469 189 399 189 q 574 238 540 189 q 608 408 608 288 l 608 903 l 725 903 q 763 906 743 903 q 799 917 782 908 q 826 942 815 925 q 836 986 836 958 q 828 1024 836 1007 q 814 1053 821 1042 l 975 1122 m 556 972 q 503 981 528 972 q 458 1001 479 990 q 420 1022 438 1013 q 389 1031 403 1031 q 358 1018 372 1031 q 336 972 344 1006 l 217 972 q 275 1126 229 1078 q 378 1175 321 1175 q 430 1166 406 1175 q 475 1146 454 1157 q 513 1126 496 1135 q 544 1117 529 1117 q 575 1129 561 1117 q 597 1175 589 1142 l 717 1175 q 694 1084 710 1122 q 658 1021 679 1046 q 610 984 636 996 q 556 972 583 972 z "},"Ự":{"ha":961,"x_min":94,"x_max":1019,"o":"m 975 1122 q 1006 1072 992 1103 q 1019 1003 1019 1040 q 1006 931 1019 963 q 967 877 992 900 q 910 840 943 854 q 839 818 878 825 l 839 436 q 749 94 839 204 q 469 -17 658 -17 q 187 94 279 -17 q 94 436 94 204 l 94 903 l 333 903 l 333 408 q 366 238 333 288 q 469 189 399 189 q 574 238 540 189 q 608 408 608 288 l 608 903 l 725 903 q 763 906 743 903 q 799 917 782 908 q 826 942 815 925 q 836 986 836 958 q 828 1024 836 1007 q 814 1053 821 1042 l 975 1122 m 467 -325 q 374 -292 410 -325 q 339 -206 339 -258 q 374 -119 339 -153 q 467 -86 410 -86 q 559 -119 524 -86 q 594 -206 594 -153 q 559 -292 594 -258 q 467 -325 524 -325 z "},"Ẁ":{"ha":1144,"x_min":14,"x_max":1131,"o":"m 14 903 l 258 903 l 308 508 q 324 367 315 438 q 339 225 332 296 l 344 225 q 369 367 357 296 q 394 508 382 438 l 481 903 l 681 903 l 767 508 q 792 369 779 440 q 817 225 804 297 l 822 225 q 838 368 829 297 q 853 508 846 439 l 903 903 l 1131 903 l 981 0 l 678 0 l 608 358 q 590 465 597 411 q 575 569 582 519 l 569 569 q 555 465 563 519 q 536 358 547 411 l 469 0 l 172 0 l 14 903 m 331 1144 l 581 1144 l 689 972 l 500 972 l 331 1144 z "},"Ẃ":{"ha":1144,"x_min":14,"x_max":1131,"o":"m 14 903 l 258 903 l 308 508 q 324 367 315 438 q 339 225 332 296 l 344 225 q 369 367 357 296 q 394 508 382 438 l 481 903 l 681 903 l 767 508 q 792 369 779 440 q 817 225 804 297 l 822 225 q 838 368 829 297 q 853 508 846 439 l 903 903 l 1131 903 l 981 0 l 678 0 l 608 358 q 590 465 597 411 q 575 569 582 519 l 569 569 q 555 465 563 519 q 536 358 547 411 l 469 0 l 172 0 l 14 903 m 644 972 l 456 972 l 564 1144 l 814 1144 l 644 972 z "},"Ŵ":{"ha":1144,"x_min":14,"x_max":1131,"o":"m 14 903 l 258 903 l 308 508 q 324 367 315 438 q 339 225 332 296 l 344 225 q 369 367 357 296 q 394 508 382 438 l 481 903 l 681 903 l 767 508 q 792 369 779 440 q 817 225 804 297 l 822 225 q 838 368 829 297 q 853 508 846 439 l 903 903 l 1131 903 l 981 0 l 678 0 l 608 358 q 590 465 597 411 q 575 569 582 519 l 569 569 q 555 465 563 519 q 536 358 547 411 l 469 0 l 172 0 l 14 903 m 322 972 l 456 1144 l 689 1144 l 822 972 l 642 972 l 575 1053 l 569 1053 l 503 972 l 322 972 z "},"Ẅ":{"ha":1144,"x_min":14,"x_max":1131,"o":"m 14 903 l 258 903 l 308 508 q 324 367 315 438 q 339 225 332 296 l 344 225 q 369 367 357 296 q 394 508 382 438 l 481 903 l 681 903 l 767 508 q 792 369 779 440 q 817 225 804 297 l 822 225 q 838 368 829 297 q 853 508 846 439 l 903 903 l 1131 903 l 981 0 l 678 0 l 608 358 q 590 465 597 411 q 575 569 582 519 l 569 569 q 555 465 563 519 q 536 358 547 411 l 469 0 l 172 0 l 14 903 m 428 964 q 349 995 379 964 q 319 1072 319 1026 q 349 1149 319 1118 q 428 1181 379 1181 q 506 1149 476 1181 q 536 1072 536 1118 q 506 995 536 1026 q 428 964 476 964 m 717 964 q 638 995 668 964 q 608 1072 608 1026 q 638 1149 608 1118 q 717 1181 668 1181 q 795 1149 765 1181 q 825 1072 825 1118 q 795 995 825 1026 q 717 964 765 964 z "},"Ỳ":{"ha":756,"x_min":-14,"x_max":769,"o":"m 258 311 l -14 903 l 242 903 l 308 714 q 342 614 325 663 q 376 513 358 565 l 382 513 q 417 614 400 565 q 453 714 435 663 l 519 903 l 769 903 l 497 311 l 497 0 l 258 0 l 258 311 m 136 1144 l 386 1144 l 494 972 l 306 972 l 136 1144 z "},"Ý":{"ha":756,"x_min":-14,"x_max":769,"o":"m 258 311 l -14 903 l 242 903 l 308 714 q 342 614 325 663 q 376 513 358 565 l 382 513 q 417 614 400 565 q 453 714 435 663 l 519 903 l 769 903 l 497 311 l 497 0 l 258 0 l 258 311 m 450 972 l 261 972 l 369 1144 l 619 1144 l 450 972 z "},"Ŷ":{"ha":756,"x_min":-14,"x_max":769,"o":"m 258 311 l -14 903 l 242 903 l 308 714 q 342 614 325 663 q 376 513 358 565 l 382 513 q 417 614 400 565 q 453 714 435 663 l 519 903 l 769 903 l 497 311 l 497 0 l 258 0 l 258 311 m 128 972 l 261 1144 l 494 1144 l 628 972 l 447 972 l 381 1053 l 375 1053 l 308 972 l 128 972 z "},"Ÿ":{"ha":756,"x_min":-14,"x_max":769,"o":"m 258 311 l -14 903 l 242 903 l 308 714 q 342 614 325 663 q 376 513 358 565 l 382 513 q 417 614 400 565 q 453 714 435 663 l 519 903 l 769 903 l 497 311 l 497 0 l 258 0 l 258 311 m 233 964 q 155 995 185 964 q 125 1072 125 1026 q 155 1149 125 1118 q 233 1181 185 1181 q 312 1149 282 1181 q 342 1072 342 1118 q 312 995 342 1026 q 233 964 282 964 m 522 964 q 444 995 474 964 q 414 1072 414 1026 q 444 1149 414 1118 q 522 1181 474 1181 q 601 1149 571 1181 q 631 1072 631 1118 q 601 995 631 1026 q 522 964 571 964 z "},"Ẏ":{"ha":756,"x_min":-14,"x_max":769,"o":"m 258 311 l -14 903 l 242 903 l 308 714 q 342 614 325 663 q 376 513 358 565 l 382 513 q 417 614 400 565 q 453 714 435 663 l 519 903 l 769 903 l 497 311 l 497 0 l 258 0 l 258 311 m 378 967 q 282 1000 319 967 q 244 1086 244 1033 q 282 1172 244 1139 q 378 1206 319 1206 q 474 1172 436 1206 q 511 1086 511 1139 q 474 1000 511 1033 q 378 967 436 967 z "},"Ỵ":{"ha":756,"x_min":-14,"x_max":769,"o":"m 258 311 l -14 903 l 242 903 l 308 714 q 342 614 325 663 q 376 513 358 565 l 382 513 q 417 614 400 565 q 453 714 435 663 l 519 903 l 769 903 l 497 311 l 497 0 l 258 0 l 258 311 m 381 -325 q 288 -292 324 -325 q 253 -206 253 -258 q 288 -119 253 -153 q 381 -86 324 -86 q 473 -119 438 -86 q 508 -206 508 -153 q 473 -292 508 -258 q 381 -325 438 -325 z "},"Ỷ":{"ha":756,"x_min":-14,"x_max":769,"o":"m 258 311 l -14 903 l 242 903 l 308 714 q 342 614 325 663 q 376 513 358 565 l 382 513 q 417 614 400 565 q 453 714 435 663 l 519 903 l 769 903 l 497 311 l 497 0 l 258 0 l 258 311 m 308 1047 q 348 1057 332 1050 q 364 1081 364 1064 q 340 1108 364 1097 q 256 1122 317 1118 l 283 1239 q 403 1226 356 1236 q 481 1198 451 1215 q 522 1157 510 1181 q 533 1106 533 1133 q 517 1041 533 1068 q 472 995 500 1014 q 406 967 443 976 q 325 956 368 957 l 308 1047 z "},"Ỹ":{"ha":756,"x_min":-14,"x_max":769,"o":"m 258 311 l -14 903 l 242 903 l 308 714 q 342 614 325 663 q 376 513 358 565 l 382 513 q 417 614 400 565 q 453 714 435 663 l 519 903 l 769 903 l 497 311 l 497 0 l 258 0 l 258 311 m 467 972 q 415 981 439 972 q 369 1001 390 990 q 331 1022 349 1013 q 300 1031 314 1031 q 269 1018 283 1031 q 247 972 256 1006 l 128 972 q 186 1126 140 1078 q 289 1175 232 1175 q 341 1166 317 1175 q 386 1146 365 1157 q 424 1126 407 1135 q 456 1117 440 1117 q 486 1129 472 1117 q 508 1175 500 1142 l 628 1175 q 606 1084 621 1122 q 569 1021 590 1046 q 521 984 547 996 q 467 972 494 972 z "},"Ź":{"ha":753,"x_min":44,"x_max":711,"o":"m 44 144 l 414 703 l 81 703 l 81 903 l 708 903 l 708 758 l 339 200 l 711 200 l 711 0 l 44 0 l 44 144 m 467 972 l 278 972 l 386 1144 l 636 1144 l 467 972 z "},"Ž":{"ha":753,"x_min":44,"x_max":711,"o":"m 44 144 l 414 703 l 81 703 l 81 903 l 708 903 l 708 758 l 339 200 l 711 200 l 711 0 l 44 0 l 44 144 m 644 1144 l 511 972 l 278 972 l 144 1144 l 325 1144 l 392 1064 l 397 1064 l 464 1144 l 644 1144 z "},"Ż":{"ha":753,"x_min":44,"x_max":711,"o":"m 44 144 l 414 703 l 81 703 l 81 903 l 708 903 l 708 758 l 339 200 l 711 200 l 711 0 l 44 0 l 44 144 m 394 967 q 299 1000 336 967 q 261 1086 261 1033 q 299 1172 261 1139 q 394 1206 336 1206 q 490 1172 453 1206 q 528 1086 528 1139 q 490 1000 528 1033 q 394 967 453 967 z "},"Ẓ":{"ha":753,"x_min":44,"x_max":711,"o":"m 44 144 l 414 703 l 81 703 l 81 903 l 708 903 l 708 758 l 339 200 l 711 200 l 711 0 l 44 0 l 44 144 m 392 -325 q 299 -292 335 -325 q 264 -206 264 -258 q 299 -119 264 -153 q 392 -86 335 -86 q 484 -119 449 -86 q 519 -206 519 -153 q 484 -292 519 -258 q 392 -325 449 -325 z "},"Ð":{"ha":928,"x_min":33,"x_max":867,"o":"m 389 192 q 481 203 438 192 q 555 244 524 215 q 604 325 586 274 q 622 456 622 376 q 604 585 622 535 q 555 663 586 635 q 481 701 524 690 q 389 711 438 711 l 375 711 l 375 519 l 536 519 l 536 408 l 375 408 l 375 192 l 389 192 m 403 903 q 591 878 506 903 q 738 799 676 853 q 833 660 799 744 q 867 456 867 575 q 833 250 867 336 q 740 108 800 164 q 597 26 679 53 q 417 0 514 0 l 136 0 l 136 408 l 33 408 l 33 511 l 136 519 l 136 903 l 403 903 z "},"Þ":{"ha":875,"x_min":100,"x_max":811,"o":"m 100 903 l 339 903 l 339 772 l 450 772 q 588 758 522 772 q 703 708 654 743 q 782 615 753 672 q 811 472 811 557 q 781 329 811 389 q 701 231 751 269 q 586 174 651 193 q 450 156 521 156 l 339 156 l 339 0 l 100 0 l 100 903 m 439 344 q 544 378 510 344 q 578 472 578 411 q 542 558 578 533 q 439 583 506 583 l 339 583 l 339 344 l 439 344 z "},"Ə":{"ha":950,"x_min":67,"x_max":889,"o":"m 311 356 q 365 219 319 261 q 475 178 410 178 q 582 222 536 178 q 644 356 628 265 l 311 356 m 153 806 q 290 888 210 856 q 481 919 369 919 q 644 888 569 919 q 774 797 719 857 q 858 651 828 738 q 889 453 889 564 q 858 254 889 342 q 773 106 828 167 q 642 15 718 46 q 475 -17 565 -17 q 310 14 385 -17 q 181 103 235 44 q 97 249 126 163 q 67 447 67 336 q 68 487 67 467 q 72 528 69 507 l 649 528 q 450 725 621 725 q 342 699 388 725 q 261 642 297 674 l 153 806 z "},"à":{"ha":753,"x_min":58,"x_max":675,"o":"m 58 197 q 147 367 58 306 q 436 450 236 429 q 339 522 428 522 q 260 508 301 522 q 164 464 218 493 l 81 619 q 229 688 154 664 q 386 711 304 711 q 598 634 521 711 q 675 386 675 557 l 675 0 l 481 0 l 464 67 l 458 67 q 370 6 417 29 q 267 -17 324 -17 q 179 1 218 -17 q 113 47 140 18 q 72 115 86 76 q 58 197 58 154 m 286 217 q 350 167 286 167 q 398 180 379 167 q 436 214 417 193 l 436 308 q 318 271 350 296 q 286 217 286 246 m 168 1011 l 396 1011 l 518 797 l 346 797 l 168 1011 z "},"á":{"ha":753,"x_min":58,"x_max":675,"o":"m 58 197 q 147 367 58 306 q 436 450 236 429 q 339 522 428 522 q 260 508 301 522 q 164 464 218 493 l 81 619 q 229 688 154 664 q 386 711 304 711 q 598 634 521 711 q 675 386 675 557 l 675 0 l 481 0 l 464 67 l 458 67 q 370 6 417 29 q 267 -17 324 -17 q 179 1 218 -17 q 113 47 140 18 q 72 115 86 76 q 58 197 58 154 m 286 217 q 350 167 286 167 q 398 180 379 167 q 436 214 417 193 l 436 308 q 318 271 350 296 q 286 217 286 246 m 446 797 l 274 797 l 396 1011 l 624 1011 l 446 797 z "},"â":{"ha":753,"x_min":58,"x_max":675,"o":"m 58 197 q 147 367 58 306 q 436 450 236 429 q 339 522 428 522 q 260 508 301 522 q 164 464 218 493 l 81 619 q 229 688 154 664 q 386 711 304 711 q 598 634 521 711 q 675 386 675 557 l 675 0 l 481 0 l 464 67 l 458 67 q 370 6 417 29 q 267 -17 324 -17 q 179 1 218 -17 q 113 47 140 18 q 72 115 86 76 q 58 197 58 154 m 286 217 q 350 167 286 167 q 398 180 379 167 q 436 214 417 193 l 436 308 q 318 271 350 296 q 286 217 286 246 m 301 1011 l 490 1011 l 624 797 l 465 797 l 399 900 l 393 900 l 326 797 l 168 797 l 301 1011 z "},"ã":{"ha":753,"x_min":58,"x_max":675,"o":"m 58 197 q 147 367 58 306 q 436 450 236 429 q 339 522 428 522 q 260 508 301 522 q 164 464 218 493 l 81 619 q 229 688 154 664 q 386 711 304 711 q 598 634 521 711 q 675 386 675 557 l 675 0 l 481 0 l 464 67 l 458 67 q 370 6 417 29 q 267 -17 324 -17 q 179 1 218 -17 q 113 47 140 18 q 72 115 86 76 q 58 197 58 154 m 286 217 q 350 167 286 167 q 398 180 379 167 q 436 214 417 193 l 436 308 q 318 271 350 296 q 286 217 286 246 m 151 797 q 207 952 164 904 q 307 1000 250 1000 q 359 991 335 1000 q 404 971 383 982 q 442 951 425 960 q 474 942 458 942 q 501 954 490 942 q 521 1000 513 967 l 640 1000 q 585 845 628 893 q 485 797 542 797 q 433 806 457 797 q 388 826 408 815 q 349 847 367 838 q 318 856 332 856 q 290 843 301 856 q 271 797 279 831 l 151 797 l 151 797 z "},"ä":{"ha":753,"x_min":58,"x_max":675,"o":"m 58 197 q 147 367 58 306 q 436 450 236 429 q 339 522 428 522 q 260 508 301 522 q 164 464 218 493 l 81 619 q 229 688 154 664 q 386 711 304 711 q 598 634 521 711 q 675 386 675 557 l 675 0 l 481 0 l 464 67 l 458 67 q 370 6 417 29 q 267 -17 324 -17 q 179 1 218 -17 q 113 47 140 18 q 72 115 86 76 q 58 197 58 154 m 286 217 q 350 167 286 167 q 398 180 379 167 q 436 214 417 193 l 436 308 q 318 271 350 296 q 286 217 286 246 m 251 783 q 173 815 203 783 q 143 892 143 846 q 173 969 143 938 q 251 1000 203 1000 q 330 969 300 1000 q 360 892 360 938 q 330 815 360 846 q 251 783 300 783 m 540 783 q 462 815 492 783 q 432 892 432 846 q 462 969 432 938 q 540 1000 492 1000 q 619 969 589 1000 q 649 892 649 938 q 619 815 649 846 q 540 783 589 783 z "},"ā":{"ha":753,"x_min":58,"x_max":675,"o":"m 58 197 q 147 367 58 306 q 436 450 236 429 q 339 522 428 522 q 260 508 301 522 q 164 464 218 493 l 81 619 q 229 688 154 664 q 386 711 304 711 q 598 634 521 711 q 675 386 675 557 l 675 0 l 481 0 l 464 67 l 458 67 q 370 6 417 29 q 267 -17 324 -17 q 179 1 218 -17 q 113 47 140 18 q 72 115 86 76 q 58 197 58 154 m 286 217 q 350 167 286 167 q 398 180 379 167 q 436 214 417 193 l 436 308 q 318 271 350 296 q 286 217 286 246 m 196 967 l 596 967 l 596 817 l 196 817 l 196 967 z "},"ă":{"ha":753,"x_min":58,"x_max":675,"o":"m 58 197 q 147 367 58 306 q 436 450 236 429 q 339 522 428 522 q 260 508 301 522 q 164 464 218 493 l 81 619 q 229 688 154 664 q 386 711 304 711 q 598 634 521 711 q 675 386 675 557 l 675 0 l 481 0 l 464 67 l 458 67 q 370 6 417 29 q 267 -17 324 -17 q 179 1 218 -17 q 113 47 140 18 q 72 115 86 76 q 58 197 58 154 m 286 217 q 350 167 286 167 q 398 180 379 167 q 436 214 417 193 l 436 308 q 318 271 350 296 q 286 217 286 246 m 396 797 q 309 813 346 797 q 247 856 272 829 q 210 920 222 883 q 196 997 197 957 l 326 997 q 347 945 331 965 q 396 925 364 925 q 444 945 428 925 q 465 997 461 965 l 596 997 q 582 920 594 957 q 544 856 569 883 q 483 813 519 829 q 396 797 446 797 z "},"å":{"ha":753,"x_min":58,"x_max":675,"o":"m 58 197 q 147 367 58 306 q 436 450 236 429 q 339 522 428 522 q 260 508 301 522 q 164 464 218 493 l 81 619 q 229 688 154 664 q 386 711 304 711 q 598 634 521 711 q 675 386 675 557 l 675 0 l 481 0 l 464 67 l 458 67 q 370 6 417 29 q 267 -17 324 -17 q 179 1 218 -17 q 113 47 140 18 q 72 115 86 76 q 58 197 58 154 m 286 217 q 350 167 286 167 q 398 180 379 167 q 436 214 417 193 l 436 308 q 318 271 350 296 q 286 217 286 246 m 396 764 q 275 804 321 764 q 229 911 229 844 q 275 1018 229 978 q 396 1058 321 1058 q 517 1018 471 1058 q 563 911 563 978 q 517 804 563 844 q 396 764 471 764 m 396 850 q 433 867 418 850 q 449 911 449 883 q 433 956 449 939 q 396 972 418 972 q 358 956 374 972 q 343 911 343 939 q 358 867 343 883 q 396 850 374 850 z "},"ǎ":{"ha":753,"x_min":58,"x_max":675,"o":"m 58 197 q 147 367 58 306 q 436 450 236 429 q 339 522 428 522 q 260 508 301 522 q 164 464 218 493 l 81 619 q 229 688 154 664 q 386 711 304 711 q 598 634 521 711 q 675 386 675 557 l 675 0 l 481 0 l 464 67 l 458 67 q 370 6 417 29 q 267 -17 324 -17 q 179 1 218 -17 q 113 47 140 18 q 72 115 86 76 q 58 197 58 154 m 286 217 q 350 167 286 167 q 398 180 379 167 q 436 214 417 193 l 436 308 q 318 271 350 296 q 286 217 286 246 m 168 1011 l 326 1011 l 393 908 l 399 908 l 465 1011 l 624 1011 l 490 797 l 301 797 l 168 1011 z "},"ạ":{"ha":753,"x_min":58,"x_max":675,"o":"m 58 197 q 147 367 58 306 q 436 450 236 429 q 339 522 428 522 q 260 508 301 522 q 164 464 218 493 l 81 619 q 229 688 154 664 q 386 711 304 711 q 598 634 521 711 q 675 386 675 557 l 675 0 l 481 0 l 464 67 l 458 67 q 370 6 417 29 q 267 -17 324 -17 q 179 1 218 -17 q 113 47 140 18 q 72 115 86 76 q 58 197 58 154 m 286 217 q 350 167 286 167 q 398 180 379 167 q 436 214 417 193 l 436 308 q 318 271 350 296 q 286 217 286 246 m 372 -325 q 280 -292 315 -325 q 244 -206 244 -258 q 280 -119 244 -153 q 372 -86 315 -86 q 465 -119 429 -86 q 500 -206 500 -153 q 465 -292 500 -258 q 372 -325 429 -325 z "},"ả":{"ha":753,"x_min":58,"x_max":675,"o":"m 58 197 q 147 367 58 306 q 436 450 236 429 q 339 522 428 522 q 260 508 301 522 q 164 464 218 493 l 81 619 q 229 688 154 664 q 386 711 304 711 q 598 634 521 711 q 675 386 675 557 l 675 0 l 481 0 l 464 67 l 458 67 q 370 6 417 29 q 267 -17 324 -17 q 179 1 218 -17 q 113 47 140 18 q 72 115 86 76 q 58 197 58 154 m 286 217 q 350 167 286 167 q 398 180 379 167 q 436 214 417 193 l 436 308 q 318 271 350 296 q 286 217 286 246 m 326 867 q 366 876 350 869 q 382 900 382 883 q 358 927 382 917 q 274 942 335 938 l 301 1058 q 422 1045 374 1056 q 499 1017 469 1035 q 540 976 528 1000 q 551 925 551 953 q 535 860 551 888 q 490 815 518 833 q 424 786 461 796 q 343 775 386 776 l 326 867 z "},"ấ":{"ha":753,"x_min":58,"x_max":818,"o":"m 58 197 q 147 367 58 306 q 436 450 236 429 q 339 522 428 522 q 260 508 301 522 q 164 464 218 493 l 81 619 q 229 688 154 664 q 386 711 304 711 q 598 634 521 711 q 675 386 675 557 l 675 0 l 481 0 l 464 67 l 458 67 q 370 6 417 29 q 267 -17 324 -17 q 179 1 218 -17 q 113 47 140 18 q 72 115 86 76 q 58 197 58 154 m 286 217 q 350 167 286 167 q 398 180 379 167 q 436 214 417 193 l 436 308 q 318 271 350 296 q 286 217 286 246 m 301 981 l 490 981 l 601 797 l 457 797 l 399 883 l 393 883 l 335 797 l 190 797 l 301 981 m 646 1067 l 818 1067 l 685 900 l 554 900 l 646 1067 z "},"ầ":{"ha":753,"x_min":58,"x_max":768,"o":"m 58 197 q 147 367 58 306 q 436 450 236 429 q 339 522 428 522 q 260 508 301 522 q 164 464 218 493 l 81 619 q 229 688 154 664 q 386 711 304 711 q 598 634 521 711 q 675 386 675 557 l 675 0 l 481 0 l 464 67 l 458 67 q 370 6 417 29 q 267 -17 324 -17 q 179 1 218 -17 q 113 47 140 18 q 72 115 86 76 q 58 197 58 154 m 286 217 q 350 167 286 167 q 398 180 379 167 q 436 214 417 193 l 436 308 q 318 271 350 296 q 286 217 286 246 m 301 981 l 490 981 l 601 797 l 457 797 l 399 883 l 393 883 l 335 797 l 190 797 l 301 981 m 768 900 l 638 900 l 504 1067 l 676 1067 l 768 900 z "},"ẩ":{"ha":753,"x_min":58,"x_max":774,"o":"m 58 197 q 147 367 58 306 q 436 450 236 429 q 339 522 428 522 q 260 508 301 522 q 164 464 218 493 l 81 619 q 229 688 154 664 q 386 711 304 711 q 598 634 521 711 q 675 386 675 557 l 675 0 l 481 0 l 464 67 l 458 67 q 370 6 417 29 q 267 -17 324 -17 q 179 1 218 -17 q 113 47 140 18 q 72 115 86 76 q 58 197 58 154 m 286 217 q 350 167 286 167 q 398 180 379 167 q 436 214 417 193 l 436 308 q 318 271 350 296 q 286 217 286 246 m 301 981 l 490 981 l 601 797 l 457 797 l 399 883 l 393 883 l 335 797 l 190 797 l 301 981 m 585 950 q 611 960 601 953 q 621 983 621 967 q 603 1010 621 1000 q 532 1025 585 1021 l 554 1122 q 660 1110 618 1119 q 728 1087 703 1101 q 763 1052 753 1072 q 774 1008 774 1032 q 760 948 774 972 q 722 908 746 924 q 667 885 699 893 q 599 872 635 876 l 585 950 z "},"ẫ":{"ha":753,"x_min":58,"x_max":675,"o":"m 58 197 q 147 367 58 306 q 436 450 236 429 q 339 522 428 522 q 260 508 301 522 q 164 464 218 493 l 81 619 q 229 688 154 664 q 386 711 304 711 q 598 634 521 711 q 675 386 675 557 l 675 0 l 481 0 l 464 67 l 458 67 q 370 6 417 29 q 267 -17 324 -17 q 179 1 218 -17 q 113 47 140 18 q 72 115 86 76 q 58 197 58 154 m 286 217 q 350 167 286 167 q 398 180 379 167 q 436 214 417 193 l 436 308 q 318 271 350 296 q 286 217 286 246 m 288 956 l 504 956 l 613 797 l 460 797 l 399 875 l 393 875 l 332 797 l 179 797 l 288 956 m 185 1006 q 234 1136 196 1097 q 318 1175 272 1175 q 367 1167 346 1175 q 403 1150 388 1160 q 433 1133 419 1140 q 460 1125 446 1125 q 488 1136 476 1125 q 507 1175 500 1147 l 607 1175 q 558 1044 596 1083 q 474 1006 519 1006 q 425 1013 446 1006 q 388 1031 404 1021 q 359 1048 372 1040 q 332 1056 346 1056 q 303 1044 315 1056 q 285 1006 292 1033 l 185 1006 z "},"ậ":{"ha":753,"x_min":58,"x_max":675,"o":"m 58 197 q 147 367 58 306 q 436 450 236 429 q 339 522 428 522 q 260 508 301 522 q 164 464 218 493 l 81 619 q 229 688 154 664 q 386 711 304 711 q 598 634 521 711 q 675 386 675 557 l 675 0 l 481 0 l 464 67 l 458 67 q 370 6 417 29 q 267 -17 324 -17 q 179 1 218 -17 q 113 47 140 18 q 72 115 86 76 q 58 197 58 154 m 286 217 q 350 167 286 167 q 398 180 379 167 q 436 214 417 193 l 436 308 q 318 271 350 296 q 286 217 286 246 m 301 1011 l 490 1011 l 624 797 l 465 797 l 399 900 l 393 900 l 326 797 l 168 797 l 301 1011 m 372 -325 q 280 -292 315 -325 q 244 -206 244 -258 q 280 -119 244 -153 q 372 -86 315 -86 q 465 -119 429 -86 q 500 -206 500 -153 q 465 -292 500 -258 q 372 -325 429 -325 z "},"ắ":{"ha":753,"x_min":58,"x_max":675,"o":"m 58 197 q 147 367 58 306 q 436 450 236 429 q 339 522 428 522 q 260 508 301 522 q 164 464 218 493 l 81 619 q 229 688 154 664 q 386 711 304 711 q 598 634 521 711 q 675 386 675 557 l 675 0 l 481 0 l 464 67 l 458 67 q 370 6 417 29 q 267 -17 324 -17 q 179 1 218 -17 q 113 47 140 18 q 72 115 86 76 q 58 197 58 154 m 286 217 q 350 167 286 167 q 398 180 379 167 q 436 214 417 193 l 436 308 q 318 271 350 296 q 286 217 286 246 m 401 1136 l 568 1136 l 443 969 l 326 969 l 401 1136 m 396 797 q 309 813 346 797 q 247 856 272 829 q 210 920 222 883 q 196 997 197 957 l 299 997 q 328 935 306 960 q 396 911 351 911 q 463 935 440 911 q 493 997 486 960 l 596 997 q 582 920 594 957 q 544 856 569 883 q 483 813 519 829 q 396 797 446 797 z "},"ằ":{"ha":753,"x_min":58,"x_max":675,"o":"m 58 197 q 147 367 58 306 q 436 450 236 429 q 339 522 428 522 q 260 508 301 522 q 164 464 218 493 l 81 619 q 229 688 154 664 q 386 711 304 711 q 598 634 521 711 q 675 386 675 557 l 675 0 l 481 0 l 464 67 l 458 67 q 370 6 417 29 q 267 -17 324 -17 q 179 1 218 -17 q 113 47 140 18 q 72 115 86 76 q 58 197 58 154 m 286 217 q 350 167 286 167 q 398 180 379 167 q 436 214 417 193 l 436 308 q 318 271 350 296 q 286 217 286 246 m 465 969 l 349 969 l 224 1136 l 390 1136 l 465 969 m 396 797 q 309 813 346 797 q 247 856 272 829 q 210 920 222 883 q 196 997 197 957 l 299 997 q 328 935 306 960 q 396 911 351 911 q 463 935 440 911 q 493 997 486 960 l 596 997 q 582 920 594 957 q 544 856 569 883 q 483 813 519 829 q 396 797 446 797 z "},"ẳ":{"ha":753,"x_min":58,"x_max":675,"o":"m 58 197 q 147 367 58 306 q 436 450 236 429 q 339 522 428 522 q 260 508 301 522 q 164 464 218 493 l 81 619 q 229 688 154 664 q 386 711 304 711 q 598 634 521 711 q 675 386 675 557 l 675 0 l 481 0 l 464 67 l 458 67 q 370 6 417 29 q 267 -17 324 -17 q 179 1 218 -17 q 113 47 140 18 q 72 115 86 76 q 58 197 58 154 m 286 217 q 350 167 286 167 q 398 180 379 167 q 436 214 417 193 l 436 308 q 318 271 350 296 q 286 217 286 246 m 396 797 q 309 813 346 797 q 247 856 272 829 q 210 920 222 883 q 196 997 197 957 l 299 997 q 328 935 306 960 q 396 911 351 911 q 463 935 440 911 q 493 997 486 960 l 596 997 q 582 920 594 957 q 544 856 569 883 q 483 813 519 829 q 396 797 446 797 m 329 1054 q 356 1064 346 1057 q 365 1088 365 1071 q 347 1115 365 1104 q 276 1129 329 1125 l 299 1226 q 405 1215 363 1224 q 472 1191 447 1206 q 508 1156 497 1176 q 518 1113 518 1136 q 504 1052 518 1076 q 467 1013 490 1028 q 411 989 443 997 q 343 976 379 981 l 329 1054 z "},"ẵ":{"ha":753,"x_min":58,"x_max":675,"o":"m 58 197 q 147 367 58 306 q 436 450 236 429 q 339 522 428 522 q 260 508 301 522 q 164 464 218 493 l 81 619 q 229 688 154 664 q 386 711 304 711 q 598 634 521 711 q 675 386 675 557 l 675 0 l 481 0 l 464 67 l 458 67 q 370 6 417 29 q 267 -17 324 -17 q 179 1 218 -17 q 113 47 140 18 q 72 115 86 76 q 58 197 58 154 m 286 217 q 350 167 286 167 q 398 180 379 167 q 436 214 417 193 l 436 308 q 318 271 350 296 q 286 217 286 246 m 396 797 q 247 848 296 797 q 196 969 197 899 l 304 969 q 331 925 311 944 q 396 906 351 906 q 460 925 440 906 q 488 969 481 944 l 596 969 q 582 902 594 933 q 544 848 569 871 q 483 811 519 825 q 396 797 446 797 m 185 1006 q 234 1136 196 1097 q 318 1175 272 1175 q 367 1167 346 1175 q 403 1150 388 1160 q 433 1133 419 1140 q 460 1125 446 1125 q 488 1136 476 1125 q 507 1175 500 1147 l 607 1175 q 558 1044 596 1083 q 474 1006 519 1006 q 425 1013 446 1006 q 388 1031 404 1021 q 359 1048 372 1040 q 332 1056 346 1056 q 303 1044 315 1056 q 285 1006 292 1033 l 185 1006 z "},"ặ":{"ha":753,"x_min":58,"x_max":675,"o":"m 58 197 q 147 367 58 306 q 436 450 236 429 q 339 522 428 522 q 260 508 301 522 q 164 464 218 493 l 81 619 q 229 688 154 664 q 386 711 304 711 q 598 634 521 711 q 675 386 675 557 l 675 0 l 481 0 l 464 67 l 458 67 q 370 6 417 29 q 267 -17 324 -17 q 179 1 218 -17 q 113 47 140 18 q 72 115 86 76 q 58 197 58 154 m 286 217 q 350 167 286 167 q 398 180 379 167 q 436 214 417 193 l 436 308 q 318 271 350 296 q 286 217 286 246 m 396 797 q 309 813 346 797 q 247 856 272 829 q 210 920 222 883 q 196 997 197 957 l 326 997 q 347 945 331 965 q 396 925 364 925 q 444 945 428 925 q 465 997 461 965 l 596 997 q 582 920 594 957 q 544 856 569 883 q 483 813 519 829 q 396 797 446 797 m 372 -325 q 280 -292 315 -325 q 244 -206 244 -258 q 280 -119 244 -153 q 372 -86 315 -86 q 465 -119 429 -86 q 500 -206 500 -153 q 465 -292 500 -258 q 372 -325 429 -325 z "},"ą":{"ha":753,"x_min":58,"x_max":703,"o":"m 286 217 q 350 167 286 167 q 398 180 379 167 q 436 214 417 193 l 436 308 q 318 271 350 296 q 286 217 286 246 m 58 197 q 147 367 58 306 q 436 450 236 429 q 339 522 428 522 q 260 508 301 522 q 164 464 218 493 l 81 619 q 229 688 154 664 q 386 711 304 711 q 598 634 521 711 q 675 386 675 557 l 675 0 q 578 -48 604 -17 q 553 -108 553 -79 q 570 -144 553 -133 q 608 -156 588 -156 q 634 -151 621 -156 q 656 -139 647 -146 l 703 -244 q 630 -281 674 -268 q 550 -294 586 -294 q 440 -262 485 -294 q 394 -164 394 -229 q 404 -107 394 -133 q 428 -60 414 -81 q 458 -26 443 -40 q 483 -6 472 -12 l 464 67 l 458 67 q 370 6 417 29 q 267 -17 324 -17 q 179 1 218 -17 q 113 47 140 18 q 72 115 86 76 q 58 197 58 154 z "},"æ":{"ha":1092,"x_min":58,"x_max":1042,"o":"m 286 217 q 350 167 286 167 q 405 178 381 167 q 450 208 429 189 q 433 282 438 246 l 431 308 q 319 272 351 296 q 286 217 286 247 m 81 619 q 226 688 154 664 q 372 711 297 711 q 482 688 433 711 q 564 622 531 664 q 656 689 610 667 q 761 711 703 711 q 885 684 832 711 q 972 610 938 657 q 1024 501 1007 564 q 1042 369 1042 439 q 1038 313 1042 338 q 1032 275 1035 288 l 650 275 q 705 193 665 217 q 797 169 744 169 q 866 183 833 169 q 936 217 899 196 l 1017 64 q 891 3 960 24 q 764 -17 822 -17 q 631 10 690 -17 q 528 83 572 36 q 458 35 490 54 q 394 5 425 17 q 333 -12 364 -7 q 267 -17 301 -17 q 179 1 218 -17 q 113 47 140 18 q 72 115 86 76 q 58 197 58 154 q 146 368 58 306 q 433 451 233 431 q 408 505 429 488 q 339 522 386 522 q 260 508 301 522 q 164 464 218 493 l 81 619 m 839 419 q 820 498 839 465 q 753 531 801 531 q 685 506 713 531 q 650 419 658 481 l 839 419 z "},"ç":{"ha":656,"x_min":44,"x_max":628,"o":"m 44 347 q 75 501 44 433 q 157 616 106 569 q 276 687 208 663 q 417 711 343 711 q 531 690 479 711 q 619 633 583 669 l 511 486 q 469 513 488 506 q 431 519 450 519 q 326 473 364 519 q 289 347 289 426 q 327 222 289 268 q 422 175 365 175 q 483 189 456 175 q 533 219 510 203 l 628 69 q 512 3 575 24 q 394 -17 449 -17 q 257 8 321 -17 q 146 78 193 32 q 72 193 99 125 q 44 347 44 261 m 335 6 l 471 6 l 446 -56 q 504 -92 482 -68 q 526 -161 526 -117 q 505 -226 526 -199 q 447 -272 483 -253 q 363 -300 411 -290 q 263 -311 315 -310 l 246 -219 q 326 -202 294 -215 q 357 -161 357 -189 q 342 -132 357 -146 q 279 -106 328 -118 l 335 6 z "},"ć":{"ha":656,"x_min":44,"x_max":638,"o":"m 44 347 q 75 501 44 433 q 157 616 106 569 q 276 687 208 663 q 417 711 343 711 q 531 690 479 711 q 619 633 583 669 l 511 486 q 469 513 488 506 q 431 519 450 519 q 326 473 364 519 q 289 347 289 426 q 327 222 289 268 q 422 175 365 175 q 483 189 456 175 q 533 219 510 203 l 628 69 q 512 3 575 24 q 394 -17 449 -17 q 257 8 321 -17 q 146 78 193 32 q 72 193 99 125 q 44 347 44 261 m 460 797 l 288 797 l 410 1011 l 638 1011 l 460 797 z "},"ĉ":{"ha":656,"x_min":44,"x_max":638,"o":"m 44 347 q 75 501 44 433 q 157 616 106 569 q 276 687 208 663 q 417 711 343 711 q 531 690 479 711 q 619 633 583 669 l 511 486 q 469 513 488 506 q 431 519 450 519 q 326 473 364 519 q 289 347 289 426 q 327 222 289 268 q 422 175 365 175 q 483 189 456 175 q 533 219 510 203 l 628 69 q 512 3 575 24 q 394 -17 449 -17 q 257 8 321 -17 q 146 78 193 32 q 72 193 99 125 q 44 347 44 261 m 315 1011 l 504 1011 l 638 797 l 479 797 l 413 900 l 407 900 l 340 797 l 182 797 l 315 1011 z "},"č":{"ha":656,"x_min":44,"x_max":638,"o":"m 44 347 q 75 501 44 433 q 157 616 106 569 q 276 687 208 663 q 417 711 343 711 q 531 690 479 711 q 619 633 583 669 l 511 486 q 469 513 488 506 q 431 519 450 519 q 326 473 364 519 q 289 347 289 426 q 327 222 289 268 q 422 175 365 175 q 483 189 456 175 q 533 219 510 203 l 628 69 q 512 3 575 24 q 394 -17 449 -17 q 257 8 321 -17 q 146 78 193 32 q 72 193 99 125 q 44 347 44 261 m 182 1011 l 340 1011 l 407 908 l 413 908 l 479 1011 l 638 1011 l 504 797 l 315 797 l 182 1011 z "},"ċ":{"ha":656,"x_min":44,"x_max":628,"o":"m 44 347 q 75 501 44 433 q 157 616 106 569 q 276 687 208 663 q 417 711 343 711 q 531 690 479 711 q 619 633 583 669 l 511 486 q 469 513 488 506 q 431 519 450 519 q 326 473 364 519 q 289 347 289 426 q 327 222 289 268 q 422 175 365 175 q 483 189 456 175 q 533 219 510 203 l 628 69 q 512 3 575 24 q 394 -17 449 -17 q 257 8 321 -17 q 146 78 193 32 q 72 193 99 125 q 44 347 44 261 m 410 781 q 317 814 353 781 q 282 900 282 847 q 317 986 282 953 q 410 1019 353 1019 q 502 986 467 1019 q 538 900 538 953 q 502 814 538 847 q 410 781 467 781 z "},"ď":{"ha":875,"x_min":50,"x_max":919,"o":"m 50 347 q 74 500 50 432 q 138 615 99 568 q 229 686 178 661 q 333 711 281 711 q 426 692 390 711 q 494 642 463 674 l 486 742 l 486 967 l 725 967 l 725 0 l 531 0 l 514 64 l 508 64 q 426 6 472 28 q 333 -17 379 -17 q 216 8 268 -17 q 127 81 164 33 q 70 195 90 128 q 50 347 50 263 m 294 350 q 322 217 294 256 q 397 178 349 178 q 446 188 425 178 q 486 228 467 199 l 486 483 q 440 510 465 503 q 392 517 415 517 q 324 479 354 517 q 294 350 294 442 m 778 761 l 769 1075 l 919 1075 l 917 972 l 878 761 l 778 761 z "},"ḍ":{"ha":806,"x_min":50,"x_max":725,"o":"m 50 347 q 74 500 50 432 q 138 615 99 568 q 229 686 178 661 q 333 711 281 711 q 426 692 390 711 q 494 642 463 674 l 486 742 l 486 967 l 725 967 l 725 0 l 531 0 l 514 64 l 508 64 q 426 6 472 28 q 333 -17 379 -17 q 216 8 268 -17 q 127 81 164 33 q 70 195 90 128 q 50 347 50 263 m 294 350 q 322 217 294 256 q 397 178 349 178 q 446 188 425 178 q 486 228 467 199 l 486 483 q 440 510 465 503 q 392 517 415 517 q 324 479 354 517 q 294 350 294 442 m 439 -325 q 347 -292 382 -325 q 311 -206 311 -258 q 347 -119 311 -153 q 439 -86 382 -86 q 531 -119 496 -86 q 567 -206 567 -153 q 531 -292 567 -258 q 439 -325 496 -325 z "},"ḏ":{"ha":806,"x_min":50,"x_max":725,"o":"m 50 347 q 74 500 50 432 q 138 615 99 568 q 229 686 178 661 q 333 711 281 711 q 426 692 390 711 q 494 642 463 674 l 486 742 l 486 967 l 725 967 l 725 0 l 531 0 l 514 64 l 508 64 q 426 6 472 28 q 333 -17 379 -17 q 216 8 268 -17 q 127 81 164 33 q 70 195 90 128 q 50 347 50 263 m 294 350 q 322 217 294 256 q 397 178 349 178 q 446 188 425 178 q 486 228 467 199 l 486 483 q 440 510 465 503 q 392 517 415 517 q 324 479 354 517 q 294 350 294 442 m 639 -272 l 239 -272 l 239 -122 l 639 -122 l 639 -272 z "},"đ":{"ha":806,"x_min":50,"x_max":817,"o":"m 486 456 q 440 482 465 475 q 392 489 415 489 q 324 455 354 489 q 294 336 294 421 q 322 213 294 247 q 397 178 349 178 q 446 188 425 178 q 486 228 467 199 l 486 456 m 817 772 l 725 765 l 725 0 l 525 0 l 511 56 l 506 56 q 426 3 471 22 q 333 -17 382 -17 q 216 7 268 -17 q 127 76 164 31 q 70 186 90 121 q 50 333 50 251 q 74 479 50 414 q 138 590 99 544 q 229 659 178 635 q 333 683 281 683 q 426 665 390 683 q 494 614 463 646 l 486 714 l 486 764 l 286 764 l 286 875 l 486 875 l 486 967 l 725 967 l 725 875 l 817 875 l 817 772 z "},"è":{"ha":731,"x_min":44,"x_max":681,"o":"m 44 347 q 73 499 44 432 q 148 614 101 567 q 254 686 194 661 q 378 711 314 711 q 511 685 454 711 q 606 613 568 658 q 662 506 643 567 q 681 375 681 444 q 677 318 681 343 q 671 281 674 293 l 275 281 q 335 189 292 214 q 436 164 378 164 q 506 174 472 164 q 578 206 540 185 l 656 64 q 530 3 599 24 q 403 -17 461 -17 q 261 8 326 -17 q 148 78 196 32 q 72 193 100 125 q 44 347 44 261 m 478 425 q 458 500 478 469 q 383 531 438 531 q 313 507 343 531 q 272 425 283 483 l 478 425 m 150 1011 l 378 1011 l 500 797 l 328 797 l 150 1011 z "},"é":{"ha":731,"x_min":44,"x_max":681,"o":"m 44 347 q 73 499 44 432 q 148 614 101 567 q 254 686 194 661 q 378 711 314 711 q 511 685 454 711 q 606 613 568 658 q 662 506 643 567 q 681 375 681 444 q 677 318 681 343 q 671 281 674 293 l 275 281 q 335 189 292 214 q 436 164 378 164 q 506 174 472 164 q 578 206 540 185 l 656 64 q 530 3 599 24 q 403 -17 461 -17 q 261 8 326 -17 q 148 78 196 32 q 72 193 100 125 q 44 347 44 261 m 478 425 q 458 500 478 469 q 383 531 438 531 q 313 507 343 531 q 272 425 283 483 l 478 425 m 428 797 l 256 797 l 378 1011 l 606 1011 l 428 797 z "},"ê":{"ha":731,"x_min":44,"x_max":681,"o":"m 44 347 q 73 499 44 432 q 148 614 101 567 q 254 686 194 661 q 378 711 314 711 q 511 685 454 711 q 606 613 568 658 q 662 506 643 567 q 681 375 681 444 q 677 318 681 343 q 671 281 674 293 l 275 281 q 335 189 292 214 q 436 164 378 164 q 506 174 472 164 q 578 206 540 185 l 656 64 q 530 3 599 24 q 403 -17 461 -17 q 261 8 326 -17 q 148 78 196 32 q 72 193 100 125 q 44 347 44 261 m 478 425 q 458 500 478 469 q 383 531 438 531 q 313 507 343 531 q 272 425 283 483 l 478 425 m 283 1011 l 472 1011 l 606 797 l 447 797 l 381 900 l 375 900 l 308 797 l 150 797 l 283 1011 z "},"ě":{"ha":731,"x_min":44,"x_max":681,"o":"m 44 347 q 73 499 44 432 q 148 614 101 567 q 254 686 194 661 q 378 711 314 711 q 511 685 454 711 q 606 613 568 658 q 662 506 643 567 q 681 375 681 444 q 677 318 681 343 q 671 281 674 293 l 275 281 q 335 189 292 214 q 436 164 378 164 q 506 174 472 164 q 578 206 540 185 l 656 64 q 530 3 599 24 q 403 -17 461 -17 q 261 8 326 -17 q 148 78 196 32 q 72 193 100 125 q 44 347 44 261 m 478 425 q 458 500 478 469 q 383 531 438 531 q 313 507 343 531 q 272 425 283 483 l 478 425 m 150 1011 l 308 1011 l 375 908 l 381 908 l 447 1011 l 606 1011 l 472 797 l 283 797 l 150 1011 z "},"ë":{"ha":731,"x_min":44,"x_max":681,"o":"m 44 347 q 73 499 44 432 q 148 614 101 567 q 254 686 194 661 q 378 711 314 711 q 511 685 454 711 q 606 613 568 658 q 662 506 643 567 q 681 375 681 444 q 677 318 681 343 q 671 281 674 293 l 275 281 q 335 189 292 214 q 436 164 378 164 q 506 174 472 164 q 578 206 540 185 l 656 64 q 530 3 599 24 q 403 -17 461 -17 q 261 8 326 -17 q 148 78 196 32 q 72 193 100 125 q 44 347 44 261 m 478 425 q 458 500 478 469 q 383 531 438 531 q 313 507 343 531 q 272 425 283 483 l 478 425 m 233 783 q 155 815 185 783 q 125 892 125 846 q 155 969 125 938 q 233 1000 185 1000 q 312 969 282 1000 q 342 892 342 938 q 312 815 342 846 q 233 783 282 783 m 522 783 q 444 815 474 783 q 414 892 414 846 q 444 969 414 938 q 522 1000 474 1000 q 601 969 571 1000 q 631 892 631 938 q 601 815 631 846 q 522 783 571 783 z "},"ē":{"ha":731,"x_min":44,"x_max":681,"o":"m 44 347 q 73 499 44 432 q 148 614 101 567 q 254 686 194 661 q 378 711 314 711 q 511 685 454 711 q 606 613 568 658 q 662 506 643 567 q 681 375 681 444 q 677 318 681 343 q 671 281 674 293 l 275 281 q 335 189 292 214 q 436 164 378 164 q 506 174 472 164 q 578 206 540 185 l 656 64 q 530 3 599 24 q 403 -17 461 -17 q 261 8 326 -17 q 148 78 196 32 q 72 193 100 125 q 44 347 44 261 m 478 425 q 458 500 478 469 q 383 531 438 531 q 313 507 343 531 q 272 425 283 483 l 478 425 m 178 967 l 578 967 l 578 817 l 178 817 l 178 967 z "},"ĕ":{"ha":731,"x_min":44,"x_max":681,"o":"m 44 347 q 73 499 44 432 q 148 614 101 567 q 254 686 194 661 q 378 711 314 711 q 511 685 454 711 q 606 613 568 658 q 662 506 643 567 q 681 375 681 444 q 677 318 681 343 q 671 281 674 293 l 275 281 q 335 189 292 214 q 436 164 378 164 q 506 174 472 164 q 578 206 540 185 l 656 64 q 530 3 599 24 q 403 -17 461 -17 q 261 8 326 -17 q 148 78 196 32 q 72 193 100 125 q 44 347 44 261 m 478 425 q 458 500 478 469 q 383 531 438 531 q 313 507 343 531 q 272 425 283 483 l 478 425 m 378 797 q 291 813 328 797 q 229 856 254 829 q 192 920 204 883 q 178 997 179 957 l 308 997 q 329 945 313 965 q 378 925 346 925 q 426 945 410 925 q 447 997 443 965 l 578 997 q 564 920 576 957 q 526 856 551 883 q 465 813 501 829 q 378 797 428 797 z "},"ė":{"ha":731,"x_min":44,"x_max":681,"o":"m 44 347 q 73 499 44 432 q 148 614 101 567 q 254 686 194 661 q 378 711 314 711 q 511 685 454 711 q 606 613 568 658 q 662 506 643 567 q 681 375 681 444 q 677 318 681 343 q 671 281 674 293 l 275 281 q 335 189 292 214 q 436 164 378 164 q 506 174 472 164 q 578 206 540 185 l 656 64 q 530 3 599 24 q 403 -17 461 -17 q 261 8 326 -17 q 148 78 196 32 q 72 193 100 125 q 44 347 44 261 m 478 425 q 458 500 478 469 q 383 531 438 531 q 313 507 343 531 q 272 425 283 483 l 478 425 m 378 781 q 285 814 321 781 q 250 900 250 847 q 285 986 250 953 q 378 1019 321 1019 q 470 986 435 1019 q 506 900 506 953 q 470 814 506 847 q 378 781 435 781 z "},"ẹ":{"ha":731,"x_min":44,"x_max":681,"o":"m 44 347 q 73 499 44 432 q 148 614 101 567 q 254 686 194 661 q 378 711 314 711 q 511 685 454 711 q 606 613 568 658 q 662 506 643 567 q 681 375 681 444 q 677 318 681 343 q 671 281 674 293 l 275 281 q 335 189 292 214 q 436 164 378 164 q 506 174 472 164 q 578 206 540 185 l 656 64 q 530 3 599 24 q 403 -17 461 -17 q 261 8 326 -17 q 148 78 196 32 q 72 193 100 125 q 44 347 44 261 m 478 425 q 458 500 478 469 q 383 531 438 531 q 313 507 343 531 q 272 425 283 483 l 478 425 m 378 -325 q 285 -292 321 -325 q 250 -206 250 -258 q 285 -119 250 -153 q 378 -86 321 -86 q 470 -119 435 -86 q 506 -206 506 -153 q 470 -292 506 -258 q 378 -325 435 -325 z "},"ẻ":{"ha":731,"x_min":44,"x_max":681,"o":"m 44 347 q 73 499 44 432 q 148 614 101 567 q 254 686 194 661 q 378 711 314 711 q 511 685 454 711 q 606 613 568 658 q 662 506 643 567 q 681 375 681 444 q 677 318 681 343 q 671 281 674 293 l 275 281 q 335 189 292 214 q 436 164 378 164 q 506 174 472 164 q 578 206 540 185 l 656 64 q 530 3 599 24 q 403 -17 461 -17 q 261 8 326 -17 q 148 78 196 32 q 72 193 100 125 q 44 347 44 261 m 478 425 q 458 500 478 469 q 383 531 438 531 q 313 507 343 531 q 272 425 283 483 l 478 425 m 308 867 q 348 876 332 869 q 364 900 364 883 q 340 927 364 917 q 256 942 317 938 l 283 1058 q 403 1045 356 1056 q 481 1017 451 1035 q 522 976 510 1000 q 533 925 533 953 q 517 860 533 888 q 472 815 500 833 q 406 786 443 796 q 325 775 368 776 l 308 867 z "},"ẽ":{"ha":731,"x_min":44,"x_max":681,"o":"m 44 347 q 73 499 44 432 q 148 614 101 567 q 254 686 194 661 q 378 711 314 711 q 511 685 454 711 q 606 613 568 658 q 662 506 643 567 q 681 375 681 444 q 677 318 681 343 q 671 281 674 293 l 275 281 q 335 189 292 214 q 436 164 378 164 q 506 174 472 164 q 578 206 540 185 l 656 64 q 530 3 599 24 q 403 -17 461 -17 q 261 8 326 -17 q 148 78 196 32 q 72 193 100 125 q 44 347 44 261 m 478 425 q 458 500 478 469 q 383 531 438 531 q 313 507 343 531 q 272 425 283 483 l 478 425 m 133 797 q 189 952 146 904 q 289 1000 232 1000 q 341 991 317 1000 q 386 971 365 982 q 424 951 407 960 q 456 942 440 942 q 483 954 472 942 q 503 1000 494 967 l 622 1000 q 567 845 610 893 q 467 797 524 797 q 415 806 439 797 q 369 826 390 815 q 331 847 349 838 q 300 856 314 856 q 272 843 283 856 q 253 797 261 831 l 133 797 l 133 797 z "},"ế":{"ha":731,"x_min":44,"x_max":800,"o":"m 44 347 q 73 499 44 432 q 148 614 101 567 q 254 686 194 661 q 378 711 314 711 q 511 685 454 711 q 606 613 568 658 q 662 506 643 567 q 681 375 681 444 q 677 318 681 343 q 671 281 674 293 l 275 281 q 335 189 292 214 q 436 164 378 164 q 506 174 472 164 q 578 206 540 185 l 656 64 q 530 3 599 24 q 403 -17 461 -17 q 261 8 326 -17 q 148 78 196 32 q 72 193 100 125 q 44 347 44 261 m 478 425 q 458 500 478 469 q 383 531 438 531 q 313 507 343 531 q 272 425 283 483 l 478 425 m 283 981 l 472 981 l 583 797 l 439 797 l 381 883 l 375 883 l 317 797 l 172 797 l 283 981 m 628 1067 l 800 1067 l 667 900 l 536 900 l 628 1067 z "},"ề":{"ha":731,"x_min":44,"x_max":750,"o":"m 44 347 q 73 499 44 432 q 148 614 101 567 q 254 686 194 661 q 378 711 314 711 q 511 685 454 711 q 606 613 568 658 q 662 506 643 567 q 681 375 681 444 q 677 318 681 343 q 671 281 674 293 l 275 281 q 335 189 292 214 q 436 164 378 164 q 506 174 472 164 q 578 206 540 185 l 656 64 q 530 3 599 24 q 403 -17 461 -17 q 261 8 326 -17 q 148 78 196 32 q 72 193 100 125 q 44 347 44 261 m 478 425 q 458 500 478 469 q 383 531 438 531 q 313 507 343 531 q 272 425 283 483 l 478 425 m 283 981 l 472 981 l 583 797 l 439 797 l 381 883 l 375 883 l 317 797 l 172 797 l 283 981 m 750 900 l 619 900 l 486 1067 l 658 1067 l 750 900 z "},"ể":{"ha":731,"x_min":44,"x_max":756,"o":"m 44 347 q 73 499 44 432 q 148 614 101 567 q 254 686 194 661 q 378 711 314 711 q 511 685 454 711 q 606 613 568 658 q 662 506 643 567 q 681 375 681 444 q 677 318 681 343 q 671 281 674 293 l 275 281 q 335 189 292 214 q 436 164 378 164 q 506 174 472 164 q 578 206 540 185 l 656 64 q 530 3 599 24 q 403 -17 461 -17 q 261 8 326 -17 q 148 78 196 32 q 72 193 100 125 q 44 347 44 261 m 478 425 q 458 500 478 469 q 383 531 438 531 q 313 507 343 531 q 272 425 283 483 l 478 425 m 283 981 l 472 981 l 583 797 l 439 797 l 381 883 l 375 883 l 317 797 l 172 797 l 283 981 m 567 950 q 593 960 583 953 q 603 983 603 967 q 585 1010 603 1000 q 514 1025 567 1021 l 536 1122 q 642 1110 600 1119 q 710 1087 685 1101 q 745 1052 735 1072 q 756 1008 756 1032 q 742 948 756 972 q 704 908 728 924 q 649 885 681 893 q 581 872 617 876 l 567 950 z "},"ễ":{"ha":731,"x_min":44,"x_max":681,"o":"m 44 347 q 73 499 44 432 q 148 614 101 567 q 254 686 194 661 q 378 711 314 711 q 511 685 454 711 q 606 613 568 658 q 662 506 643 567 q 681 375 681 444 q 677 318 681 343 q 671 281 674 293 l 275 281 q 335 189 292 214 q 436 164 378 164 q 506 174 472 164 q 578 206 540 185 l 656 64 q 530 3 599 24 q 403 -17 461 -17 q 261 8 326 -17 q 148 78 196 32 q 72 193 100 125 q 44 347 44 261 m 478 425 q 458 500 478 469 q 383 531 438 531 q 313 507 343 531 q 272 425 283 483 l 478 425 m 269 956 l 486 956 l 594 797 l 442 797 l 381 875 l 375 875 l 314 797 l 161 797 l 269 956 m 167 1006 q 216 1136 178 1097 q 300 1175 254 1175 q 349 1167 328 1175 q 385 1150 369 1160 q 415 1133 401 1140 q 442 1125 428 1125 q 470 1136 458 1125 q 489 1175 482 1147 l 589 1175 q 540 1044 578 1083 q 456 1006 501 1006 q 407 1013 428 1006 q 370 1031 386 1021 q 341 1048 354 1040 q 314 1056 328 1056 q 285 1044 297 1056 q 267 1006 274 1033 l 167 1006 z "},"ệ":{"ha":731,"x_min":44,"x_max":681,"o":"m 44 347 q 73 499 44 432 q 148 614 101 567 q 254 686 194 661 q 378 711 314 711 q 511 685 454 711 q 606 613 568 658 q 662 506 643 567 q 681 375 681 444 q 677 318 681 343 q 671 281 674 293 l 275 281 q 335 189 292 214 q 436 164 378 164 q 506 174 472 164 q 578 206 540 185 l 656 64 q 530 3 599 24 q 403 -17 461 -17 q 261 8 326 -17 q 148 78 196 32 q 72 193 100 125 q 44 347 44 261 m 478 425 q 458 500 478 469 q 383 531 438 531 q 313 507 343 531 q 272 425 283 483 l 478 425 m 283 1011 l 472 1011 l 606 797 l 447 797 l 381 900 l 375 900 l 308 797 l 150 797 l 283 1011 m 378 -325 q 285 -292 321 -325 q 250 -206 250 -258 q 285 -119 250 -153 q 378 -86 321 -86 q 470 -119 435 -86 q 506 -206 506 -153 q 470 -292 506 -258 q 378 -325 435 -325 z "},"ę":{"ha":731,"x_min":44,"x_max":681,"o":"m 44 347 q 73 499 44 432 q 148 614 101 567 q 254 686 194 661 q 378 711 314 711 q 511 685 454 711 q 606 613 568 658 q 662 506 643 567 q 681 375 681 444 q 677 318 681 343 q 671 281 674 293 l 275 281 q 335 189 292 214 q 436 164 378 164 q 506 174 472 164 q 578 206 540 185 l 656 64 q 581 9 610 32 q 536 -33 553 -14 q 514 -71 519 -53 q 508 -108 508 -89 q 525 -144 508 -132 q 565 -156 542 -156 q 590 -151 578 -156 q 611 -139 601 -146 l 658 -244 q 585 -281 629 -268 q 506 -294 542 -294 q 397 -262 440 -294 q 353 -164 353 -229 q 378 -76 353 -114 q 428 -14 403 -37 q 412 -17 417 -17 q 403 -17 407 -17 q 261 8 326 -17 q 148 78 196 32 q 72 193 100 125 q 44 347 44 261 m 478 425 q 458 500 478 469 q 383 531 438 531 q 313 507 343 531 q 272 425 283 483 l 478 425 z "},"ĝ":{"ha":758,"x_min":42,"x_max":736,"o":"m 236 -75 q 274 -124 236 -108 q 372 -139 311 -139 q 469 -122 431 -139 q 508 -75 508 -104 q 484 -40 508 -47 q 415 -33 460 -33 l 361 -33 q 298 -31 319 -33 q 261 -25 276 -29 q 242 -49 249 -37 q 236 -75 236 -60 m 42 -114 q 139 19 42 -32 l 139 25 q 93 72 111 44 q 75 144 75 100 q 96 215 75 181 q 153 275 117 250 l 153 281 q 87 351 115 306 q 58 458 58 397 q 83 570 58 522 q 150 649 108 618 q 245 696 192 681 q 356 711 299 711 q 467 694 417 711 l 725 694 l 725 522 l 625 522 q 633 490 629 510 q 636 450 636 471 q 614 345 636 389 q 554 274 592 301 q 465 233 517 246 q 356 219 414 219 q 278 229 321 219 q 264 212 267 219 q 261 189 261 204 q 283 156 261 165 q 358 147 306 147 l 463 147 q 665 105 593 147 q 736 -33 736 63 q 708 -137 736 -90 q 627 -217 679 -183 q 501 -268 575 -250 q 333 -286 426 -286 q 221 -277 274 -286 q 128 -247 168 -268 q 65 -194 89 -226 q 42 -114 42 -161 m 356 361 q 410 385 389 361 q 431 458 431 408 q 410 530 431 507 q 356 553 389 553 q 301 530 322 553 q 281 458 281 507 q 301 385 281 408 q 356 361 322 361 m 261 1011 l 450 1011 l 583 797 l 425 797 l 358 900 l 353 900 l 286 797 l 128 797 l 261 1011 z "},"ğ":{"ha":758,"x_min":42,"x_max":736,"o":"m 236 -75 q 274 -124 236 -108 q 372 -139 311 -139 q 469 -122 431 -139 q 508 -75 508 -104 q 484 -40 508 -47 q 415 -33 460 -33 l 361 -33 q 298 -31 319 -33 q 261 -25 276 -29 q 242 -49 249 -37 q 236 -75 236 -60 m 42 -114 q 139 19 42 -32 l 139 25 q 93 72 111 44 q 75 144 75 100 q 96 215 75 181 q 153 275 117 250 l 153 281 q 87 351 115 306 q 58 458 58 397 q 83 570 58 522 q 150 649 108 618 q 245 696 192 681 q 356 711 299 711 q 467 694 417 711 l 725 694 l 725 522 l 625 522 q 633 490 629 510 q 636 450 636 471 q 614 345 636 389 q 554 274 592 301 q 465 233 517 246 q 356 219 414 219 q 278 229 321 219 q 264 212 267 219 q 261 189 261 204 q 283 156 261 165 q 358 147 306 147 l 463 147 q 665 105 593 147 q 736 -33 736 63 q 708 -137 736 -90 q 627 -217 679 -183 q 501 -268 575 -250 q 333 -286 426 -286 q 221 -277 274 -286 q 128 -247 168 -268 q 65 -194 89 -226 q 42 -114 42 -161 m 356 361 q 410 385 389 361 q 431 458 431 408 q 410 530 431 507 q 356 553 389 553 q 301 530 322 553 q 281 458 281 507 q 301 385 281 408 q 356 361 322 361 m 356 797 q 269 813 306 797 q 207 856 232 829 q 169 920 182 883 q 156 997 157 957 l 286 997 q 307 945 290 965 q 356 925 324 925 q 404 945 388 925 q 425 997 421 965 l 556 997 q 542 920 554 957 q 504 856 529 883 q 442 813 479 829 q 356 797 406 797 z "},"ġ":{"ha":758,"x_min":42,"x_max":736,"o":"m 236 -75 q 274 -124 236 -108 q 372 -139 311 -139 q 469 -122 431 -139 q 508 -75 508 -104 q 484 -40 508 -47 q 415 -33 460 -33 l 361 -33 q 298 -31 319 -33 q 261 -25 276 -29 q 242 -49 249 -37 q 236 -75 236 -60 m 42 -114 q 139 19 42 -32 l 139 25 q 93 72 111 44 q 75 144 75 100 q 96 215 75 181 q 153 275 117 250 l 153 281 q 87 351 115 306 q 58 458 58 397 q 83 570 58 522 q 150 649 108 618 q 245 696 192 681 q 356 711 299 711 q 467 694 417 711 l 725 694 l 725 522 l 625 522 q 633 490 629 510 q 636 450 636 471 q 614 345 636 389 q 554 274 592 301 q 465 233 517 246 q 356 219 414 219 q 278 229 321 219 q 264 212 267 219 q 261 189 261 204 q 283 156 261 165 q 358 147 306 147 l 463 147 q 665 105 593 147 q 736 -33 736 63 q 708 -137 736 -90 q 627 -217 679 -183 q 501 -268 575 -250 q 333 -286 426 -286 q 221 -277 274 -286 q 128 -247 168 -268 q 65 -194 89 -226 q 42 -114 42 -161 m 356 361 q 410 385 389 361 q 431 458 431 408 q 410 530 431 507 q 356 553 389 553 q 301 530 322 553 q 281 458 281 507 q 301 385 281 408 q 356 361 322 361 m 356 781 q 263 814 299 781 q 228 900 228 847 q 263 986 228 953 q 356 1019 299 1019 q 448 986 413 1019 q 483 900 483 953 q 448 814 483 847 q 356 781 413 781 z "},"ģ":{"ha":758,"x_min":42,"x_max":736,"o":"m 236 -75 q 274 -124 236 -108 q 372 -139 311 -139 q 469 -122 431 -139 q 508 -75 508 -104 q 484 -40 508 -47 q 415 -33 460 -33 l 361 -33 q 298 -31 319 -33 q 261 -25 276 -29 q 242 -49 249 -37 q 236 -75 236 -60 m 42 -114 q 139 19 42 -32 l 139 25 q 93 72 111 44 q 75 144 75 100 q 96 215 75 181 q 153 275 117 250 l 153 281 q 87 351 115 306 q 58 458 58 397 q 83 570 58 522 q 150 649 108 618 q 245 696 192 681 q 356 711 299 711 q 467 694 417 711 l 725 694 l 725 522 l 625 522 q 633 490 629 510 q 636 450 636 471 q 614 345 636 389 q 554 274 592 301 q 465 233 517 246 q 356 219 414 219 q 278 229 321 219 q 264 212 267 219 q 261 189 261 204 q 283 156 261 165 q 358 147 306 147 l 463 147 q 665 105 593 147 q 736 -33 736 63 q 708 -137 736 -90 q 627 -217 679 -183 q 501 -268 575 -250 q 333 -286 426 -286 q 221 -277 274 -286 q 128 -247 168 -268 q 65 -194 89 -226 q 42 -114 42 -161 m 356 361 q 410 385 389 361 q 431 458 431 408 q 410 530 431 507 q 356 553 389 553 q 301 530 322 553 q 281 458 281 507 q 301 385 281 408 q 356 361 322 361 m 408 758 q 322 772 357 763 q 267 795 288 781 q 237 830 246 810 q 228 878 228 850 q 249 942 228 915 q 307 988 271 969 q 391 1016 343 1007 q 492 1028 439 1025 l 508 936 q 428 922 460 932 q 397 889 397 913 q 409 861 397 872 q 453 842 421 850 l 408 758 l 408 758 z "},"ǧ":{"ha":758,"x_min":42,"x_max":736,"o":"m 236 -75 q 274 -124 236 -108 q 372 -139 311 -139 q 469 -122 431 -139 q 508 -75 508 -104 q 484 -40 508 -47 q 415 -33 460 -33 l 361 -33 q 298 -31 319 -33 q 261 -25 276 -29 q 242 -49 249 -37 q 236 -75 236 -60 m 42 -114 q 139 19 42 -32 l 139 25 q 93 72 111 44 q 75 144 75 100 q 96 215 75 181 q 153 275 117 250 l 153 281 q 87 351 115 306 q 58 458 58 397 q 83 570 58 522 q 150 649 108 618 q 245 696 192 681 q 356 711 299 711 q 467 694 417 711 l 725 694 l 725 522 l 625 522 q 633 490 629 510 q 636 450 636 471 q 614 345 636 389 q 554 274 592 301 q 465 233 517 246 q 356 219 414 219 q 278 229 321 219 q 264 212 267 219 q 261 189 261 204 q 283 156 261 165 q 358 147 306 147 l 463 147 q 665 105 593 147 q 736 -33 736 63 q 708 -137 736 -90 q 627 -217 679 -183 q 501 -268 575 -250 q 333 -286 426 -286 q 221 -277 274 -286 q 128 -247 168 -268 q 65 -194 89 -226 q 42 -114 42 -161 m 356 361 q 410 385 389 361 q 431 458 431 408 q 410 530 431 507 q 356 553 389 553 q 301 530 322 553 q 281 458 281 507 q 301 385 281 408 q 356 361 322 361 m 128 1011 l 286 1011 l 353 908 l 358 908 l 425 1011 l 583 1011 l 450 797 l 261 797 l 128 1011 z "},"ḡ":{"ha":758,"x_min":42,"x_max":736,"o":"m 236 -75 q 274 -124 236 -108 q 372 -139 311 -139 q 469 -122 431 -139 q 508 -75 508 -104 q 484 -40 508 -47 q 415 -33 460 -33 l 361 -33 q 298 -31 319 -33 q 261 -25 276 -29 q 242 -49 249 -37 q 236 -75 236 -60 m 42 -114 q 139 19 42 -32 l 139 25 q 93 72 111 44 q 75 144 75 100 q 96 215 75 181 q 153 275 117 250 l 153 281 q 87 351 115 306 q 58 458 58 397 q 83 570 58 522 q 150 649 108 618 q 245 696 192 681 q 356 711 299 711 q 467 694 417 711 l 725 694 l 725 522 l 625 522 q 633 490 629 510 q 636 450 636 471 q 614 345 636 389 q 554 274 592 301 q 465 233 517 246 q 356 219 414 219 q 278 229 321 219 q 264 212 267 219 q 261 189 261 204 q 283 156 261 165 q 358 147 306 147 l 463 147 q 665 105 593 147 q 736 -33 736 63 q 708 -137 736 -90 q 627 -217 679 -183 q 501 -268 575 -250 q 333 -286 426 -286 q 221 -277 274 -286 q 128 -247 168 -268 q 65 -194 89 -226 q 42 -114 42 -161 m 356 361 q 410 385 389 361 q 431 458 431 408 q 410 530 431 507 q 356 553 389 553 q 301 530 322 553 q 281 458 281 507 q 301 385 281 408 q 356 361 322 361 m 156 967 l 556 967 l 556 817 l 156 817 l 156 967 z "},"ĥ":{"ha":808,"x_min":-53,"x_max":733,"o":"m 81 967 l 319 967 l 319 742 l 308 622 q 395 683 344 654 q 517 711 446 711 q 682 634 631 711 q 733 428 733 557 l 733 0 l 494 0 l 494 397 q 478 486 494 464 q 425 508 461 508 q 369 494 392 508 q 319 456 347 481 l 319 0 l 81 0 l 81 967 m -53 1042 l 81 1214 l 314 1214 l 447 1042 l 267 1042 l 200 1122 l 194 1122 l 128 1042 l -53 1042 z "},"ḥ":{"ha":808,"x_min":81,"x_max":733,"o":"m 81 967 l 319 967 l 319 742 l 308 622 q 395 683 344 654 q 517 711 446 711 q 682 634 631 711 q 733 428 733 557 l 733 0 l 494 0 l 494 397 q 478 486 494 464 q 425 508 461 508 q 369 494 392 508 q 319 456 347 481 l 319 0 l 81 0 l 81 967 m 411 -325 q 319 -292 354 -325 q 283 -206 283 -258 q 319 -119 283 -153 q 411 -86 354 -86 q 503 -119 468 -86 q 539 -206 539 -153 q 503 -292 539 -258 q 411 -325 468 -325 z "},"ḫ":{"ha":808,"x_min":81,"x_max":733,"o":"m 81 967 l 319 967 l 319 742 l 308 622 q 395 683 344 654 q 517 711 446 711 q 682 634 631 711 q 733 428 733 557 l 733 0 l 494 0 l 494 397 q 478 486 494 464 q 425 508 461 508 q 369 494 392 508 q 319 456 347 481 l 319 0 l 81 0 l 81 967 m 411 -294 q 324 -278 361 -294 q 263 -235 288 -262 q 225 -172 238 -208 q 211 -94 213 -135 l 342 -94 q 363 -147 346 -126 q 411 -167 379 -167 q 460 -147 443 -167 q 481 -94 476 -126 l 611 -94 q 597 -172 610 -135 q 560 -235 585 -208 q 498 -278 535 -262 q 411 -294 461 -294 z "},"ħ":{"ha":808,"x_min":-11,"x_max":733,"o":"m 308 594 q 395 655 344 626 q 517 683 446 683 q 682 606 631 683 q 733 400 733 529 l 733 0 l 494 0 l 494 369 q 478 458 494 436 q 425 481 461 481 q 369 467 392 481 q 319 428 347 453 l 319 0 l 81 0 l 81 764 l -11 764 l -11 867 l 81 874 l 81 967 l 319 967 l 319 875 l 547 875 l 547 764 l 319 764 l 319 714 l 308 594 z "},"ì":{"ha":400,"x_min":-28,"x_max":322,"o":"m 81 694 l 319 694 l 319 0 l 81 0 l 81 694 m -28 1011 l 200 1011 l 322 797 l 150 797 l -28 1011 z "},"í":{"ha":400,"x_min":78,"x_max":428,"o":"m 81 694 l 319 694 l 319 0 l 81 0 l 81 694 m 250 797 l 78 797 l 200 1011 l 428 1011 l 250 797 z "},"î":{"ha":400,"x_min":-28,"x_max":428,"o":"m 81 694 l 319 694 l 319 0 l 81 0 l 81 694 m 106 1011 l 294 1011 l 428 797 l 269 797 l 203 900 l 197 900 l 131 797 l -28 797 l 106 1011 z "},"ĩ":{"ha":400,"x_min":-44,"x_max":444,"o":"m 81 694 l 319 694 l 319 0 l 81 0 l 81 694 m -44 797 q 11 952 -32 904 q 111 1000 54 1000 q 163 991 139 1000 q 208 971 188 982 q 246 951 229 960 q 278 942 263 942 q 306 954 294 942 q 325 1000 317 967 l 444 1000 q 389 845 432 893 q 289 797 346 797 q 237 806 261 797 q 192 826 213 815 q 153 847 171 838 q 122 856 136 856 q 94 843 106 856 q 75 797 83 831 l -44 797 l -44 797 z "},"ï":{"ha":400,"x_min":-53,"x_max":453,"o":"m 81 694 l 319 694 l 319 0 l 81 0 l 81 694 m 56 783 q -23 815 7 783 q -53 892 -53 846 q -23 969 -53 938 q 56 1000 7 1000 q 134 969 104 1000 q 164 892 164 938 q 134 815 164 846 q 56 783 104 783 m 344 783 q 266 815 296 783 q 236 892 236 846 q 266 969 236 938 q 344 1000 296 1000 q 423 969 393 1000 q 453 892 453 938 q 423 815 453 846 q 344 783 393 783 z "},"ī":{"ha":400,"x_min":0,"x_max":400,"o":"m 81 694 l 319 694 l 319 0 l 81 0 l 81 694 m 0 967 l 400 967 l 400 817 l 0 817 l 0 967 z "},"ǐ":{"ha":400,"x_min":-28,"x_max":428,"o":"m 81 694 l 319 694 l 319 0 l 81 0 l 81 694 m -28 1011 l 131 1011 l 197 908 l 203 908 l 269 1011 l 428 1011 l 294 797 l 106 797 l -28 1011 z "},"ỉ":{"ha":400,"x_min":78,"x_max":356,"o":"m 81 694 l 319 694 l 319 0 l 81 0 l 81 694 m 131 867 q 170 876 154 869 q 186 900 186 883 q 163 927 186 917 q 78 942 139 938 l 106 1058 q 226 1045 178 1056 q 303 1017 274 1035 q 344 976 332 1000 q 356 925 356 953 q 339 860 356 888 q 294 815 322 833 q 228 786 265 796 q 147 775 190 776 l 131 867 z "},"ị":{"ha":400,"x_min":67,"x_max":333,"o":"m 200 781 q 104 814 142 781 q 67 900 67 847 q 104 986 67 953 q 200 1019 142 1019 q 296 986 258 1019 q 333 900 333 953 q 296 814 333 847 q 200 781 258 781 m 81 694 l 319 694 l 319 0 l 81 0 l 81 694 m 200 -325 q 108 -292 143 -325 q 72 -206 72 -258 q 108 -119 72 -153 q 200 -86 143 -86 q 292 -119 257 -86 q 328 -206 328 -153 q 292 -292 328 -258 q 200 -325 257 -325 z "},"į":{"ha":400,"x_min":58,"x_max":367,"o":"m 81 694 l 319 694 l 319 0 q 238 -48 258 -17 q 217 -108 217 -79 q 233 -144 217 -132 q 274 -156 250 -156 q 297 -151 285 -156 q 319 -139 308 -146 l 367 -244 q 294 -281 338 -268 q 214 -294 250 -294 q 103 -262 149 -294 q 58 -164 58 -229 q 68 -107 58 -133 q 92 -60 78 -81 q 122 -24 106 -39 q 150 0 138 -8 l 81 0 l 81 694 m 200 781 q 104 814 142 781 q 67 900 67 847 q 104 986 67 953 q 200 1019 142 1019 q 296 986 258 1019 q 333 900 333 953 q 296 814 333 847 q 200 781 258 781 z "},"ı":{"ha":400,"x_min":81,"x_max":319,"o":"m 81 694 l 319 694 l 319 0 l 81 0 l 81 694 z "},"ĵ":{"ha":403,"x_min":-78,"x_max":431,"o":"m 83 694 l 322 694 l 322 36 q 310 -76 322 -22 q 266 -171 297 -129 q 183 -237 235 -212 q 53 -261 131 -261 q -25 -256 4 -261 q -78 -242 -54 -250 l -36 -67 q -10 -73 -21 -71 q 14 -75 1 -75 q 67 -52 51 -75 q 83 28 83 -29 l 83 694 m 108 1011 l 297 1011 l 431 797 l 272 797 l 206 900 l 200 900 l 133 797 l -25 797 l 108 1011 z "},"ķ":{"ha":789,"x_min":81,"x_max":783,"o":"m 81 967 l 314 967 l 314 453 l 319 453 l 511 694 l 769 694 l 522 406 l 783 0 l 525 0 l 386 247 l 314 167 l 314 0 l 81 0 l 81 967 m 369 -56 q 510 -92 471 -64 q 550 -175 550 -121 q 528 -240 550 -212 q 471 -285 507 -267 q 387 -314 435 -304 q 286 -325 339 -324 l 269 -233 q 349 -219 318 -229 q 381 -186 381 -210 q 369 -158 381 -169 q 325 -139 357 -147 l 369 -56 l 369 -56 z "},"ĸ":{"ha":789,"x_min":81,"x_max":783,"o":"m 81 694 l 319 694 l 319 447 l 325 447 l 511 694 l 769 694 l 528 406 l 783 0 l 525 0 l 386 239 l 319 158 l 319 0 l 81 0 l 81 694 z "},"ĺ":{"ha":414,"x_min":81,"x_max":449,"o":"m 81 967 l 319 967 l 319 236 q 333 188 319 200 q 358 175 346 175 q 370 175 365 175 q 383 178 375 175 l 411 3 q 363 -11 392 -6 q 294 -17 335 -17 q 192 2 233 -17 q 126 56 151 21 q 91 138 101 90 q 81 244 81 186 l 81 967 m 279 1050 l 90 1050 l 199 1222 l 449 1222 l 279 1050 z "},"ľ":{"ha":469,"x_min":81,"x_max":514,"o":"m 81 967 l 319 967 l 319 236 q 333 188 319 200 q 358 175 346 175 q 370 175 365 175 q 383 178 375 175 l 411 3 q 363 -11 392 -6 q 294 -17 335 -17 q 192 2 233 -17 q 126 56 151 21 q 91 138 101 90 q 81 244 81 186 l 81 967 m 372 761 l 364 1075 l 514 1075 l 511 972 l 472 761 l 372 761 z "},"ŀ":{"ha":678,"x_min":81,"x_max":678,"o":"m 81 967 l 319 967 l 319 236 q 333 188 319 200 q 358 175 346 175 q 370 175 365 175 q 383 178 375 175 l 411 3 q 363 -11 392 -6 q 294 -17 335 -17 q 192 2 233 -17 q 126 56 151 21 q 91 138 101 90 q 81 244 81 186 l 81 967 m 400 458 q 439 561 400 519 q 539 603 478 603 q 639 561 600 603 q 678 458 678 519 q 639 356 678 397 q 539 314 600 314 q 439 356 478 314 q 400 458 400 397 z "},"ļ":{"ha":414,"x_min":81,"x_max":411,"o":"m 81 967 l 319 967 l 319 236 q 333 188 319 200 q 358 175 346 175 q 370 175 365 175 q 383 178 375 175 l 411 3 q 363 -11 392 -6 q 294 -17 335 -17 q 192 2 233 -17 q 126 56 151 21 q 91 138 101 90 q 81 244 81 186 l 81 967 m 222 -56 q 363 -92 324 -64 q 403 -175 403 -121 q 381 -240 403 -212 q 324 -285 360 -267 q 240 -314 288 -304 q 139 -325 192 -324 l 122 -233 q 202 -219 171 -229 q 233 -186 233 -210 q 222 -158 233 -169 q 178 -139 210 -147 l 222 -56 l 222 -56 z "},"ḷ":{"ha":414,"x_min":81,"x_max":411,"o":"m 81 967 l 319 967 l 319 236 q 333 188 319 200 q 358 175 346 175 q 370 175 365 175 q 383 178 375 175 l 411 3 q 363 -11 392 -6 q 294 -17 335 -17 q 192 2 233 -17 q 126 56 151 21 q 91 138 101 90 q 81 244 81 186 l 81 967 m 275 -325 q 183 -292 218 -325 q 147 -206 147 -258 q 183 -119 147 -153 q 275 -86 218 -86 q 367 -119 332 -86 q 403 -206 403 -153 q 367 -292 403 -258 q 275 -325 332 -325 z "},"ḹ":{"ha":414,"x_min":-1,"x_max":411,"o":"m 81 967 l 319 967 l 319 236 q 333 188 319 200 q 358 175 346 175 q 370 175 365 175 q 383 178 375 175 l 411 3 q 363 -11 392 -6 q 294 -17 335 -17 q 192 2 233 -17 q 126 56 151 21 q 91 138 101 90 q 81 244 81 186 l 81 967 m -1 1256 l 399 1256 l 399 1106 l -1 1106 l -1 1256 m 275 -325 q 183 -292 218 -325 q 147 -206 147 -258 q 183 -119 147 -153 q 275 -86 218 -86 q 367 -119 332 -86 q 403 -206 403 -153 q 367 -292 403 -258 q 275 -325 332 -325 z "},"ḻ":{"ha":414,"x_min":75,"x_max":475,"o":"m 81 967 l 319 967 l 319 236 q 333 188 319 200 q 358 175 346 175 q 370 175 365 175 q 383 178 375 175 l 411 3 q 363 -11 392 -6 q 294 -17 335 -17 q 192 2 233 -17 q 126 56 151 21 q 91 138 101 90 q 81 244 81 186 l 81 967 m 475 -272 l 75 -272 l 75 -122 l 475 -122 l 475 -272 z "},"ł":{"ha":442,"x_min":17,"x_max":428,"o":"m 428 3 q 380 -11 408 -6 q 311 -17 351 -17 q 209 2 250 -17 q 143 56 168 21 q 108 138 118 90 q 97 244 97 186 l 97 354 l 17 306 l 17 494 l 97 543 l 97 967 l 336 967 l 336 660 l 425 711 l 425 522 l 336 471 l 336 236 q 349 188 336 200 q 375 175 363 175 q 387 175 382 175 q 400 178 392 175 l 428 3 z "},"ṃ":{"ha":1206,"x_min":81,"x_max":1131,"o":"m 81 694 l 275 694 l 292 610 l 297 610 q 387 681 339 650 q 506 711 435 711 q 623 683 576 711 q 697 600 669 654 q 790 678 740 644 q 911 711 840 711 q 1078 634 1025 711 q 1131 428 1131 557 l 1131 0 l 892 0 l 892 397 q 875 486 892 464 q 822 508 858 508 q 725 456 778 508 l 725 0 l 486 0 l 486 397 q 469 486 486 464 q 417 508 453 508 q 319 456 372 508 l 319 0 l 81 0 l 81 694 m 617 -325 q 524 -292 560 -325 q 489 -206 489 -258 q 524 -119 489 -153 q 617 -86 560 -86 q 709 -119 674 -86 q 744 -206 744 -153 q 709 -292 744 -258 q 617 -325 674 -325 z "},"ń":{"ha":808,"x_min":81,"x_max":733,"o":"m 81 694 l 275 694 l 292 611 l 297 611 q 392 681 339 651 q 517 711 446 711 q 682 634 631 711 q 733 428 733 557 l 733 0 l 494 0 l 494 397 q 478 486 494 464 q 425 508 461 508 q 369 494 392 508 q 319 456 347 481 l 319 0 l 81 0 l 81 694 m 486 797 l 314 797 l 436 1011 l 664 1011 l 486 797 z "},"ň":{"ha":808,"x_min":81,"x_max":733,"o":"m 81 694 l 275 694 l 292 611 l 297 611 q 392 681 339 651 q 517 711 446 711 q 682 634 631 711 q 733 428 733 557 l 733 0 l 494 0 l 494 397 q 478 486 494 464 q 425 508 461 508 q 369 494 392 508 q 319 456 347 481 l 319 0 l 81 0 l 81 694 m 208 1011 l 367 1011 l 433 908 l 439 908 l 506 1011 l 664 1011 l 531 797 l 342 797 l 208 1011 z "},"ñ":{"ha":808,"x_min":81,"x_max":733,"o":"m 81 694 l 275 694 l 292 611 l 297 611 q 392 681 339 651 q 517 711 446 711 q 682 634 631 711 q 733 428 733 557 l 733 0 l 494 0 l 494 397 q 478 486 494 464 q 425 508 461 508 q 369 494 392 508 q 319 456 347 481 l 319 0 l 81 0 l 81 694 m 192 797 q 247 952 204 904 q 347 1000 290 1000 q 399 991 375 1000 q 444 971 424 982 q 482 951 465 960 q 514 942 499 942 q 542 954 531 942 q 561 1000 553 967 l 681 1000 q 625 845 668 893 q 525 797 582 797 q 473 806 497 797 q 428 826 449 815 q 390 847 407 838 q 358 856 372 856 q 331 843 342 856 q 311 797 319 831 l 192 797 l 192 797 z "},"ņ":{"ha":808,"x_min":81,"x_max":733,"o":"m 81 694 l 275 694 l 292 611 l 297 611 q 392 681 339 651 q 517 711 446 711 q 682 634 631 711 q 733 428 733 557 l 733 0 l 494 0 l 494 397 q 478 486 494 464 q 425 508 461 508 q 369 494 392 508 q 319 456 347 481 l 319 0 l 81 0 l 81 694 m 358 -56 q 499 -92 460 -64 q 539 -175 539 -121 q 517 -240 539 -212 q 460 -285 496 -267 q 376 -314 424 -304 q 275 -325 328 -324 l 258 -233 q 338 -219 307 -229 q 369 -186 369 -210 q 358 -158 369 -169 q 314 -139 346 -147 l 358 -56 l 358 -56 z "},"ṅ":{"ha":808,"x_min":81,"x_max":733,"o":"m 81 694 l 275 694 l 292 611 l 297 611 q 392 681 339 651 q 517 711 446 711 q 682 634 631 711 q 733 428 733 557 l 733 0 l 494 0 l 494 397 q 478 486 494 464 q 425 508 461 508 q 369 494 392 508 q 319 456 347 481 l 319 0 l 81 0 l 81 694 m 436 781 q 344 814 379 781 q 308 900 308 847 q 344 986 308 953 q 436 1019 379 1019 q 528 986 493 1019 q 564 900 564 953 q 528 814 564 847 q 436 781 493 781 z "},"ṇ":{"ha":808,"x_min":81,"x_max":733,"o":"m 81 694 l 275 694 l 292 611 l 297 611 q 392 681 339 651 q 517 711 446 711 q 682 634 631 711 q 733 428 733 557 l 733 0 l 494 0 l 494 397 q 478 486 494 464 q 425 508 461 508 q 369 494 392 508 q 319 456 347 481 l 319 0 l 81 0 l 81 694 m 411 -325 q 319 -292 354 -325 q 283 -206 283 -258 q 319 -119 283 -153 q 411 -86 354 -86 q 503 -119 468 -86 q 539 -206 539 -153 q 503 -292 539 -258 q 411 -325 468 -325 z "},"ṉ":{"ha":808,"x_min":81,"x_max":733,"o":"m 81 694 l 275 694 l 292 611 l 297 611 q 392 681 339 651 q 517 711 446 711 q 682 634 631 711 q 733 428 733 557 l 733 0 l 494 0 l 494 397 q 478 486 494 464 q 425 508 461 508 q 369 494 392 508 q 319 456 347 481 l 319 0 l 81 0 l 81 694 m 611 -272 l 211 -272 l 211 -122 l 611 -122 l 611 -272 z "},"ŉ":{"ha":1225,"x_min":103,"x_max":1150,"o":"m 103 550 q 203 622 169 579 q 236 726 236 664 q 222 725 232 725 q 138 756 172 725 q 103 839 103 786 q 136 932 103 897 q 222 967 169 967 q 333 913 296 967 q 369 764 369 860 q 317 580 369 660 q 153 447 264 500 l 103 550 m 497 694 l 692 694 l 708 611 l 714 611 q 809 681 756 651 q 933 711 863 711 q 1099 634 1047 711 q 1150 428 1150 557 l 1150 0 l 911 0 l 911 397 q 894 486 911 464 q 842 508 878 508 q 786 494 808 508 q 736 456 764 481 l 736 0 l 497 0 l 497 694 z "},"ò":{"ha":778,"x_min":44,"x_max":733,"o":"m 44 347 q 73 501 44 433 q 149 616 101 569 q 260 687 197 663 q 389 711 322 711 q 517 687 456 711 q 627 616 579 663 q 704 501 675 569 q 733 347 733 433 q 704 193 733 261 q 627 78 675 125 q 517 8 579 32 q 389 -17 456 -17 q 260 8 322 -17 q 149 78 197 32 q 73 193 101 125 q 44 347 44 261 m 289 347 q 312 222 289 268 q 389 175 335 175 q 466 222 443 175 q 489 347 489 268 q 466 473 489 426 q 389 519 443 519 q 312 473 335 519 q 289 347 289 426 m 161 1011 l 389 1011 l 511 797 l 339 797 l 161 1011 z "},"ó":{"ha":778,"x_min":44,"x_max":733,"o":"m 44 347 q 73 501 44 433 q 149 616 101 569 q 260 687 197 663 q 389 711 322 711 q 517 687 456 711 q 627 616 579 663 q 704 501 675 569 q 733 347 733 433 q 704 193 733 261 q 627 78 675 125 q 517 8 579 32 q 389 -17 456 -17 q 260 8 322 -17 q 149 78 197 32 q 73 193 101 125 q 44 347 44 261 m 289 347 q 312 222 289 268 q 389 175 335 175 q 466 222 443 175 q 489 347 489 268 q 466 473 489 426 q 389 519 443 519 q 312 473 335 519 q 289 347 289 426 m 439 797 l 267 797 l 389 1011 l 617 1011 l 439 797 z "},"ô":{"ha":778,"x_min":44,"x_max":733,"o":"m 44 347 q 73 501 44 433 q 149 616 101 569 q 260 687 197 663 q 389 711 322 711 q 517 687 456 711 q 627 616 579 663 q 704 501 675 569 q 733 347 733 433 q 704 193 733 261 q 627 78 675 125 q 517 8 579 32 q 389 -17 456 -17 q 260 8 322 -17 q 149 78 197 32 q 73 193 101 125 q 44 347 44 261 m 289 347 q 312 222 289 268 q 389 175 335 175 q 466 222 443 175 q 489 347 489 268 q 466 473 489 426 q 389 519 443 519 q 312 473 335 519 q 289 347 289 426 m 294 1011 l 483 1011 l 617 797 l 458 797 l 392 900 l 386 900 l 319 797 l 161 797 l 294 1011 z "},"õ":{"ha":778,"x_min":44,"x_max":733,"o":"m 44 347 q 73 501 44 433 q 149 616 101 569 q 260 687 197 663 q 389 711 322 711 q 517 687 456 711 q 627 616 579 663 q 704 501 675 569 q 733 347 733 433 q 704 193 733 261 q 627 78 675 125 q 517 8 579 32 q 389 -17 456 -17 q 260 8 322 -17 q 149 78 197 32 q 73 193 101 125 q 44 347 44 261 m 289 347 q 312 222 289 268 q 389 175 335 175 q 466 222 443 175 q 489 347 489 268 q 466 473 489 426 q 389 519 443 519 q 312 473 335 519 q 289 347 289 426 m 144 797 q 200 952 157 904 q 300 1000 243 1000 q 352 991 328 1000 q 397 971 376 982 q 435 951 418 960 q 467 942 451 942 q 494 954 483 942 q 514 1000 506 967 l 633 1000 q 578 845 621 893 q 478 797 535 797 q 426 806 450 797 q 381 826 401 815 q 342 847 360 838 q 311 856 325 856 q 283 843 294 856 q 264 797 272 831 l 144 797 l 144 797 z "},"ö":{"ha":778,"x_min":44,"x_max":733,"o":"m 44 347 q 73 501 44 433 q 149 616 101 569 q 260 687 197 663 q 389 711 322 711 q 517 687 456 711 q 627 616 579 663 q 704 501 675 569 q 733 347 733 433 q 704 193 733 261 q 627 78 675 125 q 517 8 579 32 q 389 -17 456 -17 q 260 8 322 -17 q 149 78 197 32 q 73 193 101 125 q 44 347 44 261 m 289 347 q 312 222 289 268 q 389 175 335 175 q 466 222 443 175 q 489 347 489 268 q 466 473 489 426 q 389 519 443 519 q 312 473 335 519 q 289 347 289 426 m 244 783 q 166 815 196 783 q 136 892 136 846 q 166 969 136 938 q 244 1000 196 1000 q 323 969 293 1000 q 353 892 353 938 q 323 815 353 846 q 244 783 293 783 m 533 783 q 455 815 485 783 q 425 892 425 846 q 455 969 425 938 q 533 1000 485 1000 q 612 969 582 1000 q 642 892 642 938 q 612 815 642 846 q 533 783 582 783 z "},"ō":{"ha":778,"x_min":44,"x_max":733,"o":"m 44 347 q 73 501 44 433 q 149 616 101 569 q 260 687 197 663 q 389 711 322 711 q 517 687 456 711 q 627 616 579 663 q 704 501 675 569 q 733 347 733 433 q 704 193 733 261 q 627 78 675 125 q 517 8 579 32 q 389 -17 456 -17 q 260 8 322 -17 q 149 78 197 32 q 73 193 101 125 q 44 347 44 261 m 289 347 q 312 222 289 268 q 389 175 335 175 q 466 222 443 175 q 489 347 489 268 q 466 473 489 426 q 389 519 443 519 q 312 473 335 519 q 289 347 289 426 m 189 967 l 589 967 l 589 817 l 189 817 l 189 967 z "},"ő":{"ha":778,"x_min":44,"x_max":733,"o":"m 44 347 q 73 501 44 433 q 149 616 101 569 q 260 687 197 663 q 389 711 322 711 q 517 687 456 711 q 627 616 579 663 q 704 501 675 569 q 733 347 733 433 q 704 193 733 261 q 627 78 675 125 q 517 8 579 32 q 389 -17 456 -17 q 260 8 322 -17 q 149 78 197 32 q 73 193 101 125 q 44 347 44 261 m 289 347 q 312 222 289 268 q 389 175 335 175 q 466 222 443 175 q 489 347 489 268 q 466 473 489 426 q 389 519 443 519 q 312 473 335 519 q 289 347 289 426 m 294 1011 l 481 1011 l 344 797 l 200 797 l 294 1011 m 544 1011 l 731 1011 l 594 797 l 450 797 l 544 1011 z "},"ǒ":{"ha":778,"x_min":44,"x_max":733,"o":"m 44 347 q 73 501 44 433 q 149 616 101 569 q 260 687 197 663 q 389 711 322 711 q 517 687 456 711 q 627 616 579 663 q 704 501 675 569 q 733 347 733 433 q 704 193 733 261 q 627 78 675 125 q 517 8 579 32 q 389 -17 456 -17 q 260 8 322 -17 q 149 78 197 32 q 73 193 101 125 q 44 347 44 261 m 289 347 q 312 222 289 268 q 389 175 335 175 q 466 222 443 175 q 489 347 489 268 q 466 473 489 426 q 389 519 443 519 q 312 473 335 519 q 289 347 289 426 m 161 1011 l 319 1011 l 386 908 l 392 908 l 458 1011 l 617 1011 l 483 797 l 294 797 l 161 1011 z "},"ọ":{"ha":778,"x_min":44,"x_max":733,"o":"m 44 347 q 73 501 44 433 q 149 616 101 569 q 260 687 197 663 q 389 711 322 711 q 517 687 456 711 q 627 616 579 663 q 704 501 675 569 q 733 347 733 433 q 704 193 733 261 q 627 78 675 125 q 517 8 579 32 q 389 -17 456 -17 q 260 8 322 -17 q 149 78 197 32 q 73 193 101 125 q 44 347 44 261 m 289 347 q 312 222 289 268 q 389 175 335 175 q 466 222 443 175 q 489 347 489 268 q 466 473 489 426 q 389 519 443 519 q 312 473 335 519 q 289 347 289 426 m 389 -325 q 297 -292 332 -325 q 261 -206 261 -258 q 297 -119 261 -153 q 389 -86 332 -86 q 481 -119 446 -86 q 517 -206 517 -153 q 481 -292 517 -258 q 389 -325 446 -325 z "},"ỏ":{"ha":778,"x_min":44,"x_max":733,"o":"m 44 347 q 73 501 44 433 q 149 616 101 569 q 260 687 197 663 q 389 711 322 711 q 517 687 456 711 q 627 616 579 663 q 704 501 675 569 q 733 347 733 433 q 704 193 733 261 q 627 78 675 125 q 517 8 579 32 q 389 -17 456 -17 q 260 8 322 -17 q 149 78 197 32 q 73 193 101 125 q 44 347 44 261 m 289 347 q 312 222 289 268 q 389 175 335 175 q 466 222 443 175 q 489 347 489 268 q 466 473 489 426 q 389 519 443 519 q 312 473 335 519 q 289 347 289 426 m 319 867 q 359 876 343 869 q 375 900 375 883 q 351 927 375 917 q 267 942 328 938 l 294 1058 q 415 1045 367 1056 q 492 1017 463 1035 q 533 976 521 1000 q 544 925 544 953 q 528 860 544 888 q 483 815 511 833 q 417 786 454 796 q 336 775 379 776 l 319 867 z "},"ố":{"ha":778,"x_min":44,"x_max":811,"o":"m 44 347 q 73 501 44 433 q 149 616 101 569 q 260 687 197 663 q 389 711 322 711 q 517 687 456 711 q 627 616 579 663 q 704 501 675 569 q 733 347 733 433 q 704 193 733 261 q 627 78 675 125 q 517 8 579 32 q 389 -17 456 -17 q 260 8 322 -17 q 149 78 197 32 q 73 193 101 125 q 44 347 44 261 m 289 347 q 312 222 289 268 q 389 175 335 175 q 466 222 443 175 q 489 347 489 268 q 466 473 489 426 q 389 519 443 519 q 312 473 335 519 q 289 347 289 426 m 294 981 l 483 981 l 594 797 l 450 797 l 392 883 l 386 883 l 328 797 l 183 797 l 294 981 m 639 1067 l 811 1067 l 678 900 l 547 900 l 639 1067 z "},"ồ":{"ha":778,"x_min":44,"x_max":761,"o":"m 44 347 q 73 501 44 433 q 149 616 101 569 q 260 687 197 663 q 389 711 322 711 q 517 687 456 711 q 627 616 579 663 q 704 501 675 569 q 733 347 733 433 q 704 193 733 261 q 627 78 675 125 q 517 8 579 32 q 389 -17 456 -17 q 260 8 322 -17 q 149 78 197 32 q 73 193 101 125 q 44 347 44 261 m 289 347 q 312 222 289 268 q 389 175 335 175 q 466 222 443 175 q 489 347 489 268 q 466 473 489 426 q 389 519 443 519 q 312 473 335 519 q 289 347 289 426 m 294 981 l 483 981 l 594 797 l 450 797 l 392 883 l 386 883 l 328 797 l 183 797 l 294 981 m 761 900 l 631 900 l 497 1067 l 669 1067 l 761 900 z "},"ổ":{"ha":778,"x_min":44,"x_max":767,"o":"m 44 347 q 73 501 44 433 q 149 616 101 569 q 260 687 197 663 q 389 711 322 711 q 517 687 456 711 q 627 616 579 663 q 704 501 675 569 q 733 347 733 433 q 704 193 733 261 q 627 78 675 125 q 517 8 579 32 q 389 -17 456 -17 q 260 8 322 -17 q 149 78 197 32 q 73 193 101 125 q 44 347 44 261 m 289 347 q 312 222 289 268 q 389 175 335 175 q 466 222 443 175 q 489 347 489 268 q 466 473 489 426 q 389 519 443 519 q 312 473 335 519 q 289 347 289 426 m 294 981 l 483 981 l 594 797 l 450 797 l 392 883 l 386 883 l 328 797 l 183 797 l 294 981 m 578 950 q 604 960 594 953 q 614 983 614 967 q 596 1010 614 1000 q 525 1025 578 1021 l 547 1122 q 653 1110 611 1119 q 721 1087 696 1101 q 756 1052 746 1072 q 767 1008 767 1032 q 753 948 767 972 q 715 908 739 924 q 660 885 692 893 q 592 872 628 876 l 578 950 z "},"ỗ":{"ha":778,"x_min":44,"x_max":733,"o":"m 44 347 q 73 501 44 433 q 149 616 101 569 q 260 687 197 663 q 389 711 322 711 q 517 687 456 711 q 627 616 579 663 q 704 501 675 569 q 733 347 733 433 q 704 193 733 261 q 627 78 675 125 q 517 8 579 32 q 389 -17 456 -17 q 260 8 322 -17 q 149 78 197 32 q 73 193 101 125 q 44 347 44 261 m 289 347 q 312 222 289 268 q 389 175 335 175 q 466 222 443 175 q 489 347 489 268 q 466 473 489 426 q 389 519 443 519 q 312 473 335 519 q 289 347 289 426 m 281 956 l 497 956 l 606 797 l 453 797 l 392 875 l 386 875 l 325 797 l 172 797 l 281 956 m 178 1006 q 227 1136 189 1097 q 311 1175 265 1175 q 360 1167 339 1175 q 397 1150 381 1160 q 426 1133 413 1140 q 453 1125 439 1125 q 481 1136 469 1125 q 500 1175 493 1147 l 600 1175 q 551 1044 589 1083 q 467 1006 513 1006 q 418 1013 439 1006 q 381 1031 397 1021 q 352 1048 365 1040 q 325 1056 339 1056 q 297 1044 308 1056 q 278 1006 285 1033 l 178 1006 z "},"ộ":{"ha":778,"x_min":44,"x_max":733,"o":"m 44 347 q 73 501 44 433 q 149 616 101 569 q 260 687 197 663 q 389 711 322 711 q 517 687 456 711 q 627 616 579 663 q 704 501 675 569 q 733 347 733 433 q 704 193 733 261 q 627 78 675 125 q 517 8 579 32 q 389 -17 456 -17 q 260 8 322 -17 q 149 78 197 32 q 73 193 101 125 q 44 347 44 261 m 289 347 q 312 222 289 268 q 389 175 335 175 q 466 222 443 175 q 489 347 489 268 q 466 473 489 426 q 389 519 443 519 q 312 473 335 519 q 289 347 289 426 m 294 1011 l 483 1011 l 617 797 l 458 797 l 392 900 l 386 900 l 319 797 l 161 797 l 294 1011 m 389 -325 q 297 -292 332 -325 q 261 -206 261 -258 q 297 -119 261 -153 q 389 -86 332 -86 q 481 -119 446 -86 q 517 -206 517 -153 q 481 -292 517 -258 q 389 -325 446 -325 z "},"ø":{"ha":778,"x_min":44,"x_max":733,"o":"m 328 186 q 389 167 351 167 q 473 213 443 167 q 503 333 503 258 q 499 399 503 369 l 328 186 m 449 510 q 389 528 425 528 q 305 482 335 528 q 275 361 275 436 q 276 328 275 343 q 278 297 276 313 l 449 510 m 651 589 q 711 483 689 544 q 733 347 733 422 q 704 193 733 261 q 627 78 675 125 q 517 8 579 32 q 389 -17 456 -17 q 207 35 290 -17 l 150 -36 l 64 31 l 125 107 q 66 212 88 151 q 44 347 44 272 q 73 501 44 433 q 149 616 101 569 q 260 687 197 663 q 389 711 322 711 q 569 661 488 711 l 628 733 l 714 667 l 651 589 z "},"œ":{"ha":1133,"x_min":44,"x_max":1083,"o":"m 286 347 q 309 222 286 268 q 378 175 332 175 q 448 222 424 175 q 472 347 472 268 q 448 473 472 426 q 378 519 424 519 q 309 473 332 519 q 286 347 286 426 m 44 347 q 71 501 44 433 q 143 616 97 569 q 249 687 189 663 q 378 711 310 711 q 500 683 449 711 q 592 608 551 654 q 690 685 636 658 q 803 711 744 711 q 926 684 874 711 q 1014 610 979 657 q 1066 501 1049 564 q 1083 369 1083 439 q 1080 313 1083 338 q 1074 275 1076 288 l 692 275 q 747 193 707 217 q 839 169 786 169 q 908 183 875 169 q 978 217 940 196 l 1058 64 q 933 3 1001 24 q 806 -17 864 -17 q 694 10 749 -17 q 594 86 639 36 q 498 10 550 36 q 372 -17 446 -17 q 244 8 304 -17 q 140 78 185 32 q 70 193 96 125 q 44 347 44 261 m 881 419 q 862 498 881 465 q 794 531 843 531 q 727 506 754 531 q 692 419 700 481 l 881 419 z "},"ơ":{"ha":778,"x_min":44,"x_max":772,"o":"m 389 175 q 466 222 443 175 q 489 347 489 268 q 466 473 489 426 q 389 519 443 519 q 312 473 335 519 q 289 347 289 426 q 312 222 289 268 q 389 175 335 175 m 728 900 q 758 849 744 881 q 772 781 772 818 q 734 669 772 713 q 635 610 696 626 q 706 497 679 563 q 733 347 733 431 q 704 193 733 261 q 627 78 675 125 q 517 8 579 32 q 389 -17 456 -17 q 260 8 322 -17 q 149 78 197 32 q 73 193 101 125 q 44 347 44 261 q 73 501 44 433 q 149 616 101 569 q 260 687 197 663 q 389 711 322 711 q 524 685 456 711 q 570 709 551 692 q 589 764 589 726 q 581 802 589 785 q 567 831 574 819 l 728 900 z "},"ớ":{"ha":778,"x_min":44,"x_max":772,"o":"m 389 175 q 466 222 443 175 q 489 347 489 268 q 466 473 489 426 q 389 519 443 519 q 312 473 335 519 q 289 347 289 426 q 312 222 289 268 q 389 175 335 175 m 728 900 q 758 849 744 881 q 772 781 772 818 q 734 669 772 713 q 635 610 696 626 q 706 497 679 563 q 733 347 733 431 q 704 193 733 261 q 627 78 675 125 q 517 8 579 32 q 389 -17 456 -17 q 260 8 322 -17 q 149 78 197 32 q 73 193 101 125 q 44 347 44 261 q 73 501 44 433 q 149 616 101 569 q 260 687 197 663 q 389 711 322 711 q 524 685 456 711 q 570 709 551 692 q 589 764 589 726 q 581 802 589 785 q 567 831 574 819 l 728 900 m 439 797 l 267 797 l 389 1011 l 617 1011 l 439 797 z "},"ờ":{"ha":778,"x_min":44,"x_max":772,"o":"m 389 175 q 466 222 443 175 q 489 347 489 268 q 466 473 489 426 q 389 519 443 519 q 312 473 335 519 q 289 347 289 426 q 312 222 289 268 q 389 175 335 175 m 728 900 q 758 849 744 881 q 772 781 772 818 q 734 669 772 713 q 635 610 696 626 q 706 497 679 563 q 733 347 733 431 q 704 193 733 261 q 627 78 675 125 q 517 8 579 32 q 389 -17 456 -17 q 260 8 322 -17 q 149 78 197 32 q 73 193 101 125 q 44 347 44 261 q 73 501 44 433 q 149 616 101 569 q 260 687 197 663 q 389 711 322 711 q 524 685 456 711 q 570 709 551 692 q 589 764 589 726 q 581 802 589 785 q 567 831 574 819 l 728 900 m 161 1011 l 389 1011 l 511 797 l 339 797 l 161 1011 z "},"ở":{"ha":778,"x_min":44,"x_max":772,"o":"m 389 175 q 466 222 443 175 q 489 347 489 268 q 466 473 489 426 q 389 519 443 519 q 312 473 335 519 q 289 347 289 426 q 312 222 289 268 q 389 175 335 175 m 728 900 q 758 849 744 881 q 772 781 772 818 q 734 669 772 713 q 635 610 696 626 q 706 497 679 563 q 733 347 733 431 q 704 193 733 261 q 627 78 675 125 q 517 8 579 32 q 389 -17 456 -17 q 260 8 322 -17 q 149 78 197 32 q 73 193 101 125 q 44 347 44 261 q 73 501 44 433 q 149 616 101 569 q 260 687 197 663 q 389 711 322 711 q 524 685 456 711 q 570 709 551 692 q 589 764 589 726 q 581 802 589 785 q 567 831 574 819 l 728 900 m 319 867 q 359 876 343 869 q 375 900 375 883 q 351 927 375 917 q 267 942 328 938 l 294 1058 q 415 1045 367 1056 q 492 1017 463 1035 q 533 976 521 1000 q 544 925 544 953 q 528 860 544 888 q 483 815 511 833 q 417 786 454 796 q 336 775 379 776 l 319 867 z "},"ỡ":{"ha":778,"x_min":44,"x_max":772,"o":"m 389 175 q 466 222 443 175 q 489 347 489 268 q 466 473 489 426 q 389 519 443 519 q 312 473 335 519 q 289 347 289 426 q 312 222 289 268 q 389 175 335 175 m 728 900 q 758 849 744 881 q 772 781 772 818 q 734 669 772 713 q 635 610 696 626 q 706 497 679 563 q 733 347 733 431 q 704 193 733 261 q 627 78 675 125 q 517 8 579 32 q 389 -17 456 -17 q 260 8 322 -17 q 149 78 197 32 q 73 193 101 125 q 44 347 44 261 q 73 501 44 433 q 149 616 101 569 q 260 687 197 663 q 389 711 322 711 q 524 685 456 711 q 570 709 551 692 q 589 764 589 726 q 581 802 589 785 q 567 831 574 819 l 728 900 m 144 797 q 200 952 157 904 q 300 1000 243 1000 q 352 991 328 1000 q 397 971 376 982 q 435 951 418 960 q 467 942 451 942 q 494 954 483 942 q 514 1000 506 967 l 633 1000 q 578 845 621 893 q 478 797 535 797 q 426 806 450 797 q 381 826 401 815 q 342 847 360 838 q 311 856 325 856 q 283 843 294 856 q 264 797 272 831 l 144 797 l 144 797 z "},"ợ":{"ha":778,"x_min":44,"x_max":772,"o":"m 389 175 q 466 222 443 175 q 489 347 489 268 q 466 473 489 426 q 389 519 443 519 q 312 473 335 519 q 289 347 289 426 q 312 222 289 268 q 389 175 335 175 m 728 900 q 758 849 744 881 q 772 781 772 818 q 734 669 772 713 q 635 610 696 626 q 706 497 679 563 q 733 347 733 431 q 704 193 733 261 q 627 78 675 125 q 517 8 579 32 q 389 -17 456 -17 q 260 8 322 -17 q 149 78 197 32 q 73 193 101 125 q 44 347 44 261 q 73 501 44 433 q 149 616 101 569 q 260 687 197 663 q 389 711 322 711 q 524 685 456 711 q 570 709 551 692 q 589 764 589 726 q 581 802 589 785 q 567 831 574 819 l 728 900 m 389 -325 q 297 -292 332 -325 q 261 -206 261 -258 q 297 -119 261 -153 q 389 -86 332 -86 q 481 -119 446 -86 q 517 -206 517 -153 q 481 -292 517 -258 q 389 -325 446 -325 z "},"ǫ":{"ha":778,"x_min":44,"x_max":733,"o":"m 258 -164 q 284 -73 258 -111 q 335 -12 310 -35 q 224 24 276 -4 q 131 99 171 53 q 68 207 92 144 q 44 347 44 269 q 73 501 44 433 q 149 616 101 569 q 260 687 197 663 q 389 711 322 711 q 517 687 456 711 q 627 616 579 663 q 704 501 675 569 q 733 347 733 433 q 717 226 733 279 q 670 131 700 172 q 599 58 640 89 q 506 3 557 26 q 435 -51 454 -21 q 417 -108 417 -81 q 434 -144 417 -133 q 472 -156 451 -156 q 497 -151 485 -156 q 519 -139 510 -146 l 567 -244 q 494 -281 538 -268 q 414 -294 450 -294 q 303 -262 349 -294 q 258 -164 258 -229 m 289 347 q 312 222 289 268 q 389 175 335 175 q 466 222 443 175 q 489 347 489 268 q 466 473 489 426 q 389 519 443 519 q 312 473 335 519 q 289 347 289 426 z "},"ŕ":{"ha":581,"x_min":81,"x_max":586,"o":"m 81 694 l 275 694 l 292 575 l 297 575 q 390 678 336 646 q 494 711 443 711 q 546 708 526 711 q 581 697 565 704 l 542 492 q 505 499 522 496 q 464 503 488 503 q 385 477 426 503 q 319 386 344 451 l 319 0 l 81 0 l 81 694 m 408 797 l 236 797 l 358 1011 l 586 1011 l 408 797 z "},"ŗ":{"ha":581,"x_min":47,"x_max":581,"o":"m 81 694 l 275 694 l 292 575 l 297 575 q 390 678 336 646 q 494 711 443 711 q 546 708 526 711 q 581 697 565 704 l 542 492 q 505 499 522 496 q 464 503 488 503 q 385 477 426 503 q 319 386 344 451 l 319 0 l 81 0 l 81 694 m 147 -56 q 288 -92 249 -64 q 328 -175 328 -121 q 306 -240 328 -212 q 249 -285 285 -267 q 165 -314 213 -304 q 64 -325 117 -324 l 47 -233 q 127 -219 96 -229 q 158 -186 158 -210 q 147 -158 158 -169 q 103 -139 135 -147 l 147 -56 l 147 -56 z "},"ř":{"ha":581,"x_min":81,"x_max":586,"o":"m 81 694 l 275 694 l 292 575 l 297 575 q 390 678 336 646 q 494 711 443 711 q 546 708 526 711 q 581 697 565 704 l 542 492 q 505 499 522 496 q 464 503 488 503 q 385 477 426 503 q 319 386 344 451 l 319 0 l 81 0 l 81 694 m 131 1011 l 289 1011 l 356 908 l 361 908 l 428 1011 l 586 1011 l 453 797 l 264 797 l 131 1011 z "},"ṛ":{"ha":581,"x_min":72,"x_max":581,"o":"m 81 694 l 275 694 l 292 575 l 297 575 q 390 678 336 646 q 494 711 443 711 q 546 708 526 711 q 581 697 565 704 l 542 492 q 505 499 522 496 q 464 503 488 503 q 385 477 426 503 q 319 386 344 451 l 319 0 l 81 0 l 81 694 m 200 -325 q 108 -292 143 -325 q 72 -206 72 -258 q 108 -119 72 -153 q 200 -86 143 -86 q 292 -119 257 -86 q 328 -206 328 -153 q 292 -292 328 -258 q 200 -325 257 -325 z "},"ṝ":{"ha":581,"x_min":72,"x_max":581,"o":"m 81 694 l 275 694 l 292 575 l 297 575 q 390 678 336 646 q 494 711 443 711 q 546 708 526 711 q 581 697 565 704 l 542 492 q 505 499 522 496 q 464 503 488 503 q 385 477 426 503 q 319 386 344 451 l 319 0 l 81 0 l 81 694 m 158 967 l 558 967 l 558 817 l 158 817 l 158 967 m 200 -325 q 108 -292 143 -325 q 72 -206 72 -258 q 108 -119 72 -153 q 200 -86 143 -86 q 292 -119 257 -86 q 328 -206 328 -153 q 292 -292 328 -258 q 200 -325 257 -325 z "},"ṟ":{"ha":581,"x_min":0,"x_max":581,"o":"m 81 694 l 275 694 l 292 575 l 297 575 q 390 678 336 646 q 494 711 443 711 q 546 708 526 711 q 581 697 565 704 l 542 492 q 505 499 522 496 q 464 503 488 503 q 385 477 426 503 q 319 386 344 451 l 319 0 l 81 0 l 81 694 m 400 -272 l 0 -272 l 0 -122 l 400 -122 l 400 -272 z "},"ś":{"ha":628,"x_min":25,"x_max":592,"o":"m 131 228 q 300 158 225 158 q 353 169 338 158 q 369 200 369 179 q 358 224 369 214 q 328 244 347 235 q 286 261 310 253 q 236 281 263 269 q 174 310 206 293 q 118 353 143 328 q 77 410 93 378 q 61 486 61 443 q 81 579 61 538 q 138 650 101 621 q 224 695 174 679 q 336 711 275 711 q 484 683 422 711 q 592 619 546 654 l 486 478 q 413 521 449 506 q 344 536 376 536 q 283 497 283 536 q 294 474 283 483 q 322 456 304 464 q 364 440 340 447 q 414 422 388 432 q 476 394 444 411 q 534 353 508 378 q 576 295 560 329 q 592 214 592 261 q 572 123 592 165 q 515 49 553 81 q 422 1 478 18 q 294 -17 367 -17 q 153 10 228 -17 q 25 81 79 36 l 131 228 m 386 797 l 214 797 l 336 1011 l 564 1011 l 386 797 z "},"ŝ":{"ha":628,"x_min":25,"x_max":592,"o":"m 131 228 q 300 158 225 158 q 353 169 338 158 q 369 200 369 179 q 358 224 369 214 q 328 244 347 235 q 286 261 310 253 q 236 281 263 269 q 174 310 206 293 q 118 353 143 328 q 77 410 93 378 q 61 486 61 443 q 81 579 61 538 q 138 650 101 621 q 224 695 174 679 q 336 711 275 711 q 484 683 422 711 q 592 619 546 654 l 486 478 q 413 521 449 506 q 344 536 376 536 q 283 497 283 536 q 294 474 283 483 q 322 456 304 464 q 364 440 340 447 q 414 422 388 432 q 476 394 444 411 q 534 353 508 378 q 576 295 560 329 q 592 214 592 261 q 572 123 592 165 q 515 49 553 81 q 422 1 478 18 q 294 -17 367 -17 q 153 10 228 -17 q 25 81 79 36 l 131 228 m 242 1011 l 431 1011 l 564 797 l 406 797 l 339 900 l 333 900 l 267 797 l 108 797 l 242 1011 z "},"š":{"ha":628,"x_min":25,"x_max":592,"o":"m 131 228 q 300 158 225 158 q 353 169 338 158 q 369 200 369 179 q 358 224 369 214 q 328 244 347 235 q 286 261 310 253 q 236 281 263 269 q 174 310 206 293 q 118 353 143 328 q 77 410 93 378 q 61 486 61 443 q 81 579 61 538 q 138 650 101 621 q 224 695 174 679 q 336 711 275 711 q 484 683 422 711 q 592 619 546 654 l 486 478 q 413 521 449 506 q 344 536 376 536 q 283 497 283 536 q 294 474 283 483 q 322 456 304 464 q 364 440 340 447 q 414 422 388 432 q 476 394 444 411 q 534 353 508 378 q 576 295 560 329 q 592 214 592 261 q 572 123 592 165 q 515 49 553 81 q 422 1 478 18 q 294 -17 367 -17 q 153 10 228 -17 q 25 81 79 36 l 131 228 m 108 1011 l 267 1011 l 333 908 l 339 908 l 406 1011 l 564 1011 l 431 797 l 242 797 l 108 1011 z "},"ş":{"ha":628,"x_min":25,"x_max":592,"o":"m 131 228 q 300 158 225 158 q 353 169 338 158 q 369 200 369 179 q 358 224 369 214 q 328 244 347 235 q 286 261 310 253 q 236 281 263 269 q 174 310 206 293 q 118 353 143 328 q 77 410 93 378 q 61 486 61 443 q 81 579 61 538 q 138 650 101 621 q 224 695 174 679 q 336 711 275 711 q 484 683 422 711 q 592 619 546 654 l 486 478 q 413 521 449 506 q 344 536 376 536 q 283 497 283 536 q 294 474 283 483 q 322 456 304 464 q 364 440 340 447 q 414 422 388 432 q 476 394 444 411 q 534 353 508 378 q 576 295 560 329 q 592 214 592 261 q 572 123 592 165 q 515 49 553 81 q 422 1 478 18 q 294 -17 367 -17 q 153 10 228 -17 q 25 81 79 36 l 131 228 m 272 6 l 408 6 l 383 -56 q 442 -92 419 -68 q 464 -161 464 -117 q 442 -226 464 -199 q 385 -272 421 -253 q 301 -300 349 -290 q 200 -311 253 -310 l 183 -219 q 263 -202 232 -215 q 294 -161 294 -189 q 280 -132 294 -146 q 217 -106 265 -118 l 272 6 z "},"ș":{"ha":628,"x_min":25,"x_max":592,"o":"m 131 228 q 300 158 225 158 q 353 169 338 158 q 369 200 369 179 q 358 224 369 214 q 328 244 347 235 q 286 261 310 253 q 236 281 263 269 q 174 310 206 293 q 118 353 143 328 q 77 410 93 378 q 61 486 61 443 q 81 579 61 538 q 138 650 101 621 q 224 695 174 679 q 336 711 275 711 q 484 683 422 711 q 592 619 546 654 l 486 478 q 413 521 449 506 q 344 536 376 536 q 283 497 283 536 q 294 474 283 483 q 322 456 304 464 q 364 440 340 447 q 414 422 388 432 q 476 394 444 411 q 534 353 508 378 q 576 295 560 329 q 592 214 592 261 q 572 123 592 165 q 515 49 553 81 q 422 1 478 18 q 294 -17 367 -17 q 153 10 228 -17 q 25 81 79 36 l 131 228 m 275 -56 q 416 -92 376 -64 q 456 -175 456 -121 q 434 -240 456 -212 q 376 -285 413 -267 q 292 -314 340 -304 q 192 -325 244 -324 l 175 -233 q 255 -219 224 -229 q 286 -186 286 -210 q 274 -158 286 -169 q 231 -139 263 -147 l 275 -56 l 275 -56 z "},"ṡ":{"ha":628,"x_min":25,"x_max":592,"o":"m 131 228 q 300 158 225 158 q 353 169 338 158 q 369 200 369 179 q 358 224 369 214 q 328 244 347 235 q 286 261 310 253 q 236 281 263 269 q 174 310 206 293 q 118 353 143 328 q 77 410 93 378 q 61 486 61 443 q 81 579 61 538 q 138 650 101 621 q 224 695 174 679 q 336 711 275 711 q 484 683 422 711 q 592 619 546 654 l 486 478 q 413 521 449 506 q 344 536 376 536 q 283 497 283 536 q 294 474 283 483 q 322 456 304 464 q 364 440 340 447 q 414 422 388 432 q 476 394 444 411 q 534 353 508 378 q 576 295 560 329 q 592 214 592 261 q 572 123 592 165 q 515 49 553 81 q 422 1 478 18 q 294 -17 367 -17 q 153 10 228 -17 q 25 81 79 36 l 131 228 m 336 781 q 244 814 279 781 q 208 900 208 847 q 244 986 208 953 q 336 1019 279 1019 q 428 986 393 1019 q 464 900 464 953 q 428 814 464 847 q 336 781 393 781 z "},"ṣ":{"ha":628,"x_min":25,"x_max":592,"o":"m 131 228 q 300 158 225 158 q 353 169 338 158 q 369 200 369 179 q 358 224 369 214 q 328 244 347 235 q 286 261 310 253 q 236 281 263 269 q 174 310 206 293 q 118 353 143 328 q 77 410 93 378 q 61 486 61 443 q 81 579 61 538 q 138 650 101 621 q 224 695 174 679 q 336 711 275 711 q 484 683 422 711 q 592 619 546 654 l 486 478 q 413 521 449 506 q 344 536 376 536 q 283 497 283 536 q 294 474 283 483 q 322 456 304 464 q 364 440 340 447 q 414 422 388 432 q 476 394 444 411 q 534 353 508 378 q 576 295 560 329 q 592 214 592 261 q 572 123 592 165 q 515 49 553 81 q 422 1 478 18 q 294 -17 367 -17 q 153 10 228 -17 q 25 81 79 36 l 131 228 m 328 -325 q 235 -292 271 -325 q 200 -206 200 -258 q 235 -119 200 -153 q 328 -86 271 -86 q 420 -119 385 -86 q 456 -206 456 -153 q 420 -292 456 -258 q 328 -325 385 -325 z "},"ß":{"ha":908,"x_min":81,"x_max":872,"o":"m 81 661 q 101 788 81 729 q 166 889 122 846 q 276 956 210 932 q 433 981 342 981 q 567 960 510 981 q 663 906 625 939 q 720 828 701 872 q 739 739 739 785 q 723 656 739 690 q 688 597 707 622 q 654 551 669 572 q 639 508 639 531 q 656 475 639 489 q 699 447 674 461 q 756 414 725 432 q 812 370 786 396 q 855 308 838 344 q 872 219 872 271 q 856 128 872 171 q 806 53 839 85 q 722 2 772 21 q 603 -17 671 -17 q 491 -1 540 -17 q 389 44 442 15 l 469 206 q 534 169 503 181 q 594 158 565 158 q 639 172 622 158 q 656 208 656 185 q 638 245 656 229 q 595 276 621 261 q 539 308 569 290 q 483 348 508 325 q 440 402 457 371 q 422 478 422 433 q 436 543 422 515 q 467 596 450 571 q 497 648 483 621 q 511 711 511 675 q 491 771 511 747 q 433 794 471 794 q 345 751 374 794 q 317 636 317 707 l 317 0 l 81 0 l 81 661 z "},"ť":{"ha":556,"x_min":19,"x_max":542,"o":"m 111 508 l 19 508 l 19 686 l 125 694 l 153 875 l 350 875 l 350 694 l 508 694 l 508 508 l 350 508 l 350 271 q 375 191 350 213 q 433 169 400 169 q 466 173 450 169 q 494 181 482 176 l 531 8 q 464 -8 503 0 q 367 -17 425 -17 q 251 3 299 -17 q 172 61 203 24 q 126 151 140 99 q 111 267 111 203 l 111 508 m 400 761 l 392 1075 l 542 1075 l 539 972 l 500 761 l 400 761 z "},"ţ":{"ha":556,"x_min":19,"x_max":531,"o":"m 111 508 l 19 508 l 19 686 l 125 694 l 153 875 l 350 875 l 350 694 l 508 694 l 508 508 l 350 508 l 350 271 q 375 191 350 213 q 433 169 400 169 q 466 173 450 169 q 494 181 482 176 l 531 8 q 464 -8 503 0 q 367 -17 425 -17 q 251 3 299 -17 q 172 61 203 24 q 126 151 140 99 q 111 267 111 203 l 111 508 m 283 6 l 419 6 l 394 -56 q 453 -92 431 -68 q 475 -161 475 -117 q 453 -226 475 -199 q 396 -272 432 -253 q 312 -300 360 -290 q 211 -311 264 -310 l 194 -219 q 274 -202 243 -215 q 306 -161 306 -189 q 291 -132 306 -146 q 228 -106 276 -118 l 283 6 z "},"ț":{"ha":556,"x_min":19,"x_max":531,"o":"m 111 508 l 19 508 l 19 686 l 125 694 l 153 875 l 350 875 l 350 694 l 508 694 l 508 508 l 350 508 l 350 271 q 375 191 350 213 q 433 169 400 169 q 466 173 450 169 q 494 181 482 176 l 531 8 q 464 -8 503 0 q 367 -17 425 -17 q 251 3 299 -17 q 172 61 203 24 q 126 151 140 99 q 111 267 111 203 l 111 508 m 286 -56 q 427 -92 388 -64 q 467 -175 467 -121 q 445 -240 467 -212 q 388 -285 424 -267 q 303 -314 351 -304 q 203 -325 256 -324 l 186 -233 q 266 -219 235 -229 q 297 -186 297 -210 q 285 -158 297 -169 q 242 -139 274 -147 l 286 -56 l 286 -56 z "},"ṭ":{"ha":556,"x_min":19,"x_max":531,"o":"m 111 508 l 19 508 l 19 686 l 125 694 l 153 875 l 350 875 l 350 694 l 508 694 l 508 508 l 350 508 l 350 271 q 375 191 350 213 q 433 169 400 169 q 466 173 450 169 q 494 181 482 176 l 531 8 q 464 -8 503 0 q 367 -17 425 -17 q 251 3 299 -17 q 172 61 203 24 q 126 151 140 99 q 111 267 111 203 l 111 508 m 339 -325 q 247 -292 282 -325 q 211 -206 211 -258 q 247 -119 211 -153 q 339 -86 282 -86 q 431 -119 396 -86 q 467 -206 467 -153 q 431 -292 467 -258 q 339 -325 396 -325 z "},"ṯ":{"ha":556,"x_min":19,"x_max":539,"o":"m 111 508 l 19 508 l 19 686 l 125 694 l 153 875 l 350 875 l 350 694 l 508 694 l 508 508 l 350 508 l 350 271 q 375 191 350 213 q 433 169 400 169 q 466 173 450 169 q 494 181 482 176 l 531 8 q 464 -8 503 0 q 367 -17 425 -17 q 251 3 299 -17 q 172 61 203 24 q 126 151 140 99 q 111 267 111 203 l 111 508 m 539 -272 l 139 -272 l 139 -122 l 539 -122 l 539 -272 z "},"ẗ":{"ha":556,"x_min":-8,"x_max":531,"o":"m 111 508 l 19 508 l 19 686 l 125 694 l 153 875 l 350 875 l 350 694 l 508 694 l 508 508 l 350 508 l 350 271 q 375 191 350 213 q 433 169 400 169 q 466 173 450 169 q 494 181 482 176 l 531 8 q 464 -8 503 0 q 367 -17 425 -17 q 251 3 299 -17 q 172 61 203 24 q 126 151 140 99 q 111 267 111 203 l 111 508 m 100 981 q 22 1012 51 981 q -8 1089 -8 1043 q 22 1166 -8 1135 q 100 1197 51 1197 q 178 1166 149 1197 q 208 1089 208 1135 q 178 1012 208 1043 q 100 981 149 981 m 389 981 q 310 1012 340 981 q 281 1089 281 1043 q 310 1166 281 1135 q 389 1197 340 1197 q 467 1166 438 1197 q 497 1089 497 1135 q 467 1012 497 1043 q 389 981 438 981 z "},"ù":{"ha":803,"x_min":75,"x_max":722,"o":"m 75 694 l 314 694 l 314 297 q 331 208 314 231 q 383 186 347 186 q 438 200 417 186 q 483 247 460 214 l 483 694 l 722 694 l 722 0 l 528 0 l 511 92 l 506 92 q 413 13 464 42 q 292 -17 363 -17 q 194 3 235 -17 q 126 60 153 24 q 88 149 100 97 q 75 267 75 201 l 75 694 m 175 1011 l 403 1011 l 525 797 l 353 797 l 175 1011 z "},"ú":{"ha":803,"x_min":75,"x_max":722,"o":"m 75 694 l 314 694 l 314 297 q 331 208 314 231 q 383 186 347 186 q 438 200 417 186 q 483 247 460 214 l 483 694 l 722 694 l 722 0 l 528 0 l 511 92 l 506 92 q 413 13 464 42 q 292 -17 363 -17 q 194 3 235 -17 q 126 60 153 24 q 88 149 100 97 q 75 267 75 201 l 75 694 m 453 797 l 281 797 l 403 1011 l 631 1011 l 453 797 z "},"û":{"ha":803,"x_min":75,"x_max":722,"o":"m 75 694 l 314 694 l 314 297 q 331 208 314 231 q 383 186 347 186 q 438 200 417 186 q 483 247 460 214 l 483 694 l 722 694 l 722 0 l 528 0 l 511 92 l 506 92 q 413 13 464 42 q 292 -17 363 -17 q 194 3 235 -17 q 126 60 153 24 q 88 149 100 97 q 75 267 75 201 l 75 694 m 308 1011 l 497 1011 l 631 797 l 472 797 l 406 900 l 400 900 l 333 797 l 175 797 l 308 1011 z "},"ũ":{"ha":803,"x_min":75,"x_max":722,"o":"m 75 694 l 314 694 l 314 297 q 331 208 314 231 q 383 186 347 186 q 438 200 417 186 q 483 247 460 214 l 483 694 l 722 694 l 722 0 l 528 0 l 511 92 l 506 92 q 413 13 464 42 q 292 -17 363 -17 q 194 3 235 -17 q 126 60 153 24 q 88 149 100 97 q 75 267 75 201 l 75 694 m 158 797 q 214 952 171 904 q 314 1000 257 1000 q 366 991 342 1000 q 411 971 390 982 q 449 951 432 960 q 481 942 465 942 q 508 954 497 942 q 528 1000 519 967 l 647 1000 q 592 845 635 893 q 492 797 549 797 q 440 806 464 797 q 394 826 415 815 q 356 847 374 838 q 325 856 339 856 q 297 843 308 856 q 278 797 286 831 l 158 797 l 158 797 z "},"ü":{"ha":803,"x_min":75,"x_max":722,"o":"m 75 694 l 314 694 l 314 297 q 331 208 314 231 q 383 186 347 186 q 438 200 417 186 q 483 247 460 214 l 483 694 l 722 694 l 722 0 l 528 0 l 511 92 l 506 92 q 413 13 464 42 q 292 -17 363 -17 q 194 3 235 -17 q 126 60 153 24 q 88 149 100 97 q 75 267 75 201 l 75 694 m 258 783 q 180 815 210 783 q 150 892 150 846 q 180 969 150 938 q 258 1000 210 1000 q 337 969 307 1000 q 367 892 367 938 q 337 815 367 846 q 258 783 307 783 m 547 783 q 469 815 499 783 q 439 892 439 846 q 469 969 439 938 q 547 1000 499 1000 q 626 969 596 1000 q 656 892 656 938 q 626 815 656 846 q 547 783 596 783 z "},"ū":{"ha":803,"x_min":75,"x_max":722,"o":"m 75 694 l 314 694 l 314 297 q 331 208 314 231 q 383 186 347 186 q 438 200 417 186 q 483 247 460 214 l 483 694 l 722 694 l 722 0 l 528 0 l 511 92 l 506 92 q 413 13 464 42 q 292 -17 363 -17 q 194 3 235 -17 q 126 60 153 24 q 88 149 100 97 q 75 267 75 201 l 75 694 m 203 967 l 603 967 l 603 817 l 203 817 l 203 967 z "},"ŭ":{"ha":803,"x_min":75,"x_max":722,"o":"m 75 694 l 314 694 l 314 297 q 331 208 314 231 q 383 186 347 186 q 438 200 417 186 q 483 247 460 214 l 483 694 l 722 694 l 722 0 l 528 0 l 511 92 l 506 92 q 413 13 464 42 q 292 -17 363 -17 q 194 3 235 -17 q 126 60 153 24 q 88 149 100 97 q 75 267 75 201 l 75 694 m 403 797 q 316 813 353 797 q 254 856 279 829 q 217 920 229 883 q 203 997 204 957 l 333 997 q 354 945 338 965 q 403 925 371 925 q 451 945 435 925 q 472 997 468 965 l 603 997 q 589 920 601 957 q 551 856 576 883 q 490 813 526 829 q 403 797 453 797 z "},"ů":{"ha":803,"x_min":75,"x_max":722,"o":"m 75 694 l 314 694 l 314 297 q 331 208 314 231 q 383 186 347 186 q 438 200 417 186 q 483 247 460 214 l 483 694 l 722 694 l 722 0 l 528 0 l 511 92 l 506 92 q 413 13 464 42 q 292 -17 363 -17 q 194 3 235 -17 q 126 60 153 24 q 88 149 100 97 q 75 267 75 201 l 75 694 m 403 764 q 282 804 328 764 q 236 911 236 844 q 282 1018 236 978 q 403 1058 328 1058 q 524 1018 478 1058 q 569 911 569 978 q 524 804 569 844 q 403 764 478 764 m 403 850 q 440 867 425 850 q 456 911 456 883 q 440 956 456 939 q 403 972 425 972 q 365 956 381 972 q 350 911 350 939 q 365 867 350 883 q 403 850 381 850 z "},"ű":{"ha":803,"x_min":75,"x_max":744,"o":"m 75 694 l 314 694 l 314 297 q 331 208 314 231 q 383 186 347 186 q 438 200 417 186 q 483 247 460 214 l 483 694 l 722 694 l 722 0 l 528 0 l 511 92 l 506 92 q 413 13 464 42 q 292 -17 363 -17 q 194 3 235 -17 q 126 60 153 24 q 88 149 100 97 q 75 267 75 201 l 75 694 m 308 1011 l 494 1011 l 358 797 l 214 797 l 308 1011 m 558 1011 l 744 1011 l 608 797 l 464 797 l 558 1011 z "},"ǔ":{"ha":803,"x_min":75,"x_max":722,"o":"m 75 694 l 314 694 l 314 297 q 331 208 314 231 q 383 186 347 186 q 438 200 417 186 q 483 247 460 214 l 483 694 l 722 694 l 722 0 l 528 0 l 511 92 l 506 92 q 413 13 464 42 q 292 -17 363 -17 q 194 3 235 -17 q 126 60 153 24 q 88 149 100 97 q 75 267 75 201 l 75 694 m 175 1011 l 333 1011 l 400 908 l 406 908 l 472 1011 l 631 1011 l 497 797 l 308 797 l 175 1011 z "},"ǖ":{"ha":803,"x_min":75,"x_max":722,"o":"m 75 694 l 314 694 l 314 297 q 331 208 314 231 q 383 186 347 186 q 438 200 417 186 q 483 247 460 214 l 483 694 l 722 694 l 722 0 l 528 0 l 511 92 l 506 92 q 413 13 464 42 q 292 -17 363 -17 q 194 3 235 -17 q 126 60 153 24 q 88 149 100 97 q 75 267 75 201 l 75 694 m 258 783 q 190 810 217 783 q 164 878 164 838 q 190 945 164 918 q 258 972 217 972 q 326 945 300 972 q 353 878 353 918 q 326 810 353 838 q 258 783 300 783 m 547 783 q 479 810 506 783 q 453 878 453 838 q 479 945 453 918 q 547 972 506 972 q 615 945 589 972 q 642 878 642 918 q 615 810 642 838 q 547 783 589 783 m 203 1161 l 603 1161 l 603 1053 l 203 1053 l 203 1161 z "},"ǘ":{"ha":803,"x_min":75,"x_max":722,"o":"m 75 694 l 314 694 l 314 297 q 331 208 314 231 q 383 186 347 186 q 438 200 417 186 q 483 247 460 214 l 483 694 l 722 694 l 722 0 l 528 0 l 511 92 l 506 92 q 413 13 464 42 q 292 -17 363 -17 q 194 3 235 -17 q 126 60 153 24 q 88 149 100 97 q 75 267 75 201 l 75 694 m 417 1192 l 617 1192 l 450 1033 l 300 1033 l 417 1192 m 258 783 q 190 810 217 783 q 164 878 164 838 q 190 945 164 918 q 258 972 217 972 q 326 945 300 972 q 353 878 353 918 q 326 810 353 838 q 258 783 300 783 m 547 783 q 479 810 506 783 q 453 878 453 838 q 479 945 453 918 q 547 972 506 972 q 615 945 589 972 q 642 878 642 918 q 615 810 642 838 q 547 783 589 783 z "},"ǚ":{"ha":803,"x_min":75,"x_max":722,"o":"m 75 694 l 314 694 l 314 297 q 331 208 314 231 q 383 186 347 186 q 438 200 417 186 q 483 247 460 214 l 483 694 l 722 694 l 722 0 l 528 0 l 511 92 l 506 92 q 413 13 464 42 q 292 -17 363 -17 q 194 3 235 -17 q 126 60 153 24 q 88 149 100 97 q 75 267 75 201 l 75 694 m 186 1192 l 344 1192 l 400 1114 l 406 1114 l 461 1192 l 619 1192 l 503 1033 l 303 1033 l 186 1192 m 258 783 q 190 810 217 783 q 164 878 164 838 q 190 945 164 918 q 258 972 217 972 q 326 945 300 972 q 353 878 353 918 q 326 810 353 838 q 258 783 300 783 m 547 783 q 479 810 506 783 q 453 878 453 838 q 479 945 453 918 q 547 972 506 972 q 615 945 589 972 q 642 878 642 918 q 615 810 642 838 q 547 783 589 783 z "}}}
